<svg width="352" height="64" viewBox="0 0 352 64" fill="none" xmlns="http://www.w3.org/2000/svg">
<rect x="2.41016" y="2.11304" width="348.079" height="60.0143" rx="30.0071" stroke="#2A1844" stroke-width="3"/>
<path d="M41.6963 25.1731H51.2073M51.2073 25.1731L46.4518 20.4176M51.2073 25.1731L46.4518 29.9286" stroke="#2A1844" stroke-width="3" stroke-linecap="round" stroke-linejoin="round"/>
<path d="M45.0538 40.5523L38.5258 41.8173C34.1163 39.6041 31.3925 37.0618 29.8074 33.0989L31.0279 26.552L28.7208 20.4176H22.775C20.9876 20.4176 19.5801 21.8946 19.8471 23.6619C20.5135 28.0739 22.4784 36.0734 28.2222 41.8173C34.2541 47.8491 42.9416 50.4666 47.7229 51.5069C49.5693 51.9087 51.2071 50.4683 51.2071 48.5788V42.8971L45.0538 40.5523Z" stroke="#2A1844" stroke-width="3" stroke-linecap="round" stroke-linejoin="round"/>
<path d="M91.9079 31.2984L91.8879 32.3184L91.9079 33.3384L91.7079 33.3984C90.9879 33.3784 89.7879 33.3384 88.1279 33.3184C88.1479 35.1384 88.1879 36.4184 88.2079 37.1584L88.1479 37.3584H86.1079L86.0479 37.1584C86.0679 36.4184 86.1079 35.1384 86.1279 33.3184C84.4679 33.3384 83.2679 33.3784 82.5479 33.3984L82.3479 33.3384C82.3679 33.1184 82.3679 32.7784 82.3679 32.3184C82.3679 31.8584 82.3679 31.5184 82.3479 31.2984L82.5479 31.2384C83.9679 31.2984 85.1479 31.3184 86.1279 31.3184C86.1079 29.5184 86.0679 28.2384 86.0479 27.4784L86.1079 27.2784H88.1479L88.2079 27.4784C88.1879 28.2384 88.1479 29.5184 88.1279 31.3184C89.1079 31.3184 90.2879 31.2984 91.7079 31.2384L91.9079 31.2984ZM96.4718 38.6384C96.4118 38.1984 96.3318 37.5384 96.1918 36.6584L96.3118 36.4184C97.3318 36.8984 98.7718 37.1984 100.032 37.1984C102.972 37.1984 104.012 35.6184 104.092 31.7784L104.032 31.7584C103.292 33.1984 101.792 34.0784 99.9318 34.0784C96.9918 34.0784 95.3918 32.3784 95.3918 29.3384C95.3918 26.1184 97.3318 24.2584 100.672 24.2584C104.652 24.2584 106.532 26.5784 106.532 31.3984C106.532 36.6984 104.492 39.3384 100.392 39.3384C99.0518 39.3384 97.6118 39.0984 96.4718 38.6384ZM103.452 29.0584C103.452 27.9584 103.012 27.1384 102.212 26.6784C101.772 26.4384 101.252 26.3184 100.632 26.3184C98.7318 26.3184 97.7518 27.3184 97.7518 29.2984C97.7518 31.1584 98.6518 32.0984 100.432 32.0984C102.332 32.0984 103.452 31.0384 103.452 29.0584ZM110.124 38.6384C110.064 38.1984 109.984 37.5384 109.844 36.6584L109.964 36.4184C110.984 36.8984 112.424 37.1984 113.684 37.1984C116.624 37.1984 117.664 35.6184 117.744 31.7784L117.684 31.7584C116.944 33.1984 115.444 34.0784 113.584 34.0784C110.644 34.0784 109.044 32.3784 109.044 29.3384C109.044 26.1184 110.984 24.2584 114.324 24.2584C118.304 24.2584 120.184 26.5784 120.184 31.3984C120.184 36.6984 118.144 39.3384 114.044 39.3384C112.704 39.3384 111.264 39.0984 110.124 38.6384ZM117.104 29.0584C117.104 27.9584 116.664 27.1384 115.864 26.6784C115.424 26.4384 114.904 26.3184 114.284 26.3184C112.384 26.3184 111.404 27.3184 111.404 29.2984C111.404 31.1584 112.304 32.0984 114.084 32.0984C115.984 32.0984 117.104 31.0384 117.104 29.0584ZM122.477 35.3184C122.477 33.6584 123.337 32.3584 124.937 31.7984V31.7184C123.477 31.0584 122.757 29.9584 122.757 28.4184C122.757 25.9384 124.877 24.2584 128.097 24.2584C131.337 24.2584 133.457 25.9384 133.457 28.4184C133.457 29.9584 132.737 31.0584 131.277 31.7184V31.7984C132.877 32.3584 133.717 33.6384 133.717 35.3184C133.717 37.8184 131.597 39.3384 128.097 39.3384C124.597 39.3384 122.477 37.8184 122.477 35.3184ZM131.037 28.6784C131.037 27.1584 129.957 26.2984 128.097 26.2984C126.237 26.2984 125.177 27.1584 125.177 28.6784C125.177 30.1184 126.177 30.8584 128.097 30.8584C130.017 30.8584 131.037 30.1184 131.037 28.6784ZM131.257 35.0584C131.257 33.5384 130.117 32.6784 128.097 32.6784C126.097 32.6784 124.957 33.5384 124.957 35.0584C124.957 36.5184 126.037 37.2784 128.097 37.2784C130.177 37.2784 131.257 36.5184 131.257 35.0584ZM136.921 38.6384C136.861 38.1984 136.781 37.5384 136.641 36.6584L136.761 36.4184C137.781 36.8984 139.221 37.1984 140.481 37.1984C143.421 37.1984 144.461 35.6184 144.541 31.7784L144.481 31.7584C143.741 33.1984 142.241 34.0784 140.381 34.0784C137.441 34.0784 135.841 32.3784 135.841 29.3384C135.841 26.1184 137.781 24.2584 141.121 24.2584C145.101 24.2584 146.981 26.5784 146.981 31.3984C146.981 36.6984 144.941 39.3384 140.841 39.3384C139.501 39.3384 138.061 39.0984 136.921 38.6384ZM143.901 29.0584C143.901 27.9584 143.461 27.1384 142.661 26.6784C142.221 26.4384 141.701 26.3184 141.081 26.3184C139.181 26.3184 138.201 27.3184 138.201 29.2984C138.201 31.1584 139.101 32.0984 140.881 32.0984C142.781 32.0984 143.901 31.0384 143.901 29.0584ZM156.149 39.0184L156.089 38.8184C156.169 38.1784 156.209 37.0784 156.209 35.5184H148.709L148.629 35.3184C148.649 35.1384 148.649 34.8784 148.649 34.5184C148.649 34.1784 148.649 33.9184 148.629 33.7384L155.709 24.5784H158.749L158.829 24.7784C158.789 25.2784 158.749 26.4184 158.729 28.2184C158.709 29.9984 158.689 31.7384 158.689 33.3984H160.829L160.909 33.5984L160.669 35.5184H158.689C158.709 37.2384 158.749 38.3384 158.809 38.8184L158.749 39.0184H156.149ZM151.449 33.3984H156.249V29.9784C156.249 28.7184 156.249 27.7784 156.269 27.1584H156.209L151.449 33.3984ZM168.536 31.8184C168.536 27.0984 170.596 24.2584 174.596 24.2584C178.596 24.2584 180.656 27.0984 180.656 31.8184C180.656 36.3784 178.496 39.3384 174.596 39.3384C170.596 39.3384 168.536 36.4784 168.536 31.8184ZM178.076 31.8184C178.076 28.2984 176.996 26.4384 174.596 26.4384C172.276 26.4384 171.116 28.2384 171.116 31.8184C171.136 35.3984 172.296 37.1784 174.596 37.1784C176.996 37.1784 178.076 35.2784 178.076 31.8184ZM183.185 31.8184C183.185 27.0984 185.245 24.2584 189.245 24.2584C193.245 24.2584 195.305 27.0984 195.305 31.8184C195.305 36.3784 193.145 39.3384 189.245 39.3384C185.245 39.3384 183.185 36.4784 183.185 31.8184ZM192.725 31.8184C192.725 28.2984 191.645 26.4384 189.245 26.4384C186.925 26.4384 185.765 28.2384 185.765 31.8184C185.785 35.3984 186.945 37.1784 189.245 37.1784C191.645 37.1784 192.725 35.2784 192.725 31.8184ZM197.833 31.8184C197.833 27.0984 199.893 24.2584 203.893 24.2584C207.893 24.2584 209.953 27.0984 209.953 31.8184C209.953 36.3784 207.793 39.3384 203.893 39.3384C199.893 39.3384 197.833 36.4784 197.833 31.8184ZM207.373 31.8184C207.373 28.2984 206.293 26.4384 203.893 26.4384C201.573 26.4384 200.413 28.2384 200.413 31.8184C200.433 35.3984 201.593 37.1784 203.893 37.1784C206.293 37.1784 207.373 35.2784 207.373 31.8184ZM219.796 39.0184L219.716 38.7784L223.336 30.3384L224.016 28.7584L224.836 26.8184V26.7784H218.076L217.976 26.5784V24.5784H227.916V26.2784C226.496 29.5184 224.696 33.7584 222.476 39.0184H219.796ZM231.163 39.0184L231.083 38.7784L234.703 30.3384L235.383 28.7584L236.203 26.8184V26.7784H229.443L229.343 26.5784V24.5784H239.283V26.2784C237.863 29.5184 236.063 33.7584 233.843 39.0184H231.163ZM242.53 39.0184L242.45 38.7784L246.07 30.3384L246.75 28.7584L247.57 26.8184V26.7784H240.81L240.71 26.5784V24.5784H250.65V26.2784C249.23 29.5184 247.43 33.7584 245.21 39.0184H242.53ZM253.897 39.0184L253.817 38.7784L257.437 30.3384L258.117 28.7584L258.937 26.8184V26.7784H252.177L252.077 26.5784V24.5784H262.017V26.2784C260.597 29.5184 258.797 33.7584 256.577 39.0184H253.897Z" fill="#2A1844"/>
</svg>
