<svg width="352" height="64" viewBox="0 0 352 64" fill="none" xmlns="http://www.w3.org/2000/svg">
<rect x="2.41016" y="2.38007" width="348.079" height="60.0143" rx="30.0071" stroke="#2A1844" stroke-width="3"/>
<path d="M36.6196 32.1028C38.4348 32.1028 39.9062 30.7785 39.9062 29.1448C39.9062 27.5112 38.4348 26.1869 36.6196 26.1869C34.8045 26.1869 33.333 27.5112 33.333 29.1448C33.333 30.7785 34.8045 32.1028 36.6196 32.1028Z" stroke="#2A1844" stroke-width="3" stroke-linecap="round" stroke-linejoin="round"/>
<path d="M36.6196 19.6138C31.1762 19.6138 26.7598 23.7851 26.7598 28.9227C26.7598 34.8341 33.333 44.2021 35.7466 47.4378C35.8468 47.5744 35.9781 47.6855 36.1298 47.7621C36.2816 47.8388 36.4494 47.8787 36.6196 47.8787C36.7899 47.8787 36.9577 47.8388 37.1094 47.7621C37.2611 47.6855 37.3924 47.5744 37.4926 47.4378C39.9062 44.2035 46.4795 34.8389 46.4795 28.9227C46.4795 23.7851 42.0631 19.6138 36.6196 19.6138Z" stroke="#2A1844" stroke-width="3" stroke-linecap="round" stroke-linejoin="round"/>
<path d="M79.9481 38.8854L79.6481 36.7854L79.7681 36.5254C81.3281 37.0854 82.8081 37.3654 84.1881 37.3654C86.1881 37.3654 87.1281 36.7654 87.1281 35.5454C87.1281 34.2454 86.3281 33.5854 84.0681 32.9254C80.8881 31.9854 79.5281 30.6054 79.5281 28.3654C79.5281 25.7054 81.4081 24.2854 84.9281 24.2854C86.2081 24.2854 87.3081 24.4454 88.8281 24.8654L89.1081 26.9254L88.9881 27.1854C87.6281 26.7454 86.3681 26.5254 85.1881 26.5254C83.2481 26.5254 82.2681 27.1254 82.2681 28.3054C82.2681 29.5254 83.2481 30.3454 85.4681 30.9854C88.5081 31.8454 89.9081 33.2454 89.9081 35.5054C89.8881 38.1654 87.9481 39.6054 84.3681 39.6054C82.8681 39.6054 81.3881 39.3654 79.9481 38.8854ZM92.5834 39.2854L92.5034 39.0854C92.5634 38.5854 92.6034 37.5854 92.6234 36.0854C92.6434 34.5854 92.6434 33.1254 92.6434 31.6654C92.6434 27.7854 92.6034 25.4254 92.5034 24.6054L92.5834 24.4054H95.1834L95.2434 24.6054C95.1834 25.2654 95.1434 26.5254 95.1434 28.3454C95.1434 28.8854 95.1234 29.5254 95.1034 30.2454H95.1834C96.0634 28.9054 97.4034 28.1854 99.0034 28.1854C101.343 28.1854 102.603 29.5454 102.603 32.1854V34.0254C102.603 36.6054 102.643 38.2854 102.723 39.0854L102.663 39.2854H100.063L100.003 39.0854C100.083 38.2854 100.123 36.6054 100.123 34.0254V32.7854C100.123 31.1654 99.4234 30.3654 98.0234 30.3654C96.2034 30.3654 95.1234 31.7854 95.1234 34.0254C95.1234 36.5254 95.1634 38.2254 95.2434 39.0854L95.1834 39.2854H92.5834ZM105.187 33.8854C105.187 30.4654 107.227 28.1854 110.647 28.1854C114.047 28.1854 116.127 30.4654 116.127 33.8854C116.127 37.3054 114.047 39.6054 110.647 39.6054C107.227 39.6054 105.187 37.3054 105.187 33.8854ZM113.547 33.8854C113.547 31.5454 112.507 30.2654 110.647 30.2654C108.787 30.2654 107.767 31.5454 107.767 33.8854C107.767 36.2254 108.787 37.5054 110.647 37.5054C112.507 37.5054 113.547 36.2254 113.547 33.8854ZM119.159 35.8654V30.4654H117.439V28.5054H119.139C119.119 27.7454 119.099 27.1054 119.039 26.6054L119.099 26.3854L121.539 25.8454L121.659 26.0454V28.5054H125.179L125.239 28.6854L125.019 30.4654H121.659V35.5254C121.659 37.0254 122.219 37.4854 123.319 37.4854C123.859 37.4854 124.539 37.3654 125.359 37.1254L125.439 37.3454L125.339 37.9254L125.139 39.2254C124.439 39.4854 123.659 39.6054 122.759 39.6054C120.279 39.6054 119.159 38.5854 119.159 35.8654ZM136.498 39.0854L136.418 39.2854H134.018L133.918 39.1054C133.958 38.6054 133.978 38.1454 133.958 37.7654L133.878 37.7454C132.938 38.9654 131.778 39.6054 130.178 39.6054C128.258 39.6054 127.118 38.4254 127.118 36.4854C127.118 34.0254 128.598 32.7854 131.558 32.7854C132.338 32.7854 133.118 32.8454 133.898 32.9854V32.4254C133.898 30.7654 133.238 30.1654 131.498 30.1654C130.518 30.1654 129.418 30.3654 128.158 30.7454L128.078 30.5454C128.238 29.7454 128.338 29.1254 128.398 28.6654C129.818 28.3454 131.098 28.1854 132.198 28.1854C135.058 28.1854 136.358 29.3454 136.358 31.9654V33.7654C136.358 34.9654 136.378 36.0654 136.398 37.0854C136.418 38.0854 136.458 38.7454 136.498 39.0854ZM133.898 35.1054V34.4854C133.258 34.3454 132.638 34.2854 132.038 34.2854C130.298 34.2854 129.518 34.8454 129.518 36.2654C129.518 37.2454 130.038 37.7254 131.058 37.7254C132.678 37.7254 133.898 36.4654 133.898 35.1054ZM145.95 39.2854L145.89 39.0854C145.99 38.3654 146.03 36.7254 146.03 34.1654L146.01 31.9454V30.6654C145.99 27.2454 145.95 25.3054 145.89 24.8054L145.95 24.6054H151.45C154.95 24.6054 156.71 26.0854 156.71 29.0654C156.71 31.2254 155.53 32.7654 153.61 33.2454L153.59 33.3054L154.15 34.1454L154.47 34.6254L157.31 39.0654L157.25 39.2854H154.33L150.89 33.6454H148.63C148.63 36.5054 148.67 38.3054 148.77 39.0854L148.71 39.2854H145.95ZM148.65 31.6254H151.03C152.95 31.6254 154.09 30.7654 154.09 29.0854C154.09 27.4654 153.13 26.6854 151.19 26.6854H148.69C148.67 28.2654 148.65 29.9054 148.65 31.6254ZM159.323 35.6054V33.7654C159.323 30.9654 159.283 29.2854 159.203 28.7054L159.263 28.5054H161.863L161.923 28.7054C161.843 29.4654 161.803 31.1454 161.803 33.7654V35.0454C161.803 36.7454 162.343 37.4054 163.703 37.4054C164.583 37.4054 165.303 37.0654 165.843 36.4054C166.383 35.7254 166.663 34.8454 166.663 33.7854C166.663 31.1054 166.623 29.4054 166.523 28.7054L166.603 28.5054H169.203L169.263 28.7054C169.183 29.2854 169.143 30.9654 169.143 33.7654C169.143 34.9854 169.163 36.1054 169.183 37.1054C169.203 38.1054 169.243 38.7654 169.283 39.0854L169.203 39.2854H166.763L166.663 39.1054C166.683 38.6854 166.703 38.3654 166.703 38.1454C166.703 37.8854 166.703 37.7054 166.683 37.5654L166.603 37.5454C165.643 38.9254 164.343 39.6054 162.683 39.6054C160.443 39.6054 159.323 38.2654 159.323 35.6054ZM172.189 39.1454L171.889 37.2254L171.989 37.0454C173.329 37.4654 174.169 37.6254 175.189 37.6254C176.709 37.6254 177.429 37.2254 177.429 36.3454C177.429 35.5254 176.669 34.9854 175.129 34.5854C172.669 33.9654 171.709 32.9254 171.709 31.1854C171.709 29.1854 173.069 28.1854 175.809 28.1854C176.929 28.1854 178.009 28.3254 179.069 28.6054L179.369 30.5254L179.269 30.7054C178.089 30.3654 177.209 30.1654 176.109 30.1654C174.849 30.1654 174.309 30.5254 174.309 31.3454C174.309 32.1254 174.869 32.4654 176.249 32.8854C178.909 33.6654 180.029 34.5654 180.029 36.4854C180.029 38.5454 178.489 39.6054 175.509 39.6054C174.409 39.6054 173.309 39.4454 172.189 39.1454ZM183.006 35.8654V30.4654H181.286V28.5054H182.986C182.966 27.7454 182.946 27.1054 182.886 26.6054L182.946 26.3854L185.386 25.8454L185.506 26.0454V28.5054H189.026L189.086 28.6854L188.866 30.4654H185.506V35.5254C185.506 37.0254 186.066 37.4854 187.166 37.4854C187.706 37.4854 188.386 37.3654 189.206 37.1254L189.286 37.3454L189.186 37.9254L188.986 39.2254C188.286 39.4854 187.506 39.6054 186.606 39.6054C184.126 39.6054 183.006 38.5854 183.006 35.8654ZM200.346 39.0854L200.266 39.2854H197.866L197.766 39.1054C197.806 38.6054 197.826 38.1454 197.806 37.7654L197.726 37.7454C196.786 38.9654 195.626 39.6054 194.026 39.6054C192.106 39.6054 190.966 38.4254 190.966 36.4854C190.966 34.0254 192.446 32.7854 195.406 32.7854C196.186 32.7854 196.966 32.8454 197.746 32.9854V32.4254C197.746 30.7654 197.086 30.1654 195.346 30.1654C194.366 30.1654 193.266 30.3654 192.006 30.7454L191.926 30.5454C192.086 29.7454 192.186 29.1254 192.246 28.6654C193.666 28.3454 194.946 28.1854 196.046 28.1854C198.906 28.1854 200.206 29.3454 200.206 31.9654V33.7654C200.206 34.9654 200.226 36.0654 200.246 37.0854C200.266 38.0854 200.306 38.7454 200.346 39.0854ZM197.746 35.1054V34.4854C197.106 34.3454 196.486 34.2854 195.886 34.2854C194.146 34.2854 193.366 34.8454 193.366 36.2654C193.366 37.2454 193.886 37.7254 194.906 37.7254C196.526 37.7254 197.746 36.4654 197.746 35.1054ZM206.364 39.2854L206.224 39.1054C205.084 36.0654 203.724 32.6054 202.124 28.7054L202.184 28.5054H204.844L206.664 33.6254L207.584 36.4254H207.664L208.584 33.6054L210.404 28.5054H213.064L213.144 28.7054C211.864 31.6654 210.464 35.1254 208.924 39.1054L208.764 39.2854H206.364ZM224.652 34.4454L224.552 34.6454L216.752 34.7654C217.012 36.7454 218.132 37.6254 220.292 37.6254C221.472 37.6254 222.632 37.4054 223.752 36.9854L223.852 37.1654L223.752 37.7454C223.692 38.0854 223.612 38.5054 223.552 39.0454C222.272 39.4254 221.052 39.6054 219.872 39.6054C216.092 39.6054 214.132 37.6854 214.132 33.9854C214.132 30.3654 216.192 28.1854 219.632 28.1854C223.092 28.1854 224.792 30.3054 224.652 34.4454ZM219.652 30.1054C217.892 30.1054 216.852 31.2654 216.712 33.2854L222.272 33.1054C222.292 31.1054 221.392 30.1054 219.652 30.1054ZM227.193 39.2854L227.113 39.0854C227.213 38.2854 227.253 36.3454 227.253 33.2654V31.8454L227.233 29.6654C227.213 26.7454 227.173 25.0654 227.113 24.6054L227.193 24.4054H229.793L229.853 24.6054C229.793 25.1054 229.753 27.0854 229.733 30.5454V31.8454L229.713 34.1254C229.713 36.7054 229.753 38.3654 229.853 39.0854L229.793 39.2854H227.193ZM232.596 25.7454C232.596 25.0054 233.276 24.5054 234.316 24.5054C235.356 24.5054 236.036 25.0054 236.036 25.7454C236.036 26.4654 235.356 26.9654 234.316 26.9654C233.276 26.9654 232.596 26.4654 232.596 25.7454ZM233.016 39.2854L232.956 39.0854C233.036 38.2654 233.076 36.5254 233.076 33.8854C233.076 31.2654 233.036 29.5254 232.956 28.7054L233.016 28.5054H235.616L235.676 28.7054C235.596 29.5254 235.556 31.2654 235.556 33.8854C235.556 36.5254 235.596 38.2654 235.676 39.0854L235.616 39.2854H233.016ZM239.813 36.1854H242.533L242.653 36.4454C241.673 38.8254 240.873 40.8854 240.253 42.6454H238.313C238.853 40.5454 239.353 38.3854 239.813 36.1854ZM254.287 39.2854L254.227 39.0854C254.307 38.4654 254.347 36.0854 254.347 31.9854V27.3654L250.747 28.7254L250.627 28.4854C250.647 28.3054 250.667 28.0654 250.727 27.7454L250.867 26.4254L255.127 24.6854H257.007L257.067 24.8854C257.007 25.3654 256.967 27.2854 256.947 30.6654V31.9454L256.927 34.1654C256.927 36.7254 256.967 38.3654 257.067 39.0854L257.007 39.2854H254.287ZM261.235 38.9054C261.175 38.4654 261.095 37.8054 260.955 36.9254L261.075 36.6854C262.095 37.1654 263.535 37.4654 264.795 37.4654C267.735 37.4654 268.775 35.8854 268.855 32.0454L268.795 32.0254C268.055 33.4654 266.555 34.3454 264.695 34.3454C261.755 34.3454 260.155 32.6454 260.155 29.6054C260.155 26.3854 262.095 24.5254 265.435 24.5254C269.415 24.5254 271.295 26.8454 271.295 31.6654C271.295 36.9654 269.255 39.6054 265.155 39.6054C263.815 39.6054 262.375 39.3654 261.235 38.9054ZM268.215 29.3254C268.215 28.2254 267.775 27.4054 266.975 26.9454C266.535 26.7054 266.015 26.5854 265.395 26.5854C263.495 26.5854 262.515 27.5854 262.515 29.5654C262.515 31.4254 263.415 32.3654 265.195 32.3654C267.095 32.3654 268.215 31.3054 268.215 29.3254ZM272.827 39.2854L272.747 39.0654C274.647 34.7254 276.567 29.9054 278.487 24.6054H280.747L280.827 24.8254C278.847 29.4454 276.927 34.2654 275.087 39.2854H272.827ZM282.043 39.2854L281.983 39.0854V37.4254C281.983 36.7454 282.143 36.1254 282.483 35.5454C282.823 34.9654 283.243 34.4654 283.723 34.0454C284.223 33.6054 284.883 33.0654 285.703 32.4454C286.443 31.9054 287.023 31.4454 287.443 31.0654C288.303 30.3254 288.963 29.3854 288.963 28.3454C288.963 27.2054 288.303 26.7254 286.643 26.7254C285.283 26.7254 284.063 27.0054 282.623 27.6654L282.523 27.4054C282.643 26.6254 282.743 25.9654 282.803 25.3854C284.203 24.8054 285.683 24.5254 287.223 24.5254C290.143 24.5254 291.603 25.6854 291.603 27.9854C291.603 28.8454 291.403 29.6454 291.003 30.3454C290.603 31.0454 290.123 31.6654 289.563 32.1854C289.003 32.6854 288.283 33.2654 287.403 33.9054C285.543 35.2854 284.703 36.0454 284.683 37.1054H291.703L291.823 37.3054L291.563 39.2854H282.043Z" fill="#2A1844"/>
</svg>
