<svg width="352" height="64" viewBox="0 0 352 64" fill="none" xmlns="http://www.w3.org/2000/svg">
<rect x="2.41016" y="1.92973" width="348.079" height="60.0143" rx="30.0071" stroke="#2A1844" stroke-width="3"/>
<path d="M33.335 60.6043C33.335 51.4831 33.335 42.362 33.335 33.2409C33.335 26.59 34.8552 21.0793 45.4965 21.0793" stroke="#2A1844" stroke-width="3" stroke-linecap="round" stroke-linejoin="round"/>
<path d="M27.2539 36.2813H33.3347H45.4962" stroke="#2A1844" stroke-width="3" stroke-linecap="round" stroke-linejoin="round"/>
<path d="M133.138 30.7759H127.058L127.018 35.2959H132.438V37.4359H126.998C126.998 40.4359 127.038 42.3359 127.138 43.1359L127.078 43.3359H124.318L124.258 43.1359C124.358 42.4159 124.398 40.7759 124.398 38.2159L124.378 35.9959V34.7159C124.358 31.2959 124.318 29.3559 124.258 28.8559L124.318 28.6559H132.978C133.078 29.5159 133.178 30.1559 133.238 30.5759L133.138 30.7759ZM147.356 43.1159L147.296 43.3359H144.676L143.596 40.2559H137.336L136.256 43.3359H133.636L133.556 43.1159C135.476 38.2959 137.316 33.5359 139.056 28.8159L139.216 28.6559H141.796L141.956 28.8159C144.016 34.4359 145.816 39.1959 147.356 43.1159ZM138.076 38.1959H142.856L141.376 33.9959C141.076 33.1359 140.796 32.2159 140.516 31.1959H140.456C140.236 31.9759 139.936 32.8959 139.556 33.9759L138.076 38.1959ZM148.442 35.9559C148.442 31.1559 151.062 28.3359 155.422 28.3359C156.742 28.3359 157.982 28.4959 159.162 28.8159L159.442 30.8759L159.322 31.1359C158.122 30.7559 156.742 30.5759 155.622 30.5759C152.682 30.5759 151.142 32.4559 151.142 35.9959C151.142 39.5159 152.662 41.4159 155.682 41.4159C157.062 41.4159 158.322 41.2359 159.482 40.8559L159.602 41.1159L159.322 43.1759C158.142 43.4959 156.862 43.6559 155.442 43.6559C153.202 43.6559 151.482 42.9759 150.262 41.6159C149.042 40.2559 148.442 38.3759 148.442 35.9559ZM171.784 41.2159L171.884 41.4159C171.824 41.8359 171.724 42.4759 171.624 43.3359H162.364L162.304 43.1359C162.404 42.4159 162.444 40.7759 162.444 38.2159L162.424 35.9959V34.7159C162.404 31.2959 162.364 29.3559 162.304 28.8559L162.364 28.6559H171.384C171.484 29.5159 171.584 30.1559 171.644 30.5759L171.544 30.7759H165.104L165.064 34.8559H170.824L170.804 35.8959L170.824 36.9559H165.064V38.3959C165.064 39.7759 165.064 40.7159 165.084 41.2159H171.784ZM174.532 43.3359L174.472 43.1359C174.572 42.3559 174.612 40.6959 174.612 38.1559L174.592 35.9959V34.7159C174.572 31.2959 174.532 29.3559 174.472 28.8559L174.532 28.6559H180.232C183.292 28.6559 184.932 29.9159 184.932 32.2959C184.932 33.8959 184.112 35.1159 182.832 35.5159V35.5759C184.512 35.9559 185.532 37.2559 185.532 39.0359C185.532 41.7559 183.652 43.3359 180.392 43.3359H174.532ZM177.232 34.8359H179.612C181.552 34.8359 182.392 34.1359 182.392 32.5959C182.392 31.3359 181.552 30.6759 179.952 30.6759H177.252C177.232 31.5359 177.232 32.9359 177.232 34.8359ZM177.232 41.3159H180.072C181.912 41.3159 182.912 40.5159 182.912 38.9959C182.912 37.4759 181.972 36.6759 180.152 36.6759H177.212V38.1759C177.212 39.6759 177.212 40.7359 177.232 41.3159ZM187.504 35.9959C187.504 31.3359 190.004 28.3359 194.324 28.3359C198.584 28.3359 201.124 31.3359 201.124 35.9959C201.124 40.6159 198.424 43.6559 194.324 43.6559C190.004 43.6559 187.504 40.6559 187.504 35.9959ZM198.404 35.9959C198.404 32.5759 196.984 30.6159 194.324 30.6159C191.664 30.6159 190.244 32.5759 190.244 35.9959C190.244 39.4159 191.664 41.3759 194.324 41.3759C196.984 41.3759 198.404 39.4159 198.404 35.9959ZM203.5 35.9959C203.5 31.3359 206 28.3359 210.32 28.3359C214.58 28.3359 217.12 31.3359 217.12 35.9959C217.12 40.6159 214.42 43.6559 210.32 43.6559C206 43.6559 203.5 40.6559 203.5 35.9959ZM214.4 35.9959C214.4 32.5759 212.98 30.6159 210.32 30.6159C207.66 30.6159 206.24 32.5759 206.24 35.9959C206.24 39.4159 207.66 41.3759 210.32 41.3759C212.98 41.3759 214.4 39.4159 214.4 35.9959ZM220.196 43.3359L220.136 43.1359C220.236 42.4159 220.276 40.7759 220.276 38.2159L220.256 35.9959V34.7159C220.236 31.2959 220.196 29.3559 220.136 28.8559L220.196 28.6559H222.936L223.016 28.8559C222.956 29.2559 222.916 30.6359 222.896 32.9959L222.876 34.7559H224.516L228.916 28.6559H231.896L231.976 28.8959L226.956 35.6959L232.316 43.1159L232.256 43.3359H229.236L224.576 37.0159H222.876V38.1959C222.876 40.7759 222.916 42.4159 223.016 43.1359L222.936 43.3359H220.196Z" fill="#2A1844"/>
</svg>
