<svg width="352" height="64" viewBox="0 0 352 64" fill="none" xmlns="http://www.w3.org/2000/svg">
<rect x="2.41016" y="1.56314" width="348.079" height="60.0143" rx="30.0071" stroke="#2A1844" stroke-width="3"/>
<path d="M52.2912 17.6303L16.7188 29.9438L29.0323 34.0483M52.2912 17.6303L29.0323 34.0483M52.2912 17.6303L41.3458 46.3618L29.0323 34.0483" stroke="#2A1844" stroke-width="3" stroke-linecap="round" stroke-linejoin="round"/>
<path d="M128.256 23.7884L128.236 24.8084L128.256 25.8284L128.136 26.0284H123.736C123.716 26.8484 123.696 28.5484 123.696 31.1284L123.676 33.3484C123.676 35.9084 123.716 37.5484 123.816 38.2684L123.756 38.4684H120.996L120.936 38.2684C121.036 37.5484 121.076 35.9084 121.076 33.3484L121.056 31.1284C121.056 30.0684 121.056 29.3084 121.036 28.8484C121.036 27.4684 121.036 26.5284 121.016 26.0284H116.616L116.496 25.8284C116.516 25.6084 116.516 25.2684 116.516 24.8084C116.516 24.3484 116.516 24.0084 116.496 23.7884H128.256ZM139.916 36.3484L140.016 36.5484C139.956 36.9684 139.856 37.6084 139.756 38.4684H130.496L130.436 38.2684C130.536 37.5484 130.576 35.9084 130.576 33.3484L130.556 31.1284V29.8484C130.536 26.4284 130.496 24.4884 130.436 23.9884L130.496 23.7884H139.516C139.616 24.6484 139.716 25.2884 139.776 25.7084L139.676 25.9084H133.236L133.196 29.9884H138.956L138.936 31.0284L138.956 32.0884H133.196V33.5284C133.196 34.9084 133.196 35.8484 133.216 36.3484H139.916ZM152.144 36.2284L152.244 36.4284C152.164 36.8884 152.064 37.5684 151.964 38.4684H142.664L142.604 38.2684C142.704 37.5484 142.744 35.9084 142.744 33.3484L142.724 31.1284V29.8484C142.704 26.4284 142.664 24.4884 142.604 23.9884L142.664 23.7884H145.424L145.484 23.9884C145.424 24.4884 145.384 26.4284 145.364 29.8484V31.1284L145.344 33.5284C145.344 34.3484 145.364 35.2484 145.384 36.2284H152.144ZM164.115 36.3484L164.215 36.5484C164.155 36.9684 164.055 37.6084 163.955 38.4684H154.695L154.635 38.2684C154.735 37.5484 154.775 35.9084 154.775 33.3484L154.755 31.1284V29.8484C154.735 26.4284 154.695 24.4884 154.635 23.9884L154.695 23.7884H163.715C163.815 24.6484 163.915 25.2884 163.975 25.7084L163.875 25.9084H157.435L157.395 29.9884H163.155L163.135 31.0284L163.155 32.0884H157.395V33.5284C157.395 34.9084 157.395 35.8484 157.415 36.3484H164.115ZM166.163 31.1284C166.163 26.2284 168.783 23.4684 173.643 23.4684C174.983 23.4684 176.643 23.6684 177.743 24.0084L177.843 24.6884C177.903 25.2484 177.983 25.7084 178.043 26.0484L177.923 26.2884C176.783 25.9084 175.203 25.7084 173.983 25.7084C170.483 25.7084 168.863 27.4884 168.863 31.1684C168.863 34.8484 170.443 36.5684 173.803 36.5684C174.683 36.5684 175.763 36.4684 176.503 36.2884C176.523 35.8284 176.543 35.1684 176.543 34.3084C176.543 33.4284 176.523 32.7684 176.503 32.3284H173.343L173.243 32.1284C173.343 31.5484 173.423 30.9684 173.483 30.3884H178.523L178.643 30.5884C178.623 31.3884 178.623 32.5884 178.623 34.1884C178.623 35.7884 178.623 36.9884 178.643 37.7884L178.543 37.9884C177.203 38.4884 175.183 38.7884 173.343 38.7884C168.723 38.7884 166.163 36.0084 166.163 31.1284ZM182.117 38.4684L182.057 38.2684C182.157 37.5484 182.197 35.9084 182.197 33.3484L182.177 31.1284V29.8484C182.157 26.4284 182.117 24.4884 182.057 23.9884L182.117 23.7884H187.617C191.117 23.7884 192.877 25.2684 192.877 28.2484C192.877 30.4084 191.697 31.9484 189.777 32.4284L189.757 32.4884L190.317 33.3284L190.637 33.8084L193.477 38.2484L193.417 38.4684H190.497L187.057 32.8284H184.797C184.797 35.6884 184.837 37.4884 184.937 38.2684L184.877 38.4684H182.117ZM184.817 30.8084H187.197C189.117 30.8084 190.257 29.9484 190.257 28.2684C190.257 26.6484 189.297 25.8684 187.357 25.8684H184.857C184.837 27.4484 184.817 29.0884 184.817 30.8084ZM208.496 38.2484L208.436 38.4684H205.816L204.736 35.3884H198.476L197.396 38.4684H194.776L194.696 38.2484C196.616 33.4284 198.456 28.6684 200.196 23.9484L200.356 23.7884H202.936L203.096 23.9484C205.156 29.5684 206.956 34.3284 208.496 38.2484ZM199.216 33.3284H203.996L202.516 29.1284C202.216 28.2684 201.936 27.3484 201.656 26.3284H201.596C201.376 27.1084 201.076 28.0284 200.696 29.1084L199.216 33.3284ZM210.613 38.4684L210.553 38.2684C210.653 37.5484 210.693 35.9084 210.693 33.3484L210.673 31.1284V29.8484C210.653 26.4284 210.613 24.4884 210.553 23.9884L210.613 23.7884H214.093L216.813 29.0884C217.233 29.8684 217.653 30.7884 218.113 31.8484H218.173C218.613 30.8284 219.053 29.9084 219.473 29.0684L222.153 23.7884H225.633L225.693 23.9884C225.633 24.4884 225.593 26.4284 225.573 29.8484V31.1284L225.553 33.3484C225.553 35.9084 225.593 37.5484 225.693 38.2684L225.633 38.4684H222.953L222.893 38.2684C222.973 37.4084 223.013 35.6684 223.013 33.0084V31.7484C222.993 30.8484 223.033 29.4884 223.093 27.6684L223.113 27.0084H223.033C222.893 27.3284 222.613 27.9084 222.193 28.7284L221.853 29.4084L219.013 34.8484C218.813 34.8284 218.513 34.8284 218.133 34.8284C217.753 34.8284 217.473 34.8284 217.273 34.8484L214.453 29.5084C214.233 29.0884 213.913 28.4684 213.513 27.6084L213.213 27.0084H213.133C213.193 28.8084 213.233 30.1884 213.233 31.1684C213.233 35.1084 213.273 37.4884 213.353 38.2684L213.293 38.4684H210.613Z" fill="#2A1844"/>
</svg>
