<svg width="352" height="64" viewBox="0 0 352 64" fill="none" xmlns="http://www.w3.org/2000/svg">
<rect x="2.41016" y="1.74643" width="348.079" height="60.0143" rx="30.0071" stroke="#2A1844" stroke-width="3"/>
<path d="M36.3754 43.4651C43.0919 43.4651 48.5369 38.0201 48.5369 31.3036C48.5369 24.587 43.0919 19.1421 36.3754 19.1421C29.6588 19.1421 24.2139 24.587 24.2139 31.3036C24.2139 38.0201 29.6588 43.4651 36.3754 43.4651Z" stroke="#2A1844" stroke-width="3" stroke-linecap="round" stroke-linejoin="round"/>
<path d="M53.0977 14.6128L53.1288 14.5782" stroke="#2A1844" stroke-width="3" stroke-linecap="round" stroke-linejoin="round"/>
<path d="M118.016 39.5521L117.956 39.3521C118.056 38.6321 118.096 36.9921 118.096 34.4321L118.076 32.2121V30.9321C118.056 27.5121 118.016 25.5721 117.956 25.0721L118.016 24.8721H120.776L120.836 25.0721C120.776 25.5721 120.736 27.5121 120.716 30.9321V32.2121L120.696 34.4321C120.696 36.9921 120.736 38.6321 120.836 39.3521L120.776 39.5521H118.016ZM124.539 39.5521L124.479 39.3521C124.579 38.6321 124.619 36.9921 124.619 34.4321L124.599 32.2121V30.9321C124.579 27.5121 124.539 25.5721 124.479 25.0721L124.539 24.8721H127.959L132.779 33.2521C133.079 33.7521 133.559 34.6121 134.199 35.7921C134.299 36.0121 134.399 36.1521 134.459 36.2921H134.519C134.459 35.4321 134.439 34.1721 134.439 32.5121C134.419 32.2921 134.419 31.9321 134.419 31.4721L134.399 29.2321C134.379 26.8721 134.339 25.4921 134.299 25.0721L134.359 24.8721H137.019L137.079 25.0721C137.039 25.3921 137.019 26.1121 136.999 27.2121C136.979 28.3121 136.979 29.0121 136.979 29.3121C136.979 30.5321 136.979 31.5121 136.959 32.2121L136.939 34.4321C136.939 36.9921 136.979 38.6321 137.079 39.3521L137.019 39.5521H133.639L128.759 31.1121C128.319 30.3521 127.779 29.3721 127.139 28.1721H127.079C127.119 29.1721 127.139 30.4321 127.139 31.9721V32.9721V34.1921C127.139 36.7721 127.179 38.4921 127.259 39.3521L127.199 39.5521H124.539ZM140.51 39.1521L140.21 37.0521L140.33 36.7921C141.89 37.3521 143.37 37.6321 144.75 37.6321C146.75 37.6321 147.69 37.0321 147.69 35.8121C147.69 34.5121 146.89 33.8521 144.63 33.1921C141.45 32.2521 140.09 30.8721 140.09 28.6321C140.09 25.9721 141.97 24.5521 145.49 24.5521C146.77 24.5521 147.87 24.7121 149.39 25.1321L149.67 27.1921L149.55 27.4521C148.19 27.0121 146.93 26.7921 145.75 26.7921C143.81 26.7921 142.83 27.3921 142.83 28.5721C142.83 29.7921 143.81 30.6121 146.03 31.2521C149.07 32.1121 150.47 33.5121 150.47 35.7721C150.45 38.4321 148.51 39.8721 144.93 39.8721C143.43 39.8721 141.95 39.6321 140.51 39.1521ZM163.471 24.8721L163.451 25.8921L163.471 26.9121L163.351 27.1121H158.951C158.931 27.9321 158.911 29.6321 158.911 32.2121L158.891 34.4321C158.891 36.9921 158.931 38.6321 159.031 39.3521L158.971 39.5521H156.211L156.151 39.3521C156.251 38.6321 156.291 36.9921 156.291 34.4321L156.271 32.2121C156.271 31.1521 156.271 30.3921 156.251 29.9321C156.251 28.5521 156.251 27.6121 156.231 27.1121H151.831L151.711 26.9121C151.731 26.6921 151.731 26.3521 151.731 25.8921C151.731 25.4321 151.731 25.0921 151.711 24.8721H163.471ZM176.953 39.3321L176.893 39.5521H174.273L173.193 36.4721H166.933L165.853 39.5521H163.233L163.153 39.3321C165.073 34.5121 166.913 29.7521 168.653 25.0321L168.813 24.8721H171.393L171.553 25.0321C173.613 30.6521 175.413 35.4121 176.953 39.3321ZM167.673 34.4121H172.453L170.973 30.2121C170.673 29.3521 170.393 28.4321 170.113 27.4121H170.053C169.833 28.1921 169.533 29.1121 169.153 30.1921L167.673 34.4121ZM178.038 32.2121C178.038 27.3121 180.658 24.5521 185.518 24.5521C186.858 24.5521 188.518 24.7521 189.618 25.0921L189.718 25.7721C189.778 26.3321 189.858 26.7921 189.918 27.1321L189.798 27.3721C188.658 26.9921 187.078 26.7921 185.858 26.7921C182.358 26.7921 180.738 28.5721 180.738 32.2521C180.738 35.9321 182.318 37.6521 185.678 37.6521C186.558 37.6521 187.638 37.5521 188.378 37.3721C188.398 36.9121 188.418 36.2521 188.418 35.3921C188.418 34.5121 188.398 33.8521 188.378 33.4121H185.218L185.118 33.2121C185.218 32.6321 185.298 32.0521 185.358 31.4721H190.398L190.518 31.6721C190.498 32.4721 190.498 33.6721 190.498 35.2721C190.498 36.8721 190.498 38.0721 190.518 38.8721L190.418 39.0721C189.078 39.5721 187.058 39.8721 185.218 39.8721C180.598 39.8721 178.038 37.0921 178.038 32.2121ZM193.992 39.5521L193.932 39.3521C194.032 38.6321 194.072 36.9921 194.072 34.4321L194.052 32.2121V30.9321C194.032 27.5121 193.992 25.5721 193.932 25.0721L193.992 24.8721H199.492C202.992 24.8721 204.752 26.3521 204.752 29.3321C204.752 31.4921 203.572 33.0321 201.652 33.5121L201.632 33.5721L202.192 34.4121L202.512 34.8921L205.352 39.3321L205.292 39.5521H202.372L198.932 33.9121H196.672C196.672 36.7721 196.712 38.5721 196.812 39.3521L196.752 39.5521H193.992ZM196.692 31.8921H199.072C200.992 31.8921 202.132 31.0321 202.132 29.3521C202.132 27.7321 201.172 26.9521 199.232 26.9521H196.732C196.712 28.5321 196.692 30.1721 196.692 31.8921ZM220.371 39.3321L220.311 39.5521H217.691L216.611 36.4721H210.351L209.271 39.5521H206.651L206.571 39.3321C208.491 34.5121 210.331 29.7521 212.071 25.0321L212.231 24.8721H214.811L214.971 25.0321C217.031 30.6521 218.831 35.4121 220.371 39.3321ZM211.091 34.4121H215.871L214.391 30.2121C214.091 29.3521 213.811 28.4321 213.531 27.4121H213.471C213.251 28.1921 212.951 29.1121 212.571 30.1921L211.091 34.4121ZM222.488 39.5521L222.428 39.3521C222.528 38.6321 222.568 36.9921 222.568 34.4321L222.548 32.2121V30.9321C222.528 27.5121 222.488 25.5721 222.428 25.0721L222.488 24.8721H225.968L228.688 30.1721C229.108 30.9521 229.528 31.8721 229.988 32.9321H230.048C230.488 31.9121 230.928 30.9921 231.348 30.1521L234.028 24.8721H237.508L237.568 25.0721C237.508 25.5721 237.468 27.5121 237.448 30.9321V32.2121L237.428 34.4321C237.428 36.9921 237.468 38.6321 237.568 39.3521L237.508 39.5521H234.828L234.768 39.3521C234.848 38.4921 234.888 36.7521 234.888 34.0921V32.8321C234.868 31.9321 234.908 30.5721 234.968 28.7521L234.988 28.0921H234.908C234.768 28.4121 234.488 28.9921 234.068 29.8121L233.728 30.4921L230.888 35.9321C230.688 35.9121 230.388 35.9121 230.008 35.9121C229.628 35.9121 229.348 35.9121 229.148 35.9321L226.328 30.5921C226.108 30.1721 225.788 29.5521 225.388 28.6921L225.088 28.0921H225.008C225.068 29.8921 225.108 31.2721 225.108 32.2521C225.108 36.1921 225.148 38.5721 225.228 39.3521L225.168 39.5521H222.488Z" fill="#2A1844"/>
</svg>
