<?xml version="1.0" encoding="UTF-8"?>
<svg id="Layer_2" data-name="Layer 2" xmlns="http://www.w3.org/2000/svg" viewBox="0 0 318.24 154.75">
  <defs>
    <style>
      .cls-1 {
        fill: #442d84;
      }
    </style>
  </defs>
  <g id="Layer_1-2" data-name="Layer 1">
    <g>
      <g>
        <path class="cls-1" d="m139.8,105.66v-26.19h178.41c0,.12.02.21.02.31,0,8.43,0,16.86.01,25.29,0,.59,0,.58-.59.58-4.02,0-8.04-.02-12.06-.02-28,0-56,0-84,0-26.55,0-53.1,0-79.65,0-.61,0-1.22.02-1.83.03-.1,0-.19,0-.32,0Zm74.97-13.07c.37-.14.69-.24,1-.37,1.1-.49,1.96-1.22,2.18-2.48.1-.56.15-1.13.15-1.69,0-1.13-.48-2.07-1.36-2.79-1.19-.97-2.59-1.3-4.08-1.32-2.58-.03-5.16-.04-7.74-.06-.1,0-.19,0-.31,0,0,.1-.02.18-.02.26,0,5.5,0,11,0,16.5,0,.23.07.28.29.28,1-.02,2-.02,3-.02.08,0,.17-.02.25-.03,0-.08,0-.13,0-.18,0-2.12,0-4.24,0-6.36,0-.17-.07-.36.24-.36,1.22,0,2.44.01,3.66-.01,1.05-.02,1.69.52,1.97,1.46.23.77.36,1.57.47,2.37.12.9.17,1.81.24,2.72.02.32.18.41.49.41.95-.01,1.9,0,2.85,0,.06,0,.13-.02.21-.04-.02-.08-.03-.14-.04-.19-.13-.77-.27-1.53-.38-2.3-.14-.97-.19-1.95-.38-2.91-.22-1.11-.78-2.03-1.85-2.54-.26-.12-.53-.21-.85-.33Zm73.82,3.03c0,.16,0,.28,0,.41,0,.09.01.18.03.27.31,1.96,1.43,3.36,3.18,4.19,2.18,1.03,4.48,1.08,6.79.51,1.16-.28,2.19-.82,3.01-1.71,1.01-1.1,1.34-2.44,1.3-3.9-.03-1.09-.46-1.97-1.28-2.67-.6-.52-1.27-.91-2.02-1.15-1.44-.45-2.9-.83-4.33-1.28-.63-.19-1.26-.42-1.83-.72-1.05-.56-.98-1.53-.5-2.27.26-.4.63-.66,1.07-.84,1.01-.4,2.06-.48,3.12-.25,1.32.28,1.94.99,2.07,2.32.02.2.11.22.27.21.9-.04,1.8-.08,2.7-.09.27,0,.34-.09.31-.35-.24-2.28-1.6-3.94-3.81-4.59-1.31-.38-2.65-.48-4.01-.35-1.87.18-3.5.84-4.62,2.46-.81,1.18-1.08,2.49-.87,3.88.19,1.27,1.03,2.07,2.12,2.67,1.09.6,2.29.87,3.47,1.19,1.04.28,2.08.57,3.11.89.51.16.95.47,1.26.93.48.7.34,2.11-.79,2.67-1.29.64-2.64.78-4.02.43-1.17-.3-1.98-1.05-2.34-2.23-.07-.23-.1-.46-.16-.71-1.07.04-2.13.07-3.23.11Zm-96.03,2.56c-.11,0-.2-.02-.3-.02-2.77,0-5.54,0-8.31,0-.27,0-.36-.05-.36-.34.02-1.31,0-2.62.01-3.93,0-.17,0-.33,0-.54h7.77v-2.94c-.13,0-.24,0-.35,0-2.37,0-4.74,0-7.11,0-.21,0-.3-.04-.3-.28.01-1.03,0-2.06,0-3.09,0-.11.02-.21.04-.34h8.89c.01-.13.03-.24.03-.35,0-.7,0-1.4.03-2.1.01-.28-.08-.35-.35-.35-3.97,0-7.94,0-11.91,0-.25,0-.27.1-.27.3,0,5.46,0,10.92,0,16.38,0,.11.01.21.02.33h12.48v-2.73Zm87.89,2.74c-.08-.26-.15-.51-.23-.75-.83-2.35-1.66-4.7-2.49-7.05-1.05-2.97-2.09-5.95-3.12-8.92-.08-.22-.19-.28-.42-.28-.94.01-1.88,0-2.82,0-.55,0-.55,0-.73.52-1.92,5.45-3.83,10.9-5.75,16.35-.01.03,0,.07,0,.1.03.02.05.03.07.03,1.09,0,2.18,0,3.27-.01.07,0,.17-.08.19-.14.39-1.12.77-2.25,1.13-3.37.06-.17.12-.21.29-.21,1.88,0,3.76,0,5.64,0,.17,0,.26.04.32.22.35,1.08.72,2.16,1.07,3.24.07.21.16.28.38.28,1.02,0,2.04,0,3.06,0,.04,0,.07-.01.16-.03Zm-110.63-16.99c-.14,0-.24,0-.33,0-1.04,0-2.08,0-3.12-.02-.18,0-.24.08-.28.23-.2.75-.4,1.5-.62,2.25-.95,3.28-1.91,6.55-2.87,9.82-.02.07-.05.13-.11.26-.05-.11-.08-.16-.1-.21-.28-.89-.57-1.77-.82-2.66-.89-3.12-1.77-6.24-2.64-9.36-.07-.26-.19-.34-.46-.34-1.05.01-2.1,0-3.15,0-.07,0-.15.02-.24.03.02.08.04.14.06.19.71,2.11,1.43,4.21,2.14,6.32,1.16,3.42,2.32,6.84,3.47,10.26.07.2.18.23.35.23.95,0,1.9,0,2.85,0,.08,0,.2-.11.23-.19.14-.36.26-.73.38-1.1,1.58-4.71,3.15-9.42,4.73-14.13.17-.51.33-1.02.52-1.58Zm88.22,2.91c0-.92,0-1.79,0-2.66,0-.05-.12-.14-.19-.14-.32-.02-.64,0-.96,0-4.12,0-8.24,0-12.36,0-.23,0-.26.07-.26.28.02.75.02,1.5,0,2.25,0,.24.06.28.28.28,1.48,0,2.96,0,4.44,0,.4,0,.4,0,.4.39,0,4.47.01,8.94,0,13.4,0,.24.06.31.3.31.97-.01,1.94-.02,2.91,0,.26,0,.34-.07.34-.34,0-4.47,0-8.94-.02-13.4,0-.32.1-.38.39-.38.94.02,1.88.01,2.82.02.62,0,1.24,0,1.9,0Zm-23.7,14.11v-17.01h-3.48c0,.08-.01.12-.01.17,0,5.54-.01,11.08-.02,16.62,0,.17.04.23.22.22,1.09,0,2.18,0,3.3,0Z"/>
        <path class="cls-1" d="m139.81,75.32v-26.21c.1,0,.19-.02.29-.02,25.88,0,51.76,0,77.63,0,33.31,0,66.62,0,99.93,0,.57,0,.57,0,.57.57,0,8.03,0,16.06,0,24.09,0,.42-.01.84,0,1.26,0,.24-.08.31-.31.31-3,0-6,0-9,0-29.46,0-58.91,0-88.37,0-26.52,0-53.03,0-79.55,0-.39,0-.78,0-1.21,0Zm27.29-13.76s.02-.04.05-.05c.05-.02.11-.03.17-.05.87-.29,1.6-.79,1.91-1.68.48-1.38.41-2.76-.35-4.01-.86-1.41-2.21-2.07-3.83-2.1-2.78-.05-5.56-.03-8.34-.04-.11,0-.23,0-.36,0v.33c0,5.46,0,10.92,0,16.37,0,.04,0,.08,0,.12-.02.17.05.23.22.23,2.39-.01,4.78-.02,7.17-.03.63,0,1.26,0,1.88-.07,2.42-.27,4.63-2.01,4.42-4.86-.11-1.4-.6-2.6-1.74-3.47-.36-.27-.79-.45-1.2-.68Zm53.9.78s.03-.05.05-.06c.1-.04.21-.07.31-.1,1.24-.42,2.29-1.07,2.7-2.41.26-.87.3-1.78.12-2.67-.28-1.4-1.2-2.28-2.47-2.84-1.02-.45-2.09-.58-3.19-.59-2.34-.02-4.68-.02-7.02-.03-.24,0-.47,0-.74,0,0,.25,0,.48,0,.71.01,3.16.02,6.32.03,9.48,0,2.16,0,4.32,0,6.48,0,.26.06.35.33.34.98-.02,1.96,0,2.94,0,.08,0,.15-.01.26-.02,0-.24,0-.47,0-.7,0-1.98-.01-3.96-.02-5.94,0-.16-.01-.3.22-.3,1.27,0,2.54,0,3.81,0,.88,0,1.46.45,1.79,1.25.07.17.16.35.19.53.15.98.29,1.95.41,2.93.07.57.08,1.16.13,1.73.04.46.12.52.55.52.91,0,1.82,0,2.73-.01.1,0,.21-.02.24-.02-.12-.85-.25-1.67-.36-2.48-.13-.96-.18-1.93-.36-2.88-.28-1.43-1.06-2.46-2.53-2.85-.04-.01-.08-.05-.12-.07Zm16.72,8.27c.26,0,.49,0,.71,0,3.83,0,7.66,0,11.49.01.21,0,.28-.05.28-.27-.01-.77,0-1.54,0-2.31,0-.08-.01-.15-.02-.24-.06,0-.09-.02-.13-.02-2.81,0-5.62,0-8.43,0-.39,0-.39,0-.39-.4,0-1.34.03-2.68.03-4.02,0-.27.06-.36.35-.36,2.39,0,4.78,0,7.17,0,.21,0,.27-.06.27-.27-.02-.81-.01-1.62-.02-2.43,0-.08-.02-.17-.03-.25-2.5,0-4.96,0-7.42,0-.27,0-.34-.07-.34-.34.02-1.04.01-2.08.02-3.12,0-.07.02-.13.03-.22h8.89v-2.82h-12.46v17.03Zm-55.18-16.9c0,.32,0,.63,0,.93,0,3.49,0,6.98,0,10.47,0,.44,0,.88.04,1.32.07.79.28,1.53.8,2.16.79.97,1.79,1.65,2.97,2.04,1.33.44,2.71.48,4.09.4,1.43-.09,2.75-.54,3.92-1.4,1.23-.9,1.84-2.08,1.83-3.61-.01-3.99,0-7.98,0-11.97v-.35h-3.48c0,.12-.01.21-.01.29,0,2.34-.01,4.68-.02,7.02,0,1.63-.01,3.26-.02,4.89,0,.72-.31,1.31-.87,1.73-1.28.97-2.68,1.01-4.11.44-1.06-.42-1.6-1.23-1.6-2.4.01-3.9,0-7.8,0-11.7,0-.22-.05-.3-.28-.3-1,0-2,0-3,0-.08,0-.15.01-.29.03Zm105.59-.05c0,.08-.01.15-.01.21,0,4.03,0,8.06,0,12.09,0,1.43.55,2.63,1.69,3.52.65.5,1.36.93,2.16,1.15,1.94.55,3.89.55,5.83.03,1.1-.29,2.04-.91,2.83-1.73.9-.93,1.15-2.09,1.14-3.34-.01-3.9-.01-7.8-.01-11.7,0-.18-.04-.24-.23-.24-1.04,0-2.08,0-3.12,0-.05,0-.09.02-.15.03,0,.2-.03.39-.03.57,0,3.84-.02,7.68,0,11.52,0,.97-.43,1.69-1.26,2.12-1.43.74-2.87.7-4.26-.12-.65-.38-1.01-.98-1.06-1.75-.01-.25-.02-.5-.02-.75,0-3.8,0-7.6,0-11.4,0-.07-.01-.13-.02-.22h-3.47Zm-26.55,16.96c.1.02.16.03.22.03,1.02,0,2.04-.01,3.06,0,.19,0,.25-.1.3-.26.35-1.06.71-2.12,1.06-3.18.07-.23.18-.29.41-.29,1.33,0,2.66,0,3.99.01.53,0,1.06,0,1.59.01.18,0,.28.05.34.25.34,1.06.71,2.12,1.05,3.18.07.22.17.29.4.29.95-.01,1.9,0,2.85,0,.1,0,.21-.01.34-.02-.08-.23-.13-.42-.2-.61-1.08-3.08-2.17-6.15-3.25-9.23-.82-2.33-1.62-4.67-2.44-7-.03-.08-.15-.17-.23-.17-1.11-.01-2.22-.02-3.33,0-.09,0-.23.11-.27.2-1.68,4.77-3.35,9.54-5.02,14.32-.29.82-.57,1.63-.87,2.49Z"/>
        <path class="cls-1" d="m208.18,86.71c1.49,0,2.98-.04,4.47.01.86.03,1.51.49,1.81,1.34.31.89.04,1.97-.59,2.51-.32.28-.71.42-1.13.43-1.47.04-2.93.06-4.4.08-.07,0-.19-.12-.19-.18-.01-1.36,0-2.72,0-4.07,0-.03.02-.06.04-.12Z"/>
        <path class="cls-1" d="m270.56,94.41c.7-2.34,1.39-4.65,2.08-6.97.02,0,.04,0,.06,0,.69,2.31,1.38,4.63,2.08,6.98h-4.22Z"/>
        <path class="cls-1" d="m159.88,65.46c0-.72,0-1.44,0-2.16,0-.17.02-.29.24-.28,1.39.04,2.78.04,4.16.1,1.99.09,2.77,2.25,1.76,3.78-.42.64-1.1.81-1.8.84-1.38.05-2.76.05-4.13.08-.17,0-.25-.03-.24-.23.01-.71,0-1.42,0-2.13,0,0,0,0,.01,0Z"/>
        <path class="cls-1" d="m159.91,56.28c1.5,0,2.97-.05,4.45.01,1.27.06,1.99,1.11,1.74,2.41-.2,1.02-.89,1.64-1.93,1.66-1.35.02-2.7,0-4.04.01-.17,0-.25-.03-.25-.23,0-1.23,0-2.46,0-3.68,0-.07.02-.13.03-.18Z"/>
        <path class="cls-1" d="m216.62,56.47c.81,0,1.62-.07,2.42.02,1.06.11,1.7.93,1.71,2.01.01,1.16-.61,2.04-1.61,2.21-.55.09-1.11.11-1.67.13-.95.02-1.9,0-2.85.02-.25,0-.32-.08-.32-.33.01-1.26.01-2.52,0-3.77,0-.26.07-.34.33-.33.66.02,1.32,0,1.98,0,0,.02,0,.04,0,.06Z"/>
        <path class="cls-1" d="m267.28,64.08c.7-2.35,1.39-4.66,2.1-7.06.71,2.39,1.41,4.71,2.11,7.06h-4.21Z"/>
      </g>
      <g>
        <path class="cls-1" d="m62.14,0c8.23.04,16.37.96,24.23,3.43,10.37,3.26,18.34,9.7,23.9,19.07,4.91,8.28,8.05,17.26,10.36,26.56,2.46,9.89,4.05,19.92,3.69,30.12-.64,18.1-4.55,35.44-13.17,51.52-5.19,9.68-13.1,16.33-23.37,20.09-5.45,2-11.18,2.94-16.96,3.52-5.79.58-11.58.63-17.36-.01-9.31-1.03-18.37-2.8-26.37-8.16-7.23-4.86-12.26-11.47-15.95-19.23-4.8-10.09-7.93-20.71-9.59-31.73-.78-5.21-1.42-10.47-1.54-15.73-.12-5.13.27-10.31.87-15.42,1.21-10.34,3.73-20.4,7.6-30.09,2.53-6.33,5.48-12.45,9.98-17.65,6.44-7.45,14.54-12.08,24.18-14.11C49.08.8,55.56.03,62.14,0Zm57.46,77.48c0-7.5-.76-14.92-2.15-22.28-1.78-9.39-4.21-18.59-8.15-27.34-4.19-9.28-10.44-16.59-19.9-20.83-5.79-2.59-11.96-3.68-18.2-4.37-9.13-1.01-18.19-.45-27.18,1.4-11.86,2.45-20.96,8.69-26.96,19.3-3.86,6.83-6.25,14.22-8.21,21.77-2.25,8.64-3.78,17.4-4.2,26.32-.44,9.29.15,18.53,1.89,27.68,1.84,9.67,4.29,19.15,8.4,28.13,4.83,10.56,12.35,18.27,23.58,21.93,6.73,2.19,13.69,3.07,20.75,3.31,8.16.27,16.2-.52,24.09-2.65,12.41-3.34,20.81-11.33,25.89-22.91,6.91-15.75,10.02-32.33,10.36-49.47Z"/>
        <path class="cls-1" d="m101.53,77.79c-.21,13.72-2.39,27.43-7.63,40.59-2.53,6.36-6.55,11.2-13.2,13.28-3.37,1.05-6.9,1.7-10.41,2.17-8.41,1.14-16.75.51-24.96-1.62-6.32-1.64-11.01-5.33-13.77-11.3-3.65-7.88-5.82-16.2-7.23-24.73-1.29-7.8-1.77-15.65-1.42-23.53.57-12.81,2.95-25.25,7.87-37.17,3.08-7.46,8.56-11.76,16.38-13.42,7.1-1.51,14.23-2.07,21.44-1.36,4.33.42,8.65,1.08,12.75,2.59,5.14,1.9,8.95,5.35,11.28,10.32,3.65,7.79,5.82,16.03,7.25,24.48,1.08,6.4,1.56,12.85,1.64,19.7Zm-39.61,7.54c1.77-1.39,3.45-2.75,5.17-4.05,2.15-1.62,2.92-3.79,2.44-6.34-.42-2.23-1.1-4.4-1.62-6.61-.13-.56-.23-1.17-.15-1.73.38-2.44.68-4.91,1.31-7.29.4-1.53,1.05-3.06,2.65-3.95,1.39-.77,2.7-1.72,3.95-2.69.4-.31.74-.97.75-1.48.05-2-.08-4-.07-5.99.02-4-1.59-7.26-4.38-10.01-2.42,2.37-1.39,5.13.52,6.9.73.69,1.08,1.33,1.01,2.25-.15,1.75-.32,3.49-.5,5.23-.02.17-.16.38-.3.47-1.15.71-2.28,1.47-3.5,2.05-1.2.58-2.36,1.1-3.1,2.31-.53.87-1.46.53-1.98.09-.48-.41-1.11-1.16-.34-1.94,2.49-2.55,2.81-5.42.98-8.43-.57-.94-1.32-1.17-2.34-.87-.4.12-.87.2-1.26.11-1.77-.38-2.65.01-3.48,1.61-1.08,2.11-1.04,4.1.51,5.99,1.03,1.25,1.71,2.66,1.86,4.31.12,1.29-.39,2.09-1.7,2.34-1.55.3-2.58,1.15-3.46,2.49-.99,1.52-2.33,2.81-3.51,4.21-.51.61-.99.5-1.51,0-1.63-1.59-3.26-3.18-4.91-4.75-1.07-1.01-2.11-2.08-3.3-2.94-.63-.45-1.54-.62-2.34-.7-.86-.08-1.46.3-1.14,1.38.16.53.16,1.11.28,1.65.39,1.71,1.08,2.25,2.86,2.5.61.09,1.33.26,1.75.66.94.89,1.76,1.93,2.57,2.95,1.04,1.31,1.9,2.77,3.04,3.98,1.42,1.5,1.6,1.49,3.16.15,1.87-1.62,3.62-3.37,5.37-5.02.26,1.03.85,2.06,2.31,2.28.15.02.31.33.39.54.37,1.01.71,2.03,1.05,3.06.23.7.08,1.25-.46,1.83-3.54,3.81-5.82,8.3-6.69,13.42-.51,2.97-1.13,5.77-2.65,8.52-1.28,2.32-1.71,5.21-2.09,7.91-.37,2.66-1.14,4.92-3.26,6.67-.66.54-1.2,1.3-1.61,2.06-.88,1.66-.2,3.78,1.41,4.5.32.15,1.07,0,1.24-.25,1.33-2.03,2.58-4.12,3.83-6.21.24-.4.48-.86.5-1.31.17-2.66,1.04-5.09,2.5-7.28,1.18-1.76,2.48-3.43,3.77-5.11.43-.56.57-1.03.35-1.73-.44-1.38-.64-2.78.03-3.98,1.03,3.16,2.06,6.4,3.16,9.62.41,1.19.83,2.28-.05,3.46-.29.39-.25,1-.43,1.48-.54,1.48-1.11,2.96-1.68,4.43-.18.48-.4.94-.66,1.53,1.72.17,3.04-.2,4.21-1.04.34-.24.77-.66.77-.99.01-1.88,1.07-3.23,2.14-4.57.79-.99.81-1.83.06-2.9-.45-.63-.62-1.51-.72-2.31-.12-.99-.04-2-.03-3,.03-3.4-.23-6.73-2.72-9.48Zm25.79-30.85c-1.19.32-2.17.66-3.18.83-.76.13-.95.47-.94,1.2.04,2.88,0,5.76.02,8.64,0,.78-.34,1.09-1.07,1.08-.72,0-1.11-.3-1.1-1.08.02-1.4,0-2.8,0-4.2,0-1.67,0-3.33,0-5.08-1.4.2-2.65.38-4.09.58.86,3.33-.64,5.85-2.46,8.25-.75.99-1.5,1.97-2.24,2.97-.18.24-.32.51-.57.9.68.03,1.18.09,1.69.07,1.78-.08,3.18.35,3.65,2.36.08.32.72.71,1.11.72,2.4.07,4.8.02,7.2.04.63,0,.98-.16,1.02-.84.12-1.76.88-2.88,2.84-2.78.06,0,.12-.08.25-.17v-7.71c-.77.08-1.4.15-2.13.23v-6.03Zm-38.95,38.69c-.21-2.04-.26-3.89-.63-5.67-.38-1.84-1.98-2.7-3.95-2.43-2.02.29-3.13,1.47-3.14,3.41-.01,2.36,0,4.72,0,7.08,0,.8-.16,1.45-1.18,1.41-.99-.04-1.14-.66-1.13-1.47.02-2.52.03-5.04-.01-7.56-.01-.66-.16-1.34-.37-1.98-.08-.23-.57-.54-.78-.48-1.36.38-2.69.86-4.11,1.33q1.52,1.38,1.53,3.31c0,2.96-.03,5.92-.03,8.87,0,2.16.88,3.4,2.92,3.97.79.22,1.65.26,2.48.24,2.42-.05,3.78-1.37,3.9-3.78.09-1.64.03-3.28.14-4.91.11-1.73,1.26-2.44,2.92-1.91.37.12.73.28,1.45.55Zm23.12-18.76v5.57h19.56v-5.57h-19.56Zm-38.6,5.5h19.55v-5.46h-19.55v5.46Zm35.95,3.37v16.73h5.42v-16.73h-5.42Zm-26.47-52.07c-.1-.11-.2-.23-.3-.34-.77.69-1.76,1.26-2.26,2.11-1.26,2.14-.52,4.27.63,6.3-.16.12-.33.24-.49.36-.74-.77-1.47-1.54-2.13-2.23-.03.45-.12,1.12-.12,1.8-.01,2.39.27,4.71,1.72,6.72.22.31.52.67.85.77,2.48.74,4.13-.46,4.27-3.06.03-.59-.05-1.2-.15-1.78-.19-1.05-.45-2.08-.67-3.12.16-.06.32-.12.48-.18.43.84.87,1.69,1.36,2.65.83-2.88-.1-5.34-1.28-7.82-.63.48-1.14.87-1.91,1.45v-3.62Zm24.86,70.64c-.42.84-.8,1.56-1.16,2.29-.56,1.13-1.31,2.22-1.59,3.42-.27,1.13-.72,1.9-1.73,2.39-.53.26-1.07.51-1.62.76,1.26,2.15,4,3.2,6.44,2.5,2.59-.75,4.44-3.27,4.34-5.92-.1-2.73-2.04-4.93-4.69-5.44Zm2.87,17.44v-2.68c-1.06,0-2.02-.08-2.97.02-1.99.22-3.7-.12-4.76-2.02-.03-.05-.13-.07-.24-.12-.28.32-.63.6-.85.97-.58.97-1.39,1.26-2.5,1.18-1.46-.1-2.93-.02-4.48-.02v2.7h6.02v6.89h3.85v-6.91h5.93Zm16.17-9.08c.13.02.27.04.4.06.71-.57,1.43-1.12,2.11-1.71.18-.16.33-.47.34-.71.09-2.16-.07-4.23-1.84-5.83-1.46-1.31-2.87-2.67-4.26-4.05-1.67-1.66-3.81-2.88-4.7-5.28-1.43,2.18-1.33,3.43.4,5.17,1.41,1.42,2.78,2.89,4.28,4.2,2.47,2.15,4.43,4.46,3.28,8.16Zm-6.53-26.65c-.77.6-1.46,1.13-2.13,1.69-.17.14-.37.37-.37.56-.05,1.97-.13,3.97,1.42,5.51,1.47,1.47,3.01,2.87,4.47,4.35,1.72,1.73,3.95,2.99,4.92,5.44,1.42-1.95,1.35-3.31-.25-4.96-1.42-1.46-2.91-2.86-4.34-4.32-3.61-3.68-3.67-2.67-3.59-8.02,0-.03-.03-.07-.13-.26Zm1.77-50.46c0-2.03-.9-3.31-2.19-3.76-1.51-.53-3.29-.1-4.08,1.37-.73,1.37-1.25,2.94-1.43,4.48-.07.59,1.16,1.97,1.59,1.88,1.56-.3,3.16-.86,4.5-1.71.86-.55,1.28-1.78,1.6-2.26Zm-33.93,88.83c.22,2.8,2.68,5.02,5.48,5.01,2.97-.02,5.35-2.12,5.59-5.01h-11.07Zm29.18.03h-11.04c.39,3.03,2.86,5.11,5.82,4.97,2.77-.13,5.14-2.36,5.22-4.97Zm2.97-20.55c-.62.93-1.26,1.72-1.7,2.6-1.58,3.2-.99,4.21,2.22,6.15.27-1.99-.63-4.29,1.49-6,.61,2.25-.83,4.82,1.66,6.42.35-.36.7-.69,1.01-1.05.54-.62.66-2.94.11-3.49-1.55-1.55-3.15-3.05-4.79-4.63Zm3.25-18.15c-.36.38-.7.71-1.01,1.07-.54.62-.68,2.93-.14,3.48,1.55,1.55,3.15,3.04,4.8,4.61.56-.81,1.11-1.49,1.52-2.25,1.85-3.4,1.17-4.55-2.01-6.51-.32,1.98.64,4.31-1.5,6.01-.63-2.23.8-4.76-1.65-6.41Zm-37.75-35.12h-7.22c.03.62.05,1.15.07,1.65.61.07,1.07.13,1.55.18.5,2.28-.12,5.12,3.2,5.7.24-1.87.48-3.79.73-5.73.62-.05,1.12-.09,1.67-.14v-1.66Zm-2.82,22.15c.04-.25.07-.41.08-.56.06-1.68.12-3.35.16-5.03.03-1.45-.5-1.89-1.96-1.78v7.37h1.73Zm26.87-29.84c-1.02,1.08-1.93,2.05-2.85,3.02.46.48.87.9,1.36,1.41.84-.92,1.66-1.82,2.48-2.72-.33-.57-.62-1.07-.99-1.7Z"/>
        <path class="cls-1" d="m19.21,80.18H7.9c.11-2.36.16-4.73.38-7.09.09-1,.96-1.5,1.94-1.7,1.16-.23,2,.14,3.02,1.38.79-1.14,1.74-1.94,3.26-1.76,1.44.17,2.57.89,2.67,2.29.16,2.25.04,4.52.04,6.88Zm-1.83-2.45c0-1.01.02-1.92,0-2.83-.02-.84-.47-1.38-1.3-1.43-.86-.05-1.63.26-1.72,1.26-.08.97-.02,1.96-.02,3h3.04Zm-4.92,0c0-1.02.05-1.96-.02-2.91-.05-.7-.39-1.2-1.22-1.16-.79.03-1.34.33-1.38,1.16-.05.94-.01,1.89-.01,2.91h2.63Z"/>
        <path class="cls-1" d="m56.86,141.99c1.38.91,2,2.08,1.62,3.63-.41,1.68-1.6,2.58-3.25,2.72-1.08.09-2.22,0-3.28-.25-1.48-.35-2.44-1.37-2.64-2.91-.21-1.59.43-2.8,1.96-3.46-1.66-2.06-1.65-3.48.01-4.66,1.55-1.1,4.79-.9,6.2.37,1.51,1.37,1.31,3.15-.61,4.56Zm-2.98.95c-1.34-.02-2.22.69-2.22,1.77,0,1.05,1.02,1.86,2.34,1.87,1.21,0,2.12-.75,2.15-1.77.03-1.13-.85-1.86-2.28-1.87Zm.33-4.8c-1.1-.01-1.81.53-1.84,1.42-.03.91.71,1.53,1.86,1.55,1.1.03,1.8-.52,1.82-1.42.02-.94-.69-1.54-1.84-1.56Z"/>
        <path class="cls-1" d="m91.85,26.63c-.52-.69-.95-1.25-1.46-1.93,3.06-2.34,6.06-4.63,9.21-7.04,1.3,1.86,2.67,3.58,3.75,5.47,1.02,1.78.12,3.75-1.8,4.28-.68.19-1.45.03-2.25.03.19,2.24-2.16,2.91-3.26,4.52-.16-.13-.23-.17-.28-.23-1.58-2.03-1.49-1.55.22-2.99,1.92-1.61,1.84-2.59-.45-4.85-.58.43-1.18.88-1.78,1.33-.61.45-1.21.91-1.89,1.42Zm5.3-4.01c.67.84,1.23,1.56,1.81,2.27.54.65,1.17.76,1.88.26.73-.51.78-1.2.37-1.88-.5-.83-1.11-1.6-1.71-2.46-.83.64-1.54,1.19-2.35,1.82Z"/>
        <path class="cls-1" d="m19.61,40.22c1.88-1.62,3.81-.2,5.82-.17-.09.38-.17.67-.21.97-.16,1.19-.77,1.42-1.9,1.1-3-.83-3.72-.27-4.13,3.08,1.41.44,2.84.88,4.34,1.34-.23.77-.42,1.45-.68,2.31-3.66-1.09-7.26-2.15-11.07-3.28.66-2.01,1.22-3.99,1.97-5.89.64-1.63,1.68-2.19,3.13-2.05,1.5.15,2.25.86,2.72,2.59Zm-2.41,4.38c.29-1.04.69-1.97.77-2.93.04-.47-.4-1.16-.83-1.46-.63-.43-1.36-.19-1.69.54-.43.95-.73,1.96-1.11,3.02,1.05.3,1.91.55,2.87.83Z"/>
        <path class="cls-1" d="m79.87,139.88c-1.36-.52-2.13-1.29-2.07-2.66.06-1.36.84-2.24,1.99-2.75.83-.36,1.74-.62,2.63-.73,1.34-.16,2.56.21,3.34,1.42.81,1.24.42,2.36-.59,3.42,1.77.43,2.64,1.53,2.69,3.18.05,1.72-.94,2.86-2.47,3.47-.84.34-1.75.56-2.65.65-1.59.16-2.94-.39-3.71-1.87-.77-1.48-.52-2.85.83-4.12Zm5.62,2.1c.01-.96-.83-1.78-1.85-1.8-1.4-.04-2.66.93-2.63,2.04.03.98.87,1.75,1.9,1.75,1.35,0,2.57-.94,2.58-1.98Zm-3.87-3.34c1.28,0,2.25-.71,2.22-1.62-.03-.96-.59-1.42-1.53-1.45-1.18-.04-2.11.66-2.12,1.61,0,1.01.63,1.37,1.42,1.46Z"/>
        <path class="cls-1" d="m113.08,79.89c-.07-.72-.14-1.35-.21-2.09,1.67-.33,1.94-1.57,1.66-2.91-.12-.58-.68-1.3-1.21-1.51-.86-.34-1.12.56-1.31,1.19-.31,1.03-.48,2.1-.79,3.13-.52,1.76-1.6,2.64-3.12,2.66-1.52.01-2.84-.98-3.34-2.61-.51-1.65-.55-3.31.16-4.92.58-1.32,1.62-2,3.16-2.15.08.73.16,1.39.23,2.02-1.86,1.01-2.44,2.11-1.88,3.87.16.52.74,1.19,1.2,1.25.44.05,1.19-.5,1.4-.97.4-.89.54-1.91.75-2.88.43-1.99,1.49-3.06,3.11-3.1,1.63-.04,3.11,1.06,3.42,2.94.21,1.22.11,2.55-.15,3.77-.29,1.37-1.29,2-3.06,2.32Z"/>
        <path class="cls-1" d="m85.36,10.93c-.32.76-.6,1.41-.93,2.17,1.61.7,3.16,1.38,4.78,2.09-.26.64-.48,1.18-.74,1.84-1.61-.66-3.17-1.3-4.83-1.99-.41.97-.8,1.88-1.22,2.87,1.83.78,3.61,1.54,5.52,2.34-.23.57-.44,1.11-.72,1.79-2.6-1.09-5.14-2.15-7.81-3.26,1.48-3.56,2.93-7.03,4.43-10.61,2.6,1.09,5.12,2.14,7.8,3.26-.24.59-.45,1.12-.72,1.78-1.83-.75-3.61-1.48-5.54-2.28Z"/>
        <path class="cls-1" d="m17.47,28.53c1.42-2.53,2.74-4.9,4.11-7.36.58.3,1.09.58,1.71.9-.98,1.77-1.91,3.46-2.9,5.25.69.4,1.34.76,2.07,1.18.86-1.53,1.68-2.97,2.56-4.53.58.31,1.12.6,1.77.96-.84,1.52-1.64,2.97-2.54,4.59.89.5,1.76.99,2.73,1.53,1-1.77,1.95-3.46,2.95-5.23.59.33,1.09.62,1.68.96-1.38,2.48-2.72,4.88-4.11,7.37-3.36-1.87-6.65-3.71-10.05-5.61Z"/>
        <path class="cls-1" d="m45.31,7.09c.91-.14,1.57-.25,2.36-.37.37,2.24.73,4.42,1.09,6.61.05.31.1.63.16.94.31,1.57,1.15,2.13,2.73,1.8,1.31-.27,1.81-1.13,1.57-2.58-.4-2.43-.77-4.87-1.17-7.45.8-.13,1.53-.25,2.39-.39.45,2.94.88,5.76,1.3,8.59.03.23.01.48-.03.72-.35,1.75-2.57,3.04-5.19,3.03-2.24-.01-3.55-.97-3.89-2.91-.46-2.62-.86-5.25-1.31-7.99Z"/>
        <path class="cls-1" d="m9.74,56.34c.12-.76.23-1.46.37-2.31,2.94.48,5.81.88,8.65,1.47.63.13,1.3.81,1.66,1.41,1.2,1.97.6,5.36-1.19,6.8-.5.4-1.25.8-1.83.73-2.88-.34-5.75-.83-8.74-1.28.14-.85.25-1.57.39-2.38,2.57.4,5.04.8,7.52,1.15,1.67.23,2.5-.49,2.59-2.13.07-1.26-.54-1.98-1.86-2.19-2.21-.34-4.42-.67-6.63-1.01-.31-.05-.6-.16-.95-.25Z"/>
        <path class="cls-1" d="m104.35,66.04c-.05-.38-.05-.54-.1-.69-.43-1.29-.01-2.11,1.32-2.46.63-.17.91-.54.68-1.24-.13-.37-.13-.79-.13-1.19,0-1.47-.54-2.27-2.17-2.42-1.45-.13-.65-1.48-1.08-2.43,2.42.47,4.64.9,6.85,1.34,1.48.29,2.98.56,4.44.93.32.08.73.52.77.83.07.65.14,1.73-.19,1.91-3.37,1.87-6.82,3.59-10.39,5.42Zm3.88-4.46c1.48-.69,2.77-1.28,4.38-2.03-1.81-.27-3.24-.48-4.76-.7.13.93.23,1.71.37,2.73Z"/>
        <path class="cls-1" d="m36.07,23.4c-.7.42-1.31.78-2.05,1.21-.7-3.27-1.36-6.37-2.02-9.48-.07-.31-.15-.62-.21-.93-.29-1.4.19-2.23,1.55-2.59.24-.06.61.09.82.27,2.91,2.37,5.81,4.76,8.85,7.25-.7.45-1.32.84-2,1.28-.66-.55-1.3-1.08-2.03-1.69-.99.6-2.03,1.18-3,1.85-.23.16-.35.66-.32.99.05.59.24,1.16.4,1.84Zm1.33-6.04c-1.18-1.06-2.25-2.03-3.32-3l-.18.14c.37,1.39.75,2.79,1.15,4.29.83-.5,1.5-.91,2.36-1.43Z"/>
        <path class="cls-1" d="m64.19,148.59c-.11-1.52.5-2.59,1.38-3.5.97-1.01,2.07-1.89,3.02-2.91.44-.47.84-1.11.93-1.72.12-.87-.21-1.67-1.27-1.86-.98-.18-1.63.22-1.99,1.12-.14.36-.2.76-.33,1.27-.61.04-1.27.08-1.9.11-.42-1.67.15-3.11,1.47-3.89,1.7-1.01,4-.85,5.38.37,1.14,1.01,1.58,2.83.83,4.28-.41.78-1.12,1.43-1.78,2.05-.82.78-1.73,1.47-2.6,2.2.04.09.09.19.13.28,1.65-.09,3.3-.17,5.05-.27.07.66.13,1.23.21,1.94-2.87.18-5.65.35-8.54.53Z"/>
        <path class="cls-1" d="m76.91,6.59c-1.06,2.36-2.12,4.71-3.18,7.06-.31.69-.63,1.38-.94,2.07q-.86,1.89-3.05,1.42c-.87-3.79-1.75-7.63-2.67-11.65.62.03,1.15.07,1.68.07.62,0,.88.29.98.92.41,2.5.89,4.99,1.63,7.54.82-2.06,1.64-4.11,2.45-6.17.73-1.86.98-1.97,3.1-1.26Z"/>
        <path class="cls-1" d="m111.36,41.27c.78,3.03,1.53,5.95,2.32,9-.64.16-1.2.3-1.84.46-.31-1.11-.6-2.13-.91-3.26-3.07.78-6.09,1.55-9.16,2.33-.21-.83-.38-1.51-.59-2.33,3.03-.79,6.02-1.57,9.13-2.39-.26-1.09-.51-2.12-.78-3.28.55-.16,1.11-.33,1.84-.54Z"/>
        <path class="cls-1" d="m45.01,134.89c-1.25,3.83-2.42,7.41-3.62,11.07-.78-.25-1.45-.47-2.28-.74.8-2.49,1.59-4.93,2.41-7.49-.94-.34-1.82-.65-2.81-1.01.16-.48.31-.91.48-1.41,1.42.45,2.61.27,3.77-.65.35-.28,1.23.11,2.05.22Z"/>
        <path class="cls-1" d="m98.91,39.99c-.34-.79-.63-1.44-.97-2.23,3.49-1.51,6.94-3,10.51-4.55.33.72.64,1.39,1.02,2.21-3.51,1.52-6.96,3.01-10.57,4.57Z"/>
      </g>
    </g>
  </g>
</svg>