<?xml version="1.0" encoding="UTF-8"?>
<svg id="Layer_2" data-name="Layer 2" xmlns="http://www.w3.org/2000/svg" viewBox="0 0 360.81 120.27">
  <defs>
    <style>
      .cls-1 {
        fill: #442d84;
      }
    </style>
  </defs>
  <g id="Layer_1-2" data-name="Layer 1">
    <g>
      <g>
        <path class="cls-1" d="m0,120.21v-27.17c.24-.01.45-.04.67-.04,8.82,0,17.64,0,26.45,0,1.34,0,2.67.08,3.98.44,2.15.59,3.24,1.85,3.47,4.06.05.44.07.88.07,1.32,0,1.78.01,3.56,0,5.34,0,.76-.07,1.52-.32,2.25-.42,1.22-1.22,2.09-2.44,2.54-1.14.42-2.32.61-3.52.67-.62.03-1.24.03-1.86.03-6.7,0-13.4,0-20.1,0-.21,0-.43,0-.72,0v10.56H0Zm5.7-14.15c.22,0,.4,0,.57,0,5.94,0,11.87,0,17.81,0,.92,0,1.84-.04,2.75-.14,1.21-.14,1.89-.77,1.95-1.98.08-1.67.04-3.35.05-5.03,0-.12-.02-.24-.04-.36-.18-.95-.69-1.63-1.68-1.81-.64-.12-1.31-.18-1.96-.18-6.28-.01-12.55,0-18.83,0-.19,0-.39.02-.61.03v9.47Z"/>
        <path class="cls-1" d="m106.04,120.22c-3.6,0-7.2,0-10.8,0-1.04,0-2.07-.13-3.09-.38-1.43-.36-2.38-1.2-2.68-2.67-.15-.72-.27-1.46-.28-2.19-.03-3.92-.02-7.84-.01-11.76,0-.97.14-1.91.48-2.82.34-.92.96-1.54,1.89-1.87,1.22-.44,2.49-.57,3.77-.62.6-.02,1.2-.02,1.8-.02,6.24,0,12.48,0,18.72,0,1.32,0,2.64.06,3.93.36.1.02.19.05.29.07,1.77.37,2.61,1.58,2.89,3.26.09.55.13,1.11.13,1.67.01,3.92.02,7.84,0,11.76,0,.79-.15,1.59-.33,2.36-.29,1.23-1.08,2.01-2.31,2.36-1.14.33-2.31.48-3.49.48-3.64,0-7.28,0-10.92,0Zm-11.53-3.4c1.14.12,22.86.07,23.28-.05.13-1.51.06-15.07-.09-15.51h-23.19v15.56Z"/>
        <path class="cls-1" d="m132.83,120.21c.15-.24.24-.41.35-.57,5.94-8.7,11.88-17.4,17.81-26.11.24-.35.5-.51.93-.5,1.62.02,3.24.02,4.86,0,.45,0,.71.15.97.53,6,8.66,12.01,17.32,18.02,25.97.14.21.28.42.46.68-.21.02-.32.04-.44.04-1.72,0-3.44,0-5.16.02-.4,0-.65-.12-.87-.47-1.23-1.94-2.5-3.86-3.74-5.8-.22-.34-.45-.47-.87-.47-7.3,0-14.6,0-21.9-.01-.43,0-.69.14-.92.51-1.2,1.91-2.44,3.8-3.64,5.71-.24.38-.49.55-.96.54-1.34-.04-2.68-.02-4.02-.03-.27,0-.54-.02-.89-.03Zm12.27-10.16h18.24c-3-4.7-6.07-9.26-9.12-13.91-3.07,4.68-6.08,9.26-9.13,13.91Z"/>
        <path class="cls-1" d="m53.12,111.53v8.68h-5.2c-.13-.42-.16-21.68-.02-22.29.18,0,.38-.03.57-.03,7.26,0,14.51,0,21.77,0,1.04,0,2.08.08,3.09.36,1.59.44,2.52,1.48,2.75,3.12.05.34.07.68.07,1.02,0,1.5.02,3,0,4.5,0,.56-.06,1.12-.18,1.66-.26,1.21-1.02,2.01-2.18,2.43-1.2.44-2.46.51-3.72.53-.86.01-1.72,0-2.58,0-.2,0-.4,0-.64,0,.06.3.28.38.45.5,1.66,1.18,3.33,2.36,4.99,3.54,2.13,1.52,4.26,3.04,6.43,4.58-.17.19-.38.12-.56.12-1.54,0-3.08,0-4.62,0-.38,0-.76,0-1.14.02-.36.03-.65-.07-.94-.3-2.8-2.22-5.61-4.44-8.42-6.66-.66-.52-1.31-1.05-1.98-1.56-.18-.13-.42-.25-.64-.25-2.32-.01-4.64,0-6.96,0-.1,0-.19.01-.35.02Zm.03-10.37v7.17c.21.01.38.03.56.03,4.8,0,9.59,0,14.39,0,.46,0,.92-.01,1.37-.1,1.01-.18,1.42-.64,1.45-1.67.03-1.16.03-2.32,0-3.48-.04-1.16-.62-1.76-1.77-1.88-.59-.06-1.2-.08-1.8-.08-4.54,0-9.07,0-13.61,0h-.58Z"/>
        <path class="cls-1" d="m218.93,97.95v22.23c-.12.03-.21.07-.3.07-.96,0-1.92,0-2.88.01-.34,0-.61-.14-.88-.33-4.1-2.89-8.2-5.78-12.3-8.67-2.52-1.77-5.03-3.55-7.54-5.33-1.31-.93-2.56-1.92-3.61-3.14-.06-.07-.14-.13-.26-.24.09.83.18,1.58.25,2.32.05.58.08,1.16.08,1.74,0,4.34,0,8.68,0,13.02,0,.18,0,.35,0,.62-1.64.02-3.22.03-4.84,0v-22.3c.17-.02.34-.04.51-.04.94,0,1.88.01,2.82,0,.42,0,.77.11,1.11.35,3.38,2.42,6.77,4.83,10.16,7.24,2.93,2.08,5.87,4.16,8.8,6.25.6.43,1.23.83,1.8,1.3.72.6,1.39,1.26,2.07,1.9.15.14.29.31.53.4-.06-.37-.13-.74-.17-1.11-.09-.97-.21-1.95-.22-2.93-.02-4.26-.01-8.52-.01-12.78,0-.18,0-.35,0-.52.47-.13,4.07-.15,4.87-.04Z"/>
        <path class="cls-1" d="m352.28,101.26h-18.96c-.14-.48-.16-2.68-.04-3.34h27.51c0,.53.03,1.03-.02,1.51-.02.18-.21.38-.37.51-2.26,1.85-4.53,3.69-6.8,5.53-4.12,3.33-8.24,6.66-12.37,9.99-.48.39-.98.76-1.46,1.15-.06.04-.1.1-.23.24h21.12c.15.46.18,2.57.07,3.3-.51.12-28.52.17-29.44.04,0-.58-.02-1.17.02-1.76.01-.16.2-.33.35-.45,2.06-1.68,4.12-3.36,6.19-5.03,4.67-3.77,9.34-7.53,14.01-11.29.12-.09.22-.21.42-.39Z"/>
        <path class="cls-1" d="m266.41,120.21c-.3.01-.5.03-.69.03-1.48,0-2.96,0-4.44.02-.39,0-.61-.13-.83-.45-1-1.47-2.03-2.92-3.03-4.39-.2-.3-.42-.41-.78-.41-6.06.01-12.12.02-18.18,0-.5,0-.79.15-1.06.56-.95,1.45-1.96,2.87-2.93,4.31-.16.24-.33.37-.63.36-1.5-.02-3-.02-4.5-.03-.08,0-.15-.02-.29-.04.09-.16.16-.3.24-.42,5.19-7.18,10.38-14.35,15.56-21.53.19-.26.38-.36.69-.36,1.3.01,2.6.02,3.9,0,.34,0,.54.13.74.4,4.31,5.84,8.63,11.67,12.95,17.5.95,1.29,1.91,2.57,2.86,3.85.12.16.23.32.41.58Zm-26.37-8.45h14.8c-2.48-3.59-4.93-7.07-7.41-10.62-2.49,3.57-4.91,7.06-7.39,10.62Z"/>
        <path class="cls-1" d="m281.76,116.88h21.71v3.27c-.53.14-26.35.15-26.94,0v-22.17c.45-.12,4.58-.14,5.23-.01v18.91Z"/>
        <path class="cls-1" d="m313.32,97.94h5.2v22.18c-.44.16-4.37.2-5.2.05v-22.23Z"/>
        <path class="cls-1" d="m318.54,91.22v3.77c-.44.15-4.43.19-5.22.05v-3.82h5.22Z"/>
      </g>
      <g>
        <path class="cls-1" d="m162.58,45.87v-1.58c0-5.6.17-11.2-.04-16.79-.29-7.97,5.88-15.71,13.69-17.31,14.84-3.06,29.6-6.48,44.36-9.92,5.81-1.36,8.91,2.78,9.3,7.06.05.56.07,1.12.07,1.68,0,11.44,0,22.87,0,34.31,0,5-1.94,9.17-5.58,12.52-1.01.93-2.24,1.74-3.51,2.24-6.64,2.62-13.33,5.12-20,7.65-.18.07-.38.1-.69.17v-31.39c-12.57,3.8-24.98,7.56-37.59,11.37Z"/>
        <path class="cls-1" d="m180.98,92.44c-5.41-3.33-10.66-6.68-16.04-9.81-1.82-1.06-2.44-2.21-2.41-4.31.13-9.75.06-19.51.05-29.26,0-.77.05-1.29.99-1.58,11.27-3.37,22.52-6.79,33.77-10.19.26-.08.53-.13.94-.24v1.37c0,9.15.02,18.31-.03,27.46,0,.74-.27,1.58-.68,2.19-5.25,7.78-10.54,15.53-15.83,23.29-.22.33-.46.65-.76,1.08Z"/>
      </g>
    </g>
  </g>
</svg>