<?xml version="1.0" encoding="UTF-8"?>
<svg id="Layer_2" data-name="Layer 2" xmlns="http://www.w3.org/2000/svg" viewBox="0 0 362.66 155.41">
  <defs>
    <style>
      .cls-1 {
        fill: #442d84;
      }
    </style>
  </defs>
  <g id="Layer_1-2" data-name="Layer 1">
    <g>
      <g>
        <path class="cls-1" d="m261.9,41.82c5.23.01,10.28.84,15.02,3.1,7.89,3.76,13.04,9.96,15.4,18.31,2.52,8.93,2.59,17.96-.42,26.79-3.83,11.24-11.87,17.68-23.55,19.56-6.13.98-12.21.67-18.11-1.31-8.54-2.88-14.59-8.57-17.64-17.04-3.68-10.2-3.77-20.65.16-30.73,4.26-10.92,12.53-17.16,24.36-18.34,1.59-.16,3.19-.23,4.78-.34Zm-18.03,33.97c-.1.01-.2.03-.3.04.44,3.03.64,6.12,1.37,9.08,2.1,8.54,8.73,13.72,17.19,13.71,8.44,0,14.83-5.04,17.03-13.56,1.38-5.34,1.36-10.75.54-16.18-1.43-9.43-7.67-15.15-17-15.57-8.19-.37-14.8,4.19-17.36,11.96-1.12,3.42-1.49,6.93-1.46,10.51Z"/>
        <path class="cls-1" d="m166.52,43.06h13.31v28.79c.11.09.21.18.32.27.24-.34.44-.72.71-1.03,8.33-9.08,16.67-18.14,24.99-27.22.59-.65,1.18-.92,2.07-.91,5.08.04,10.16.02,15.24.02.39,0,.77.04,1.43.07-4.27,4.42-8.37,8.66-12.47,12.9-4.08,4.23-8.17,8.45-12.32,12.75,8.67,13.34,17.33,26.66,26.09,40.13-.48.05-.8.1-1.13.1-5,0-10-.02-15,.03-.85,0-1.27-.31-1.67-1.01-5.57-9.56-11.17-19.1-16.76-28.64-.22-.38-.46-.74-.88-1.42-.47.59-.82,1.12-1.26,1.57-2.87,2.96-5.78,5.87-8.61,8.86-.41.43-.7,1.16-.71,1.76-.05,5.8-.03,11.6-.03,17.4,0,.43,0,.86,0,1.38h-13.31V43.06Z"/>
        <path class="cls-1" d="m362.43,61.16c-4.47,1.03-8.74,2.01-13.11,3.02-.24-.55-.47-1.09-.69-1.63-3.65-8.97-10.49-11.21-19.3-7.73-4.3,1.7-7.27,4.99-8.78,9.33-2.68,7.67-2.84,15.49-.04,23.13,2.2,6,6.47,10.03,12.99,11.15,4.99.86,9.15-.62,12.27-4.72,1.76-2.32,2.91-4.94,3.78-7.7.13-.41.26-.82.43-1.34,4.22,1.36,8.38,2.7,12.68,4.08-.23.86-.41,1.66-.67,2.44-3.18,9.6-9.37,16.19-19.46,18.22-12.84,2.58-28.54-2.01-34.88-17.36-2.69-6.51-3.1-13.33-2.62-20.25.3-4.37,1.08-8.65,2.99-12.63,4.84-10.09,12.71-15.96,23.98-17.03,4.65-.44,9.27-.42,13.8.84,8.02,2.23,12.97,7.65,15.71,15.31.32.89.58,1.81.91,2.86Z"/>
        <path class="cls-1" d="m327.75,112.99h15.12c.31,3.09-1.67,4.64-3.76,6.22-2.64,2-5.1,1.49-7.59-.21-2.11-1.44-4.14-2.92-3.77-6.01Z"/>
        <path class="cls-1" d="m269.23,137.56c-2.12.5-3.57.1-4.62-1.45-.22-.33-.54-.59-.82-.87-2.74-2.78-3.71-3.12-7.88-2.64v5.04h-2.31v-11.77c.72,0,1.42,0,2.13,0,2.56.02,5.12-.02,7.67.1.96.05,2.01.29,2.84.76,2.06,1.16,1.97,3.68-.14,4.76-.8.41-1.71.61-2.44.86,1.76,1.65,3.58,3.36,5.56,5.22Zm-13.25-6.5c1.73,0,3.4.04,5.07-.01.91-.03,1.83-.13,2.72-.32.83-.18,1.49-.71,1.47-1.65-.02-.94-.71-1.51-1.54-1.57-2.56-.2-5.13-.28-7.72-.41v3.97Z"/>
        <path class="cls-1" d="m348.35,125.99c1.5-.37,2.62-.06,3.67,1.09,2.19,2.38,4.53,4.62,6.81,6.91.27.27.57.53,1.07.99v-9.06h2.26v11.72c-1.36.28-2.45.13-3.52-.99-2.54-2.69-5.24-5.24-8.02-7.99v8.99h-2.27v-11.66Z"/>
        <path class="cls-1" d="m206.29,128.53v9.16h-2.15v-11.73c1.28-.19,2.37-.25,3.43.89,2.55,2.75,5.26,5.34,8.13,8.21v-9.12h2.22v11.7c-1.35.28-2.44.13-3.5-1-2.54-2.7-5.24-5.25-8.12-8.11Z"/>
        <path class="cls-1" d="m337.01,125.66c2.03-.05,4.12.39,5.94,1.69,3.25,2.32,3.21,6.73-.07,8.99-3.11,2.15-8.96,2.14-12.07-.01-3.44-2.39-3.29-7.1.29-9.28,1.59-.97,3.33-1.39,5.91-1.39Zm-.24,11.03c1.08-.23,2.16-.35,3.15-.71,1.97-.71,2.92-2.18,2.92-4.2,0-1.97-1.05-3.47-2.97-4.19-1.97-.73-3.98-.75-5.97-.04-2.08.74-3.02,2.05-3.09,4.21-.06,1.93.95,3.47,2.92,4.21.95.36,1.99.48,3.03.72Z"/>
        <path class="cls-1" d="m192.55,137.93c-2.05.04-3.94-.35-5.66-1.41-3.74-2.31-3.79-7.28.03-9.44,3.71-2.09,7.63-2.08,11.34-.02,3.89,2.16,3.78,7.39-.09,9.59-1.74.99-3.66,1.34-5.61,1.28Zm.05-1.22c1.1-.26,2.26-.39,3.31-.82,1.83-.75,2.77-2.2,2.69-4.24-.08-1.98-1.09-3.31-2.88-4.02-2-.79-4.05-.8-6.08-.07-2.07.75-3.02,2.08-3.08,4.22-.05,1.92.96,3.46,2.94,4.2.95.35,1.99.48,3.09.73Z"/>
        <path class="cls-1" d="m234.66,129.21h-2.08c-1.42-2.1-5.33-2.94-7.6-1.53-.38.24-.81.84-.76,1.19.07.43.58,1.01,1,1.12,1.97.48,3.99.79,5.97,1.24.88.2,1.78.49,2.57.92,1.9,1.04,2.05,3.15.25,4.36-.93.62-2.08,1.07-3.18,1.25-2.38.38-4.79.36-7.07-.59-1.38-.57-2.45-1.47-2.63-3.2,1.1-.09,2.2-.61,2.74.94.13.38.66.7,1.08.88,2.18.95,4.43,1.03,6.64.18.55-.21,1.17-.96,1.22-1.5.04-.41-.71-1.17-1.24-1.31-1.92-.52-3.9-.79-5.84-1.26-.96-.23-1.94-.54-2.77-1.04-1.49-.9-1.65-2.64-.25-3.69.85-.64,1.97-1.07,3.03-1.27,2.26-.44,4.54-.39,6.71.53,1.19.5,2.1,1.29,2.21,2.8Z"/>
        <path class="cls-1" d="m283.01,125.94h2.17c0,2.9.08,5.72-.04,8.53-.05,1.29-1.01,2.18-2.18,2.64-3.1,1.22-6.23,1.2-9.32-.04-1.15-.46-1.98-1.43-2.04-2.63-.13-2.81-.04-5.63-.04-8.52h2.27c0,2.06,0,4.04,0,6.03,0,3.64.93,4.55,4.64,4.53.24,0,.48,0,.72-.01,2.79-.17,3.77-1.16,3.81-3.97.03-2.15,0-4.3,0-6.57Z"/>
        <path class="cls-1" d="m303.78,129.1c-1.15.34-2.08.6-3.04-.7-1.26-1.68-5.05-1.83-7.4-.62-1.83.95-2.61,2.84-2.15,5.22.24,1.25.91,2.19,2.06,2.78,2.56,1.32,6.27.93,7.84-.84q1.19-1.34,3.12-.96c-.37,1.17-1.12,2-2.08,2.64-2.76,1.83-8.26,1.79-11-.05-3.6-2.42-3.4-7.73.44-9.71,2.98-1.54,6.14-1.63,9.3-.54,1.57.54,2.47,1.49,2.92,2.77Z"/>
        <path class="cls-1" d="m181.97,133.95c-.8,2.07-2.31,3.11-4.2,3.6-2.4.63-4.84.59-7.21-.15-2.6-.82-4.23-3.02-4.28-5.61-.04-2.48,1.45-4.47,4.12-5.42,2.6-.93,5.24-.99,7.88-.17,1.66.52,2.62,1.4,3.23,2.78-1.5.7-1.81.59-2.85-.48-1.76-1.81-3.99-1.64-6.17-1.18-3.07.65-4.49,3.39-3.41,6.31.1.26.22.51.37.75,1.72,2.81,7.82,3.03,9.57.24.62-.98,1.17-1.11,2.1-.79.22.07.47.07.85.13Z"/>
        <path class="cls-1" d="m251.13,125.95c-.02.48-.04.87-.06,1.34h-5.7v10.37h-2.43v-10.3h-5.78c-.03-.49-.06-.9-.09-1.41h14.06Z"/>
        <path class="cls-1" d="m311.62,127.31h-5.77c-.03-.48-.06-.86-.09-1.35h13.96v1.3h-5.68v10.37h-2.43v-10.33Z"/>
        <path class="cls-1" d="m324.9,137.67h-2.22v-11.73h2.22v11.73Z"/>
      </g>
      <g>
        <path class="cls-1" d="m62.25,114.27c-.51-1-.96-1.93-1.45-2.84-3.17-5.97-5.33-12.29-6.48-18.94-.19-1.08-.71-1.59-1.73-1.81-9.12-2.01-17.48-6-25.88-9.89-.93-.43-1.05-1.12-.98-1.96.49-5.17,1.19-10.31,2.71-15.3.37-1.22.79-2.43,1.17-3.64.32-.99.86-1.3,1.9-.88,2.67,1.07,5.35,2.09,8.06,3.05,1.08.38,1.12,1.04.93,1.96-.82,3.89-1.67,7.79-2.4,11.7-.28,1.48-.35,3.02-.33,4.54,0,.49.47,1.31.88,1.42,4.71,1.35,9.45,2.59,14.19,3.85.11.03.24,0,.53-.03-.29-7.4.08-14.74,2.25-22-8.43-1.72-16.49-4.15-24.13-8.22.48-1,.92-1.96,1.41-2.9,9.1-17.31,23.04-28.62,41.98-33.65,6.27-1.67,12.69-1.98,19.15-1.79,9.73.29,19.1,2.17,27.91,6.42,13.34,6.44,22.37,16.87,28,30.4.04.1.03.22.05.48-12.8-25.59-34.05-35-61.5-32.74-19.81,3.65-34.24,14.58-44.01,32.36,3.32.92,6.39,1.77,9.45,2.61.69.19,1.42.27,2.09.51,1.13.41,1.62-.07,2.12-1.06,1.86-3.71,3.58-7.51,5.77-11.01,5.38-8.58,12.61-15.34,21.27-20.58.28-.17.6-.27,1.06-.16-.55.5-1.09,1.02-1.66,1.49-7.19,5.98-12.57,13.37-16.84,21.6-4.83,9.32-7.6,19.26-8.72,29.68-1.32,12.28-.12,24.31,3.45,36.13.34,1.14.95,1.63,2.18,1.79,10.94,1.48,21.92,1.65,32.92,1.08,2.19-.11,4.36-.53,6.54-.8.47-.06.95-.08,1.48.15-2.2.62-4.39,1.29-6.6,1.86-9.67,2.48-19.53,3.34-29.48,2.85-12.96-.64-25.34-3.59-36.76-9.97-.7-.39-1.36-1.13-1.68-1.87-2.87-6.57-4.53-13.44-5.09-20.59-.06-.76-.15-1.51-.2-2.27-.07-1.03.44-1.19,1.26-.81.76.35,1.5.76,2.26,1.09,2.38,1.03,4.75,2.08,7.17,3.02,1.25.48,1.79,1.29,1.96,2.57.84,6.34,2.69,12.38,5.48,18.14.2.42.67.85,1.1.99,5.52,1.72,11.09,3.28,16.85,4.03.07,0,.15-.03.41-.09Z"/>
        <path class="cls-1" d="m149.07,114.03c-.09.25-.16.5-.26.74-8.15,18.69-22.28,30.07-42.16,34.31-7.38,1.57-14.89,2.14-22.41,1.41-12.73-1.24-24.11-5.93-34.06-13.98-6.02-4.87-11.08-10.59-14.94-17.34-.15-.27-.28-.55-.49-.99,2.51.85,4.86,1.69,7.24,2.42,2.09.64,4.21,1.21,6.35,1.69,1.5.34,2.56,1.17,3.48,2.34,7.86,10.02,18,16.93,30.27,19.93,16.55,4.05,32.47,1.88,47.02-7.45,8.41-5.39,14.54-12.88,19.05-21.75.24-.47.49-.94.74-1.41.06.03.12.05.18.08Z"/>
        <path class="cls-1" d="m119,84.43c-5.46,2.68-11.13,4.54-16.97,5.88-10.84,2.49-21.8,3.12-32.86,2.19-2.03-.17-4.04-.47-6.07-.67-.76-.08-1.01-.45-.99-1.18.03-1.35,0-2.7,0-4.25,19.18,2.51,38.11,2.11,56.88-1.97Z"/>
        <path class="cls-1" d="m36.48,22.08c.82-2.63,1.5-4.99,2.32-7.3.32-.89.12-1.33-.62-1.85-1.96-1.37-3.86-2.83-5.76-4.56.72,0,1.45,0,2.17,0,1.8-.02,3.6-.06,5.4-.04.67,0,.98-.23,1.18-.88.75-2.39,1.58-4.77,2.48-7.44.46,1.31.84,2.37,1.2,3.44.43,1.28.9,2.56,1.25,3.87.22.81.63,1.04,1.44,1.02,2.43-.05,4.86-.02,7.29-.02.04.12.08.23.13.35-2.21,1.64-4.43,3.28-6.74,5,.84,2.68,1.68,5.36,2.63,8.41-1.65-1.17-3-2.15-4.38-3.1-.95-.65-1.91-1.73-2.88-1.75-.91-.01-1.84,1.12-2.76,1.76-1.37.96-2.72,1.94-4.34,3.09Z"/>
        <path class="cls-1" d="m65.87,64.51c.56-1.81,1.01-3.45,1.61-5.04.11-.31.79-.61,1.18-.57,4.53.4,9.05,1.07,13.59,1.24,5.7.22,11.42.08,17.13.04,1.67-.01,3.35-.22,5.02-.29.49-.02.99.11,1.49.32-12.94,4.31-26.19,5.59-40.01,4.31Z"/>
        <path class="cls-1" d="m12.4,47.9c.75-2.38,1.49-4.76,2.25-7.2-2-1.49-3.97-2.95-5.95-4.42.02-.12.04-.25.06-.37,1.81,0,3.61,0,5.42,0q2.04,0,2.67-1.93c.58-1.73,1.16-3.46,1.87-5.55.73,2.19,1.42,4.04,1.95,5.93.33,1.17.85,1.66,2.14,1.58,1.94-.13,3.9-.03,5.85-.03.04.11.08.22.12.33-1.09.82-2.19,1.63-3.27,2.45-.89.67-2.22,1.22-2.51,2.09-.29.87.47,2.09.8,3.16.4,1.32.83,2.64,1.35,4.29-2.04-1.45-3.81-2.66-5.51-3.96-.7-.54-1.18-.49-1.86.03-1.68,1.28-3.43,2.47-5.15,3.7-.08-.03-.16-.07-.23-.1Z"/>
        <path class="cls-1" d="m9.45,62.71c.73,2.19,1.37,3.99,1.92,5.82.27.93.67,1.36,1.73,1.3,1.9-.1,3.82-.03,5.72-.03.04.11.08.22.11.33-1.48,1.1-2.92,2.26-4.46,3.27-.96.63-1.19,1.25-.78,2.34.66,1.74,1.16,3.54,1.53,5.47-1.9-1.34-3.8-2.69-5.78-4.09-1.92,1.37-3.86,2.74-6.07,4.31.71-2.29,1.3-4.3,1.98-6.27.23-.66.1-1-.44-1.39-1.66-1.18-3.29-2.41-4.91-3.91.56,0,1.12,0,1.67,0,1.44-.02,2.88-.1,4.32-.03.91.05,1.24-.34,1.49-1.13.58-1.9,1.24-3.77,1.98-5.99Z"/>
        <path class="cls-1" d="m18.66,101.11c-1.47,1.09-2.91,2.21-4.42,3.25-.61.42-.7.84-.48,1.49.58,1.73,1.11,3.47,1.45,5.42-1.33-.95-2.72-1.84-3.98-2.88-.93-.77-1.6-.81-2.55-.02-1.28,1.07-2.7,1.96-4.35,3.14.63-1.99,1.1-3.66,1.7-5.29.34-.93.24-1.5-.65-2.08-1.44-.93-2.77-2.02-4.14-3.34,1.16,0,2.32,0,3.48,0q3.03,0,3.96-2.83c.38-1.13.77-2.26,1.26-3.72.68,2.03,1.3,3.75,1.82,5.5.23.77.58,1.08,1.42,1.05,1.79-.07,3.58-.02,5.37-.02l.09.34Z"/>
        <path class="cls-1" d="m21.05,120.63c.76,2.24,1.42,4.19,2.11,6.21h6.47c-1.65,1.22-2.98,2.27-4.38,3.22-.68.46-.84.89-.55,1.68.57,1.56,1.02,3.17,1.32,4.95-1.29-.93-2.62-1.81-3.87-2.79-.76-.6-1.34-.71-2.16-.04-1.26,1.03-2.64,1.92-4.23,3.05.59-1.9,1.03-3.54,1.62-5.13.31-.85.1-1.29-.59-1.77-1.37-.94-2.69-1.97-3.97-3.2,1.69,0,3.38-.04,5.07.02.8.03,1.2-.2,1.43-1.01.47-1.64,1.08-3.24,1.74-5.18Z"/>
        <path class="cls-1" d="m41.71,141.98c.54,1.6,1.02,2.86,1.39,4.15.2.72.57.94,1.28.92,1.34-.04,2.68-.01,4.02-.01.02.1.04.21.07.31-1.01.76-1.99,1.57-3.05,2.25-.8.51-.9,1.03-.57,1.87.44,1.14.74,2.33.88,3.69-1.08-.77-2.18-1.5-3.22-2.31-.57-.44-.99-.45-1.57,0-1.06.83-2.2,1.58-3.58,2.55.51-1.63.88-2.99,1.35-4.31.21-.6.1-.93-.41-1.29-1.13-.79-2.23-1.64-3.34-2.46.02-.11.05-.21.07-.32,1.26,0,2.52-.05,3.78.02.88.04,1.36-.19,1.59-1.13.3-1.23.79-2.42,1.31-3.95Z"/>
      </g>
    </g>
  </g>
</svg>