<?xml version="1.0" encoding="UTF-8"?>
<svg id="Layer_2" data-name="Layer 2" xmlns="http://www.w3.org/2000/svg" viewBox="0 0 350.9 61.91">
  <defs>
    <style>
      .cls-1 {
        fill: #fff;
      }

      .cls-2 {
        fill: #442d84;
      }
    </style>
  </defs>
  <g id="Layer_1-2" data-name="Layer 1">
    <g>
      <g>
        <path class="cls-2" d="m248.06,37.35h-5.07V13.38c.19-.01.34-.03.5-.03,1.38,0,2.76.02,4.14,0,.43,0,.68.15.93.49,3.42,4.66,6.85,9.31,10.28,13.96.12.16.24.31.36.46.05-.01.07-.01.08-.02.01,0,.03-.02.03-.04,0-.08.02-.16.02-.24,0-4.76,0-9.52,0-14.28,0-.06.01-.12.02-.18,0-.02.01-.04.04-.1h5.03v23.94c-.18.02-.35.04-.53.04-1.26,0-2.52-.02-3.78,0-.43,0-.69-.15-.94-.49-1.98-2.74-3.98-5.46-5.97-8.19-1.59-2.18-3.19-4.36-4.78-6.53-.08-.11-.17-.21-.31-.3-.09,1.03-.05,2.06-.06,3.08,0,1.02,0,2.04,0,3.06,0,1.04,0,2.08,0,3.12v6.22Z"/>
        <path class="cls-2" d="m147.3,37.8c-2.16-.04-4.02-.33-5.78-1.14-3.11-1.43-5.21-3.76-6.29-7.01-1.1-3.31-.97-6.58.47-9.75,1.4-3.07,3.73-5.14,6.93-6.21,2.81-.95,5.67-1.02,8.49-.15,4.54,1.39,7.22,4.55,8.23,9.13.64,2.9.27,5.73-.97,8.42-.98,2.1-2.53,3.73-4.52,4.92-2.3,1.37-4.47,1.76-6.57,1.8Zm7.16-12.4c-.12-.83-.17-1.67-.38-2.48-.58-2.19-1.81-3.9-3.94-4.84-1.2-.53-2.46-.66-3.76-.56-2.56.2-4.48,1.42-5.62,3.71-1.33,2.69-1.32,5.44-.08,8.16.72,1.57,1.94,2.67,3.53,3.35.73.31,1.5.44,2.27.5,2.88.2,5.16-.83,6.72-3.3.86-1.37,1.19-2.91,1.26-4.53Z"/>
        <path class="cls-2" d="m311.89,37.3V13.38c.11,0,.2-.03.3-.03,3.7,0,7.4,0,11.09,0,1.21,0,2.38.25,3.5.72,2,.84,3.31,2.33,3.98,4.38.63,1.95.58,3.9-.19,5.81-.76,1.88-2.17,3.07-4.05,3.75-.17.06-.34.11-.51.17-.01,0-.02.03-.07.12,1.75,2.96,3.53,5.96,5.35,9.02h-5.9c-1.54-2.79-3.1-5.62-4.67-8.46h-3.75v8.38c-.46.14-4.4.17-5.08.05Zm5.08-19.38v6.35c.14.02.23.04.33.04,1.76,0,3.52,0,5.27-.03.32,0,.64-.06.95-.13,2.28-.55,3.23-3.3,1.75-5.07-.63-.75-1.48-1.11-2.42-1.14-1.88-.06-3.75-.06-5.63-.08-.08,0-.15.04-.24.06Z"/>
        <path class="cls-2" d="m285.2,32.84h11.79v4.5h-16.86c-.13-.42-.19-22.87-.06-23.9.41-.12,15.97-.16,16.92-.04v4.42c-.25.01-.52.04-.79.04-3.32,0-6.64,0-9.96,0-.34,0-.68.03-1.05.05v4.95c.95,0,1.9,0,2.85,0,.96,0,1.92,0,2.88,0h5.84c.04,1.5,0,2.97.02,4.53-.98.03-1.93.02-2.88.02-.96,0-1.92,0-2.88,0h-5.74c-.15.43-.2,4.3-.06,5.43Z"/>
        <path class="cls-2" d="m101.6,34.03c.96-1.37,1.86-2.65,2.78-3.96.14.11.27.2.38.3,1.09.96,2.29,1.76,3.65,2.27,1.71.64,3.5.83,5.31.49.48-.09.96-.31,1.37-.57.34-.22.64-.55.85-.9.61-.99.32-2.05-.69-2.61-.88-.49-1.84-.78-2.81-1.02-1.3-.33-2.6-.63-3.9-.97-1.17-.31-2.28-.76-3.3-1.41-2.88-1.84-3.38-4.84-2.45-7.57.63-1.84,1.9-3.12,3.62-3.97,1.42-.7,2.93-1.03,4.51-1.1,2-.09,3.95.21,5.84.85,1.51.52,2.86,1.31,4.05,2.49-.92,1.26-1.84,2.51-2.77,3.79-.14-.11-.26-.18-.36-.27-1.68-1.47-3.67-2.15-5.86-2.31-.78-.06-1.56-.09-2.32.14-.81.24-1.44.68-1.75,1.5-.3.81-.1,1.55.65,1.97.64.36,1.34.64,2.04.84,1.52.44,3.06.78,4.58,1.2,1.12.31,2.21.7,3.21,1.3,1.42.85,2.49,2,2.98,3.62.92,3.05-.39,6.49-3.11,8.13-1.29.77-2.69,1.23-4.18,1.4-2.64.31-5.23.14-7.74-.78-1.52-.55-2.9-1.33-4.09-2.44-.14-.14-.31-.25-.5-.41Z"/>
        <path class="cls-2" d="m205.72,13.38h5.1c.02.15.04.28.04.41,0,4.44,0,8.88,0,13.31,0,.54.03,1.08.1,1.61.36,2.65,2.23,4.38,4.92,4.54.82.05,1.64.03,2.44-.17,2-.48,3.41-2.02,3.69-4.09.08-.61.12-1.23.12-1.85.01-4.38,0-8.76.01-13.13,0-.2,0-.39,0-.63h5.23c.02.14.05.29.05.45,0,4.54,0,9.08,0,13.61,0,1.53-.17,3.03-.71,4.47-.85,2.27-2.41,3.87-4.63,4.84-1.95.85-3.99,1.08-6.09,1.02-1.69-.05-3.33-.34-4.9-1.01-2.66-1.13-4.28-3.15-4.97-5.91-.23-.92-.37-1.89-.38-2.84-.04-4.76-.02-9.52-.02-14.27,0-.1.01-.2.03-.36Z"/>
        <path class="cls-2" d="m179.39,32.84h11.56v4.52h-18.23c-.02-.17-.04-.32-.04-.47,0-1,.01-2,0-3-.01-.43.12-.76.37-1.1,3.4-4.57,6.78-9.16,10.17-13.74.26-.35.51-.7.84-1.17-3.84-.06-7.56-.04-11.37,0-.01-1.49,0-2.96,0-4.41.48-.13,16.77-.18,17.98-.06.02.12.06.25.07.38,0,1.08,0,2.16,0,3.24,0,.32-.12.57-.3.82-2.52,3.41-5.03,6.82-7.54,10.23-1.03,1.4-2.07,2.8-3.1,4.2-.11.16-.22.32-.4.58Z"/>
        <path class="cls-2" d="m345.88,13.38h5.03v23.96h-4.98c-.12-.45-.17-22.99-.05-23.96Z"/>
        <path class="cls-2" d="m177.43,49.69c.84,1.38,1.66,2.73,2.54,4.18-.74,0-1.37.02-2-.02-.13,0-.28-.2-.36-.35-.46-.79-.91-1.6-1.36-2.4-.24-.42-.48-.83-.72-1.25h-1.88v3.92h-1.84c-.15-.53-.11-9.76.05-10.67.17,0,.34,0,.51,0,1.26,0,2.52-.01,3.78.02.53.02,1.08.08,1.59.23,1.42.41,2.22,1.52,2.26,3.03.04,1.52-.7,2.61-2.12,3.12-.13.05-.26.1-.46.17Zm-3.74-1.55c1.01,0,1.98.04,2.95-.02.65-.04,1.16-.4,1.37-1.08.35-1.15-.32-2.15-1.54-2.23-.64-.04-1.28-.02-1.91-.02-.27,0-.55,0-.86,0v3.34Z"/>
        <path class="cls-2" d="m203.54,54.08c.04-3.59.08-7.1.12-10.64h1.89c-.03,1.43-.06,2.82-.09,4.28,1.87.13,3.7.05,5.61.09.05-1.44,0-2.85.03-4.29h1.8c.11.4.03,10.03-.09,10.62h-1.79v-4.63h-5.58v4.57h-1.91Z"/>
        <path class="cls-2" d="m158.72,43.01c.72,0,1.4,0,2.07,0,.3,0,.34.21.42.42.73,1.92,1.47,3.84,2.2,5.76.49,1.29.99,2.57,1.48,3.86.08.2.14.41.21.61-.48.14-1.36.14-2.06,0-.23-.63-.48-1.28-.74-1.98h-4.98c-.18.46-.39.97-.59,1.49q-.2.51-.73.51c-.49,0-.99,0-1.59,0,1.45-3.6,2.87-7.1,4.31-10.66Zm3.05,6.93c-.62-1.68-1.22-3.33-1.82-4.97-.04,0-.09,0-.13,0-.64,1.63-1.29,3.26-1.92,4.97h3.87Z"/>
        <path class="cls-2" d="m244.69,54.5c.05-3.61.09-7.14.14-10.75,2.45-.05,4.83.14,7.27.08v1.66c-1.8.09-3.59-.16-5.42,0v2.69c1.74.02,3.48.05,5.28.07v1.65c-1.75.07-3.5-.06-5.3-.04v2.97c1.77.04,3.55.04,5.37.04.14.56.07,1.09,0,1.63h-7.33Z"/>
        <path class="cls-2" d="m297.89,45.6c-.35.46-.68.9-1.03,1.36-.88-.83-1.88-1.23-3.03-1.22-.39,0-.8.08-1.16.21-.44.16-.69.51-.72,1.01-.02.41.12.72.48.88.47.21.96.4,1.45.56.7.23,1.43.39,2.12.64.94.34,1.68.93,1.98,1.93.46,1.51-.18,2.97-1.61,3.66-1.3.63-2.67.62-4.04.3-.89-.2-1.7-.57-2.38-1.2-.07-.07-.15-.14-.21-.21-.03-.03-.04-.07-.08-.17.31-.42.63-.86.99-1.35.14.12.26.21.37.31,1.02.89,2.2,1.28,3.55,1.12.29-.03.59-.11.86-.24.49-.23.75-.63.77-1.19.02-.54-.3-.87-.75-1.05-.63-.25-1.28-.43-1.92-.66-.71-.25-1.44-.47-2.13-.79-1.77-.81-1.71-3.22-.62-4.29.62-.61,1.36-1,2.21-1.12,1.63-.22,3.15.07,4.48,1.09.14.11.27.23.44.38Z"/>
        <path class="cls-2" d="m196.65,45.56c-.5.25-.98.5-1.47.75-.1-.12-.2-.22-.28-.32-1.44-1.8-3.88-1.33-4.96-.27-.8.78-1.19,1.71-1.21,2.84-.02,1.26.4,2.29,1.32,3.15,1.17,1.08,3.7,1.29,4.87-.47.04-.06.1-.12.19-.23.5.27,1,.53,1.53.81-.79,1.26-1.86,2.05-3.24,2.28-2.06.35-3.93-.14-5.31-1.78-1.43-1.72-1.73-3.73-.9-5.79.85-2.12,2.52-3.23,4.81-3.39,1.86-.13,3.37.51,4.46,2.05.05.06.09.13.13.2.02.03.02.07.06.18Z"/>
        <path class="cls-2" d="m268.82,46.22c-.49.25-.98.51-1.49.77-.12-.13-.23-.24-.32-.37-1.26-1.62-3.91-1.51-5.17.02-1.31,1.58-1.28,3.97.07,5.45,1.22,1.33,3.75,1.67,5.13-.08.07-.09.16-.17.27-.29.49.25.96.49,1.5.76-.41.67-.88,1.21-1.51,1.61-3,1.88-7.98.31-8.31-4.36-.06-.83.03-1.63.32-2.42.76-2.07,2.28-3.15,4.41-3.49.91-.15,1.79-.06,2.66.25,1.08.38,1.89,1.09,2.46,2.15Z"/>
        <path class="cls-2" d="m278.31,45.74h-3.16v-1.6h8.29v1.63c-1.04.08-2.1-.05-3.19.03-.13,3.01.06,6-.13,8.99h-1.81v-9.06Z"/>
        <path class="cls-2" d="m232.68,45.33h-3.18v-1.69c2.76,0,5.5.02,8.28.09.11.54.07,1.04.02,1.59h-3.18c-.02,1.52-.03,3.01-.05,4.5-.02,1.5-.06,2.99-.09,4.53h-1.82c-.05-1.48.02-2.97.03-4.46,0-1.5,0-2.99,0-4.57Z"/>
        <path class="cls-2" d="m350.81,6.79c.02.25.05.45.05.64,0,1.22.01,2.43.02,3.65,0,.58-.03.63-.59.63-1.28,0-2.55,0-3.83,0-.16,0-.31-.03-.52-.05-.02-.19-.05-.36-.05-.53,0-1.26,0-2.51,0-3.77,0-.58.03-.61.61-.61,1.24,0,2.47,0,3.71,0,.18,0,.35.02.61.03Z"/>
        <path class="cls-2" d="m220.08,6.76c.52,0,1.04,0,1.56,0,.61.01.94.3.95.92.03,1.06.03,2.12,0,3.17-.01.56-.32.85-.87.86-1.1.02-2.19.02-3.29,0-.54,0-.83-.27-.84-.81-.03-1.1-.03-2.19,0-3.29.01-.56.32-.83.88-.84.54-.02,1.08,0,1.62,0Z"/>
        <path class="cls-2" d="m146.05,9.24c0,.48,0,.96,0,1.44,0,.7-.27,1.01-.96,1.02-1.04.02-2.08.02-3.12,0-.61-.01-.87-.26-.89-.89-.02-1.06-.03-2.12,0-3.18.02-.63.31-.88.96-.88,1,0,2,0,3,0,.7,0,.98.3,1,.98,0,.5,0,1,0,1.5h0Z"/>
        <path class="cls-2" d="m150.64,6.76c.48,0,.96,0,1.44,0,.68.02.98.26.99.92.03,1.04.04,2.08.01,3.12-.01.62-.31.9-.95.91-1.02.02-2.04.01-3.06,0-.63-.01-.93-.29-.95-.91-.03-1.04-.03-2.08,0-3.12.02-.63.33-.9.95-.91.52-.01,1.04,0,1.56,0Z"/>
        <path class="cls-2" d="m213.07,6.76c.5,0,1-.01,1.5,0,.62.02.93.3.94.92.03,1.06.03,2.11.01,3.17,0,.57-.28.84-.86.85-1.08.02-2.15.01-3.23-.01-.55-.01-.82-.25-.84-.8-.04-1.1-.04-2.19,0-3.29.02-.6.31-.83.94-.84.52-.01,1.04,0,1.56,0h0Z"/>
        <path class="cls-2" d="m220.64,43.55c.22-.01.35-.03.49-.03.44,0,.87,0,1.38,0-.04,3.63-.07,7.17-.1,10.74h-1.88c.04-3.57.08-7.13.11-10.71Z"/>
      </g>
      <g>
        <g>
          <path class="cls-2" d="m54.13,16.55v28.57c0,.72-.38,1.39-1,1.75l-25.04,14.75c-.63.38-1.41.38-2.05.02L1.03,47.39c-.63-.36-1.03-1.03-1.03-1.77v-29.09c0-.72.39-1.39,1.01-1.76L25.7.28c.63-.37,1.41-.37,2.04,0l25.37,14.51c.63.36,1.02,1.03,1.02,1.77Z"/>
          <g>
            <path class="cls-1" d="m38.36,15.69v6.62c0,.32-.26.59-.59.59h-13.71c-.32,0-.59.26-.59.59v6.44c0,.32-.26.59-.59.59h-6.7c-.32,0-.59-.26-.59-.59v-14.24c0-.32.26-.59.59-.59h21.59c.32,0,.59.26.59.59Z"/>
            <path class="cls-1" d="m38.53,31.54v14.24c0,.32-.26.59-.59.59h-21.59c-.32,0-.59-.26-.59-.59v-6.62c0-.32.26-.59.59-.59h13.71c.32,0,.59-.26.59-.59v-6.44c0-.32.26-.59.59-.59h6.7c.32,0,.59.26.59.59Z"/>
          </g>
        </g>
        <rect class="cls-2" x="77.74" width="1.45" height="61.91"/>
      </g>
    </g>
  </g>
</svg>