<?xml version="1.0" encoding="UTF-8"?>
<svg id="Layer_2" data-name="Layer 2" xmlns="http://www.w3.org/2000/svg" viewBox="0 0 306.27 170.28">
  <defs>
    <style>
      .cls-1 {
        fill: #442d84;
      }
    </style>
  </defs>
  <g id="Layer_1-2" data-name="Layer 1">
    <g>
      <path class="cls-1" d="m5.78,170.28c-.02-.47-.05-.86-.05-1.25,0-11.88.01-23.76-.03-35.64,0-1.09.27-1.4,1.39-1.4,99.31.03,198.62.02,297.93.03.39,0,.78.03,1.25.05v38.21H5.78Zm142.99-21.22c.08-.01.16-.03.24-.04.2.34.4.67.6,1.01,1.67,2.91,3.32,5.82,5.01,8.72.18.31.49.74.78.77.93.1,1.88.04,2.8.04v-16.02h-2.8v9.28c-.38-.62-.58-.94-.77-1.27-1.39-2.42-2.77-4.85-4.18-7.26-.18-.31-.5-.75-.78-.77-1.21-.09-2.43-.04-3.62-.04v16.02h2.72v-10.43Zm-45.22,6.27c.4,1.69,1.29,2.84,2.72,3.57,2.02,1.04,4.14,1.12,6.29.55,2.51-.66,4.05-2.59,4.06-4.98.01-2.3-1.25-3.78-3.94-4.57-1.18-.35-2.43-.52-3.56-.99-.49-.21-1.08-1.01-1.03-1.47.06-.47.8-1.11,1.34-1.22,1.57-.34,2.94.08,3.66,1.78,1.04-.36,2.03-.69,3.05-1.04-.1-.29-.13-.45-.19-.59-1.17-2.42-4.09-3.66-7.16-3.05-2.62.52-4.3,2.32-4.45,4.76-.14,2.32,1.04,3.78,3.81,4.65,1.06.33,2.16.56,3.23.86.82.23,1.56.62,1.45,1.61-.11.96-.82,1.39-1.75,1.51-1.88.26-3.42-.15-4.2-2.12-1.11.25-2.15.48-3.33.74Zm34.49,4.19c-.12-.45-.19-.76-.28-1.06-1.21-3.92-2.42-7.84-3.65-11.75-.33-1.06-.41-2.51-1.15-3.05-.74-.54-2.15-.13-3.26-.21-.73-.05-1.03.21-1.25.91-1.5,4.79-3.05,9.56-4.58,14.34-.08.24-.09.51-.14.85.78,0,1.46-.06,2.13.01.81.09,1.12-.27,1.29-1,.18-.8.49-1.57.73-2.33h5.21c.35,1.1.69,2.19,1.04,3.28h3.91Zm43.72-16.05c-1.27,0-2.39.05-3.51-.02-.7-.04-.97.25-1.16.87-.73,2.4-1.5,4.78-2.27,7.17-.85,2.65-1.7,5.29-2.56,7.96q3.07.38,3.97-2.37c.02-.08.02-.18.07-.22.26-.22.53-.61.81-.62,1.51-.06,3.03-.03,4.6-.03.28.91.51,1.79.83,2.64.1.28.41.66.65.67,1.13.07,2.26.03,3.54.03-1.7-5.48-3.33-10.75-4.98-16.09Zm22.88.1h-11.62v3.06h3.97v12.85h3.79v-12.89h3.85v-3.02Zm11.44,15.95v-15.97h-3.51v15.97h3.51Zm-51.42-15.98h-3.16v3.18c.51.07.92.13,1.44.2-.53,1.06-1,2.01-1.48,2.99,1.93.17,3.64-3.3,3.2-6.36Z"/>
      <path class="cls-1" d="m61.51,103.86c2.9,1.3,4.83,3.68,6.62,6.21,1.85,2.61,3.67,5.24,5.49,7.86.2.28.37.59.67,1.05-2.03,0-3.89.04-5.75-.04-.32-.01-.68-.47-.92-.8-2.51-3.46-4.97-6.96-7.49-10.41-1.87-2.57-4.34-3.89-7.62-3.67-1.82.12-3.66.02-5.58.02v16.51h-4.94v-16.42h-4.65v15.94h-3.68v-15.93H14.28v15.97h-2.48v-15.98h-3.36v15.94h-2.47v-15.96H.01c0-1.24-.05-2.35.04-3.45.02-.21.61-.52.94-.53,1.59-.06,3.18-.03,4.92-.03,0-.57,0-1.04,0-1.51,0-14.24-.24-28.48.06-42.72.42-19.7,9.48-34.49,26.46-44.44.86-.51,1.25-.99,1.22-2.03-.08-2.8,0-5.6-.04-8.4,0-.76.21-1.1,1.02-1.04.83.06,1.67.01,2.62.01v8.95c2.5-.83,4.85-1.61,7.36-2.44.04.58.09.95.09,1.33,0,5.28-.02,10.56.02,15.84,0,.86-.23,1.23-1.09,1.5-1.9.6-3.75,1.34-5.61,2.07-.3.12-.67.51-.68.79-.06,1.71-.03,3.42-.03,5.16,2.46-.82,4.82-1.61,7.33-2.45.03.64.06,1.02.06,1.41,0,3.92-.03,7.84.02,11.76.01.97-.31,1.24-1.25,1.42-2.06.4-4.09,1.02-6.12,1.55v53.15h4.56v-14.63c.45-.04.76-.1,1.07-.1,6,.03,12,.03,18,.11,1.31.02,2.63.23,3.9.55,3.62.9,5.94,3.78,6.42,7.79.39,3.28-1.34,6.61-4.53,8.18-1.66.82-3.5,1.28-5.29,1.9Zm-27.98-3.79v-51.25c-.34.14-.56.21-.77.33-11.41,6.66-17.8,16.51-18.43,29.76-.32,6.74-.07,13.51-.07,20.26,0,.3.06.61.1.91h19.17Zm-21.77,0c0-.63,0-1.11,0-1.59,0-8.39,0-16.79,0-25.18,0-3.72.32-7.42,1.25-11.04,2.97-11.5,9.57-20.3,19.67-26.52.37-.23.88-.63.89-.97.09-1.7.04-3.41.04-5.26-.37.18-.6.25-.78.38-2.68,1.95-5.54,3.68-7.98,5.89-10.05,9.1-15.74,20.47-16.29,34.05-.4,9.78-.15,19.58-.18,29.37,0,.27.06.54.1.86h3.26Zm35.2-.03c4.48,0,8.83.07,13.18-.04,1.15-.03,2.37-.45,3.41-.97,1.87-.93,2.76-2.6,2.7-4.7-.06-2.09-1.13-3.56-3-4.36-.9-.39-1.91-.68-2.87-.71-4.31-.12-8.62-.13-12.93-.17-.15,0-.3.08-.48.12v10.83Z"/>
      <path class="cls-1" d="m306.27,127.67H5.8v-4.8h300.47v4.8Z"/>
      <path class="cls-1" d="m301.34,61.51h4.7v57.47c-1.52,0-3.07.06-4.61-.04-.36-.02-.74-.54-1.01-.9-5.88-8.03-11.74-16.07-17.6-24.11-.23-.32-.48-.62-.9-1.15v26.13h-4.7v-33.57c1.59,0,3.13-.05,4.67.04.33.02.68.49.92.82,5.78,7.9,11.55,15.81,17.33,23.72.33.45.66.89,1.19,1.6v-50Z"/>
      <path class="cls-1" d="m130.2,119.13v-33.72c.39-.03.73-.09,1.08-.09,4.84.02,9.67,0,14.51.1,7.77.15,13.05,4.63,14.36,12.28.71,4.19.53,8.35-1.09,12.37-2.04,5.07-5.8,8.12-11.16,8.56-5.83.47-11.72.36-17.7.51Zm4.86-4.26c3.62,0,7.15.24,10.63-.06,5.38-.46,8-2.81,9.19-7.74.8-3.31.81-6.66.05-9.98-.96-4.21-4.01-7-8.25-7.56-1.3-.17-2.63-.17-3.95-.19-2.55-.03-5.09,0-7.68,0v25.53Z"/>
      <path class="cls-1" d="m242.99,118.99c-1.74,0-3.3.06-4.85-.04-.37-.02-.87-.48-1.04-.85-1.22-2.77-2.39-5.57-3.53-8.38-.26-.65-.6-.91-1.32-.9-4.48.03-8.96.04-13.43,0-.79,0-1.1.31-1.36,1-1.05,2.76-2.18,5.49-3.22,8.25-.27.71-.61.99-1.38.95-1.35-.07-2.7-.02-4.21-.02.72-1.75,1.38-3.36,2.06-4.97,3.84-9.16,7.69-18.31,11.49-27.49.37-.9.83-1.3,1.83-1.21,1.31.12,2.92-.36,3.86.25.93.61,1.21,2.24,1.75,3.43,4.29,9.57,8.57,19.15,12.85,28.73.16.36.29.73.5,1.26Zm-17.61-29.31c-1.97,5.07-3.95,10.2-5.95,15.34h12.13c-2.11-5.24-4.18-10.37-6.18-15.34Z"/>
      <path class="cls-1" d="m184.27,114.95h23.15v3.95h-28.94c0-1.26-.05-2.49.03-3.72.02-.38.34-.78.61-1.1,7.1-8.08,14.22-16.14,21.33-24.21.1-.11.16-.24.34-.51h-20.1v-3.96h26.14c0,1.93.39,3.71-1.25,5.5-7.1,7.76-14.01,15.69-20.99,23.55-.08.09-.13.19-.33.5Z"/>
      <path class="cls-1" d="m94.98,101.19c4.58,5.86,9.15,11.71,13.89,17.79-2.08,0-3.93.03-5.78-.03-.3-.01-.64-.42-.86-.72-3.31-4.31-6.6-8.63-9.9-12.95-.1-.12-.21-.24-.3-.34-3.35,4.29-6.72,8.53-10,12.83-.71.92-1.43,1.33-2.59,1.24-1.33-.1-2.68-.02-4.27-.02.63-.81,1.11-1.43,1.6-2.03,3.93-4.84,7.84-9.7,11.8-14.51.62-.76.65-1.22.02-2.01-3.89-4.92-7.71-9.89-11.74-15.08,2.02,0,3.82-.03,5.62.03.26,0,.55.42.76.69,3,3.89,6,7.78,9.04,11.74.04-.03.18-.09.26-.19,3.1-3.82,6.2-7.63,9.27-11.46.5-.62,1.02-.9,1.82-.86,1.3.06,2.61.02,4.25.02-4.4,5.42-8.62,10.61-12.9,15.87Z"/>
      <path class="cls-1" d="m239.28,85.33c2.01,0,3.76-.05,5.5.04.36.02.78.48,1.04.84,3.47,4.88,6.92,9.78,10.42,14.74.26-.39.54-.85.86-1.29,3.23-4.57,6.45-9.13,9.71-13.68.22-.3.67-.6,1.03-.62,1.59-.07,3.19-.03,5.07-.03-.33.47-.54.78-.76,1.07-4.38,5.81-8.77,11.6-13.11,17.43-.39.53-.66,1.28-.67,1.94-.06,3.92-.03,7.83-.03,11.75v1.39h-4.96v-1.29c0-3.96.03-7.91-.03-11.87,0-.62-.24-1.34-.6-1.84-4.13-5.74-8.31-11.44-12.48-17.15-.28-.38-.54-.77-.99-1.42Z"/>
      <path class="cls-1" d="m168.03,85.38h4.78v33.51h-4.78v-33.51Z"/>
      <path class="cls-1" d="m124.6,104.75c.03.34.07.61.07.88,0,1.03,0,2.07,0,3.19h-13.81v-4.07h13.74Z"/>
      <path class="cls-1" d="m170.58,81.13c-1.86-.02-3.37-1.58-3.37-3.48,0-1.95,1.58-3.54,3.49-3.5,1.84.03,3.38,1.63,3.38,3.5,0,1.94-1.58,3.51-3.5,3.48Z"/>
      <path class="cls-1" d="m130.66,147.93c.51,1.74,1.01,3.47,1.55,5.3h-3.44c.56-1.81,1.1-3.56,1.64-5.32.08,0,.17.01.25.02Z"/>
      <path class="cls-1" d="m179.3,147.96c.51,1.73,1.01,3.46,1.54,5.28h-3.41c.55-1.82,1.07-3.57,1.6-5.31.09.01.18.02.27.03Z"/>
    </g>
  </g>
</svg>