<?xml version="1.0" encoding="UTF-8"?>
<svg id="Layer_2" data-name="Layer 2" xmlns="http://www.w3.org/2000/svg" viewBox="0 0 298.25 173.35">
  <defs>
    <style>
      .cls-1 {
        fill: #442d84;
      }
    </style>
  </defs>
  <g id="Layer_1-2" data-name="Layer 1">
    <g>
      <g>
        <g>
          <polygon class="cls-1" points="42.53 106.34 42.53 53.43 102.26 0 149.21 41.69 196.34 0 255.72 53.17 255.72 106.34 196.07 53.17 161.91 83.87 162.04 106.34 149.69 95.04 136.69 106.34 136.42 83.61 102.26 53.17 42.53 106.34"/>
          <polygon class="cls-1" points="82.82 99.37 102.79 79.01 119.61 95.43 119.61 130.91 82.82 99.37"/>
          <polygon class="cls-1" points="188.72 99.37 208.69 79.01 225.5 95.43 225.5 130.91 188.72 99.37"/>
        </g>
        <rect class="cls-1" y="134.72" width="298.25" height="6.57"/>
      </g>
      <g>
        <path class="cls-1" d="m13.66,160.67c1.6-3.57,3.17-7.08,4.73-10.59.13-.29.28-.58.38-.88.09-.27.24-.35.51-.34,1.16.01,2.32,0,3.48,0,.92,0,1.84.01,2.76,0,.28,0,.35.09.35.36,0,7.37,0,14.74,0,22.11,0,.42,0,.84,0,1.26,0,.18-.06.24-.25.24-1.83,0-3.66,0-5.49,0-.22,0-.27-.09-.27-.29,0-.75,0-1.5,0-2.25,0-3.65,0-7.3,0-10.95,0-.65.02-1.3.03-1.95,0-.1-.01-.21-.09-.32-.09.2-.17.41-.26.61-.95,2.25-1.9,4.51-2.85,6.76-.37.86-.74,1.73-1.12,2.58-.03.07-.16.15-.24.15-1.24,0-2.48.01-3.72,0-.09,0-.23-.11-.27-.2-1.24-2.89-2.46-5.78-3.69-8.68-.18-.42-.37-.83-.62-1.23,0,.43,0,.86,0,1.29,0,4.33,0,8.66,0,12.99,0,.4,0,.8.02,1.2,0,.21-.06.28-.27.28-1.71,0-3.42,0-5.13,0-.24,0-.28-.1-.28-.3,0-.96,0-1.92,0-2.88,0-6.82,0-13.64,0-20.46,0-.21.02-.34.28-.34,2.04,0,4.08.01,6.12,0,.39,0,.6.11.77.51.95,2.2,1.95,4.38,2.93,6.56.67,1.49,1.33,2.99,2,4.48.04.08.1.15.17.25Z"/>
        <path class="cls-1" d="m120.79,162.51v-13.6h5.51v23.92c-.06,0-.12.02-.17.02-1.76,0-3.52,0-5.28,0-.21,0-.33-.07-.43-.25-2.74-4.95-5.49-9.9-8.24-14.85-.27-.49-.53-.99-.79-1.49-.02,0-.05,0-.07.01,0,.15-.02.31-.02.46,0,5.22,0,10.44.01,15.66,0,.45,0,.46-.45.46-1.59,0-3.18,0-4.77,0-.22,0-.3-.07-.29-.29,0-.91,0-1.82,0-2.73,0-6.87,0-13.74,0-20.61,0-.22.03-.35.3-.35,2.17.01,4.34.02,6.51,0,.42,0,.65.13.86.51,2.4,4.35,4.82,8.68,7.24,13.01.01.02.04.04.1.11Z"/>
        <path class="cls-1" d="m224.49,162.66c2.69,3.39,5.35,6.75,8.05,10.17-.18,0-.3,0-.43,0-2.18,0-4.36,0-6.54.01-.24,0-.39-.08-.53-.27-2.09-2.76-4.18-5.51-6.26-8.27-.14-.18-.28-.25-.5-.24-.61.01-1.22,0-1.88,0,0,.13,0,.23,0,.34,0,2.69,0,5.38,0,8.07,0,.29-.08.37-.37.37-1.77-.01-3.54,0-5.31,0-.22,0-.32-.05-.32-.3,0-7.47.01-14.94.01-22.41,0-.32,0-.64-.01-.96-.02-.25.09-.31.31-.31.43.01.86,0,1.29,0,3.12.01,6.24,0,9.36.05,1.5.03,2.99.23,4.35.95,1.75.92,2.95,2.31,3.21,4.29.48,3.66-.71,6.55-4.12,8.31-.11.05-.21.11-.34.18Zm-8.07-9.35s-.03.1-.03.14c0,2.03.01,4.06.02,6.09,0,.18.09.19.22.19,1.12-.03,2.24-.02,3.35-.09,1.39-.09,2.48-.98,2.77-2.3.11-.52.13-1.07.09-1.61-.07-1.24-.85-2.08-2.08-2.27-.54-.09-1.09-.13-1.64-.15-.9-.02-1.79,0-2.7,0Z"/>
        <path class="cls-1" d="m257.62,160.68c.01,2.2-.27,4.2-1.05,6.12-1.07,2.66-2.92,4.55-5.57,5.63-2.01.82-4.12,1.03-6.26.87-1.32-.1-2.59-.43-3.82-.93-1.97-.81-3.44-2.18-4.56-3.96-.99-1.58-1.5-3.32-1.75-5.15-.23-1.65-.24-3.31,0-4.96.29-1.89.84-3.7,1.94-5.3,1.55-2.26,3.66-3.7,6.35-4.27,1.45-.31,2.91-.44,4.38-.3,2.17.22,4.25.76,6,2.15,2.01,1.6,3.29,3.67,3.88,6.17.32,1.34.48,2.69.46,3.93Zm-6.21.23c0-.4.02-.8,0-1.2-.07-1.23-.29-2.44-.79-3.58-.98-2.25-2.59-3.3-4.9-3.2-1.26.05-2.31.52-3.16,1.48-.83.94-1.32,2.04-1.6,3.24-.41,1.76-.39,3.53-.21,5.31.13,1.3.51,2.52,1.24,3.62,1.69,2.59,4.6,2.62,6.41,1.64.98-.53,1.61-1.38,2.1-2.36.78-1.56.96-3.24.92-4.96Z"/>
        <path class="cls-1" d="m76.3,172.82c-.13,0-.21.02-.3.02-2.13,0-4.26-.01-6.39.01-.38,0-.59-.13-.8-.43-1.75-2.64-3.52-5.27-5.28-7.9-.26-.38-.51-.76-.77-1.14-.06-.09-.13-.17-.23-.28-.38.54-.75,1.05-1.09,1.57-.07.1-.07.27-.07.4,0,2.46,0,4.92.01,7.38,0,.39,0,.39-.39.39-1.77,0-3.54,0-5.31,0-.24,0-.33-.05-.33-.31,0-7.69,0-15.38,0-23.07,0-.59,0-.59.61-.59,1.69,0,3.38,0,5.07,0,.26,0,.34.08.34.34,0,3.32,0,6.64,0,9.96,0,.08,0,.17.08.28.08-.12.16-.23.25-.35,2.41-3.34,4.81-6.68,7.23-10.02.08-.11.26-.2.39-.2.66-.02,1.32-.02,1.98-.02,1.48,0,2.96.01,4.44.02.06,0,.11.01.22.02-.29.38-.56.73-.82,1.07-2.11,2.76-4.22,5.53-6.34,8.29-.38.5-.77.99-1.18,1.48-.15.18-.15.3-.02.49,2.39,3.43,4.76,6.87,7.14,10.3.46.67.92,1.33,1.39,1.99.05.08.1.16.17.28Z"/>
        <path class="cls-1" d="m156.84,159.42c.77-1.06,1.53-2.12,2.3-3.18,1.72-2.39,3.43-4.77,5.15-7.15.07-.09.2-.15.31-.19.12-.04.26-.03.39-.03,2.05,0,4.1,0,6.15,0,.05,0,.11.03.2.05-.16.21-.29.41-.44.6-1.72,2.23-3.43,4.47-5.15,6.7-.92,1.19-1.84,2.37-2.76,3.55-.13.16-.15.28-.02.47,2.88,4.13,5.74,8.27,8.61,12.41.03.04.05.08.1.17-.11.01-.19.03-.28.03-2.17,0-4.34,0-6.51.01-.32,0-.5-.12-.67-.38-2.07-3.1-4.14-6.2-6.22-9.29-.01-.02-.03-.03-.08-.08-.19.26-.36.53-.56.76-.46.52-.61,1.09-.6,1.8.05,2.26.02,4.52.02,6.78,0,.41,0,.41-.41.41-1.76,0-3.52,0-5.28,0-.29,0-.37-.08-.36-.37.03-1.44.03-2.88.03-4.32,0-6.01,0-12.02,0-18.03,0-.34-.02-.68-.03-1.02,0-.18.06-.25.24-.25,1.84,0,3.68.02,5.52.01.24,0,.3.1.29.32,0,3.32,0,6.64,0,9.96,0,.08,0,.15,0,.23.02,0,.04.01.07.02Z"/>
        <path class="cls-1" d="m78.54,172.8c.18-.53.36-1.04.53-1.56,1.19-3.53,2.37-7.05,3.57-10.58,1.26-3.71,2.52-7.42,3.79-11.13q.23-.66.94-.66c1.82,0,3.64,0,5.46,0,.26,0,.38.07.47.33.65,1.96,1.33,3.91,1.99,5.87,1.72,5.11,3.43,10.21,5.15,15.32.24.73.5,1.45.74,2.18.02.07.04.15.06.25-.1.01-.18.03-.25.03-1.86,0-3.72,0-5.58,0-.22,0-.34-.05-.41-.29-.43-1.47-.88-2.94-1.34-4.41-.03-.09-.19-.21-.29-.21-2.36-.01-4.72,0-7.08-.01-.2,0-.28.09-.33.27-.43,1.44-.88,2.88-1.31,4.33-.06.21-.15.32-.39.32-1.87,0-3.74,0-5.61,0-.02,0-.04-.01-.12-.05Zm11.32-17.03s-.05,0-.08,0c-.8,2.6-1.61,5.2-2.42,7.82h4.92c-.81-2.63-1.61-5.23-2.42-7.82Z"/>
        <path class="cls-1" d="m39.65,153.46c-.01.1-.03.18-.03.25,0,1.22,0,2.44,0,3.66,0,.2.05.28.27.28,2.9,0,5.8,0,8.7,0,.13,0,.26-.02.41-.03v4.55c-.15,0-.29.02-.44.02-2.87,0-5.74.02-8.61.01-.26,0-.34.06-.34.33.01,1.77,0,3.54,0,5.31,0,.39,0,.39.39.39,3.16,0,6.32,0,9.48,0,.1,0,.2,0,.31.01.01.15.03.28.03.41,0,1.28,0,2.56,0,3.84,0,.24-.05.33-.32.33-5.21,0-10.42,0-15.63,0-.21,0-.28-.06-.28-.27,0-7.4,0-14.8.01-22.2,0-.39,0-.78-.01-1.17-.01-.26.06-.34.33-.34,4.98,0,9.96,0,14.94,0,.24,0,.48-.01.72.02.08,0,.2.13.2.21.02,1.37.01,2.74.02,4.11,0,.25-.14.25-.33.25-3.13,0-6.26,0-9.39,0-.15,0-.3,0-.46,0Z"/>
        <path class="cls-1" d="m286.62,153.46v2.83c0,.37.01.74,0,1.11,0,.22.07.27.28.27,1.36-.01,2.72-.01,4.08-.01,1.59,0,3.18,0,4.77,0,.24,0,.31.07.3.3-.01,1.32-.02,2.64,0,3.96,0,.25-.09.29-.32.29-2.87-.01-5.74-.01-8.61-.02-.15,0-.3,0-.49,0v.36c0,1.8,0,3.6,0,5.4,0,.29.1.34.36.33,3.16-.01,6.32,0,9.48-.02.32,0,.41.1.4.41-.01,1.27,0,2.54,0,3.81,0,.27-.05.38-.36.38-5.2,0-10.4,0-15.6,0-.08,0-.16,0-.27-.01v-.33c0-7.75,0-15.5,0-23.25,0-.29.08-.37.37-.37,2.01,0,4.02,0,6.03,0,3.14,0,6.28,0,9.42,0,.4,0,.41,0,.41.42,0,1.27,0,2.54.02,3.81,0,.27-.07.36-.36.36-3.19-.01-6.38,0-9.57,0-.09,0-.18,0-.31,0Z"/>
        <path class="cls-1" d="m193.31,165.04c0,2.5,0,4.95,0,7.39,0,.42,0,.42-.4.42-1.79,0-3.58,0-5.37,0-.08,0-.16,0-.28,0,0-.13,0-.23,0-.34,0-7.75,0-15.5,0-23.25,0-.28.06-.38.36-.38,3.32.02,6.64-.02,9.96.04,1.79.03,3.52.44,5.08,1.41,1.74,1.07,2.63,2.68,2.97,4.64.25,1.42.09,2.8-.29,4.18-.61,2.2-2,3.74-4,4.76-1.57.8-3.26,1.12-5.01,1.13-.9,0-1.8,0-2.7,0-.1,0-.2,0-.32,0Zm-.02-4.52c1.13-.03,2.21,0,3.28-.11.93-.1,1.77-.49,2.36-1.28.7-.95.69-2.04.54-3.11-.22-1.48-1.2-2.38-2.74-2.54-1.07-.11-2.16-.09-3.23-.13-.19,0-.2.09-.2.24,0,1.9,0,3.8,0,5.7,0,.39,0,.78,0,1.24Z"/>
        <path class="cls-1" d="m135.15,153.06h-3.46c0-.18,0-.33,0-.47,0-1.11.01-2.22,0-3.33,0-.31.09-.39.38-.39,2.44,0,4.88,0,7.32,0,1.64,0,3.28.01,4.92,0,.22,0,.29.06.29.29-.01,1.17-.02,2.34,0,3.51,0,.29-.05.4-.37.4-1-.02-2,0-3.02,0v15.57h3.33c.02.08.04.13.04.17,0,1.24.01,2.48.03,3.72,0,.25-.07.32-.32.32-4.1,0-8.2,0-12.3,0-.18,0-.3-.01-.3-.25.01-1.3,0-2.6,0-3.93h3.45v-15.61Z"/>
        <path class="cls-1" d="m274.51,157.71c0,2.59,0,5.18,0,7.77,0,1.39-.21,2.73-.88,3.97-1.02,1.88-2.68,2.91-4.71,3.4-1.67.4-3.37.44-5.07.32-1.09-.08-2.18-.25-3.27-.37-.19-.02-.29-.09-.29-.3,0-1.46,0-2.92,0-4.38,0-.07.14-.21.21-.2.22.01.44.04.64.12,1.27.53,2.6.7,3.96.6.52-.04,1.05-.15,1.54-.34,1.16-.45,1.6-1.45,1.72-2.6.09-.85.11-1.72.11-2.57.01-3.14,0-6.28,0-9.42q0-.46-.45-.46c-1.58,0-3.16,0-4.74,0-.23,0-.31-.05-.31-.3.01-1.26.01-2.52,0-3.78,0-.22.07-.3.29-.29,3.62,0,7.24,0,10.86,0,.29,0,.37.08.37.37-.01,2.82,0,5.64,0,8.46,0,0,0,0,0,0Z"/>
        <path class="cls-1" d="m135.2,146.38v-3.48c.16-.01.31-.03.46-.03,1.71,0,3.42,0,5.13,0,.26,0,.34.08.34.34-.01.98,0,1.96,0,2.94,0,.2-.05.28-.27.28-1.78-.02-3.56-.02-5.34-.03-.1,0-.19-.01-.31-.02Z"/>
      </g>
    </g>
  </g>
</svg>