<svg width="352" height="64" viewBox="0 0 352 64" fill="none" xmlns="http://www.w3.org/2000/svg">
<rect x="2.4104" y="2.37988" width="348.079" height="60.0143" rx="30.0071" stroke="#8062D6" stroke-width="3"/>
<path d="M36.6199 32.1024C38.435 32.1024 39.9065 30.7781 39.9065 29.1445C39.9065 27.5108 38.435 26.1865 36.6199 26.1865C34.8047 26.1865 33.3333 27.5108 33.3333 29.1445C33.3333 30.7781 34.8047 32.1024 36.6199 32.1024Z" stroke="#8062D6" stroke-width="3" stroke-linecap="round" stroke-linejoin="round"/>
<path d="M36.6197 19.6138C31.1763 19.6138 26.7599 23.7851 26.7599 28.9226C26.7599 34.8341 33.3331 44.2021 35.7467 47.4377C35.8469 47.5743 35.9782 47.6855 36.13 47.7621C36.2817 47.8387 36.4495 47.8787 36.6197 47.8787C36.79 47.8787 36.9578 47.8387 37.1095 47.7621C37.2613 47.6855 37.3926 47.5743 37.4928 47.4377C39.9064 44.2034 46.4796 34.8389 46.4796 28.9226C46.4796 23.7851 42.0632 19.6138 36.6197 19.6138Z" stroke="#8062D6" stroke-width="3" stroke-linecap="round" stroke-linejoin="round"/>
<path d="M79.9479 38.8852L79.6479 36.7852L79.7679 36.5252C81.3279 37.0852 82.8079 37.3652 84.1879 37.3652C86.1879 37.3652 87.1279 36.7652 87.1279 35.5452C87.1279 34.2452 86.3279 33.5852 84.0679 32.9252C80.8879 31.9852 79.5279 30.6052 79.5279 28.3652C79.5279 25.7052 81.4079 24.2852 84.9279 24.2852C86.2079 24.2852 87.3079 24.4452 88.8279 24.8652L89.1079 26.9252L88.9879 27.1852C87.6279 26.7452 86.3679 26.5252 85.1879 26.5252C83.2479 26.5252 82.2679 27.1252 82.2679 28.3052C82.2679 29.5252 83.2479 30.3452 85.4679 30.9852C88.5079 31.8452 89.9079 33.2452 89.9079 35.5052C89.8879 38.1652 87.9479 39.6052 84.3679 39.6052C82.8679 39.6052 81.3879 39.3652 79.9479 38.8852ZM92.5832 39.2852L92.5032 39.0852C92.5632 38.5852 92.6032 37.5852 92.6232 36.0852C92.6432 34.5852 92.6432 33.1252 92.6432 31.6652C92.6432 27.7852 92.6032 25.4252 92.5032 24.6052L92.5832 24.4052H95.1832L95.2432 24.6052C95.1832 25.2652 95.1432 26.5252 95.1432 28.3452C95.1432 28.8852 95.1232 29.5252 95.1032 30.2452H95.1832C96.0632 28.9052 97.4032 28.1852 99.0032 28.1852C101.343 28.1852 102.603 29.5452 102.603 32.1852V34.0252C102.603 36.6052 102.643 38.2852 102.723 39.0852L102.663 39.2852H100.063L100.003 39.0852C100.083 38.2852 100.123 36.6052 100.123 34.0252V32.7852C100.123 31.1652 99.4232 30.3652 98.0232 30.3652C96.2032 30.3652 95.1232 31.7852 95.1232 34.0252C95.1232 36.5252 95.1632 38.2252 95.2432 39.0852L95.1832 39.2852H92.5832ZM105.186 33.8852C105.186 30.4652 107.226 28.1852 110.646 28.1852C114.046 28.1852 116.126 30.4652 116.126 33.8852C116.126 37.3052 114.046 39.6052 110.646 39.6052C107.226 39.6052 105.186 37.3052 105.186 33.8852ZM113.546 33.8852C113.546 31.5452 112.506 30.2652 110.646 30.2652C108.786 30.2652 107.766 31.5452 107.766 33.8852C107.766 36.2252 108.786 37.5052 110.646 37.5052C112.506 37.5052 113.546 36.2252 113.546 33.8852ZM119.158 35.8652V30.4652H117.438V28.5052H119.138C119.118 27.7452 119.098 27.1052 119.038 26.6052L119.098 26.3852L121.538 25.8452L121.658 26.0452V28.5052H125.178L125.238 28.6852L125.018 30.4652H121.658V35.5252C121.658 37.0252 122.218 37.4852 123.318 37.4852C123.858 37.4852 124.538 37.3652 125.358 37.1252L125.438 37.3452L125.338 37.9252L125.138 39.2252C124.438 39.4852 123.658 39.6052 122.758 39.6052C120.278 39.6052 119.158 38.5852 119.158 35.8652ZM136.498 39.0852L136.418 39.2852H134.018L133.918 39.1052C133.958 38.6052 133.978 38.1452 133.958 37.7652L133.878 37.7452C132.938 38.9652 131.778 39.6052 130.178 39.6052C128.258 39.6052 127.118 38.4252 127.118 36.4852C127.118 34.0252 128.598 32.7852 131.558 32.7852C132.338 32.7852 133.118 32.8452 133.898 32.9852V32.4252C133.898 30.7652 133.238 30.1652 131.498 30.1652C130.518 30.1652 129.418 30.3652 128.158 30.7452L128.078 30.5452C128.238 29.7452 128.338 29.1252 128.398 28.6652C129.818 28.3452 131.098 28.1852 132.198 28.1852C135.058 28.1852 136.358 29.3452 136.358 31.9652V33.7652C136.358 34.9652 136.378 36.0652 136.398 37.0852C136.418 38.0852 136.458 38.7452 136.498 39.0852ZM133.898 35.1052V34.4852C133.258 34.3452 132.638 34.2852 132.038 34.2852C130.298 34.2852 129.518 34.8452 129.518 36.2652C129.518 37.2452 130.038 37.7252 131.058 37.7252C132.678 37.7252 133.898 36.4652 133.898 35.1052ZM145.95 39.2852L145.89 39.0852C145.99 38.3652 146.03 36.7252 146.03 34.1652L146.01 31.9452V30.6652C145.99 27.2452 145.95 25.3052 145.89 24.8052L145.95 24.6052H151.45C154.95 24.6052 156.71 26.0852 156.71 29.0652C156.71 31.2252 155.53 32.7652 153.61 33.2452L153.59 33.3052L154.15 34.1452L154.47 34.6252L157.31 39.0652L157.25 39.2852H154.33L150.89 33.6452H148.63C148.63 36.5052 148.67 38.3052 148.77 39.0852L148.71 39.2852H145.95ZM148.65 31.6252H151.03C152.95 31.6252 154.09 30.7652 154.09 29.0852C154.09 27.4652 153.13 26.6852 151.19 26.6852H148.69C148.67 28.2652 148.65 29.9052 148.65 31.6252ZM159.323 35.6052V33.7652C159.323 30.9652 159.283 29.2852 159.203 28.7052L159.263 28.5052H161.863L161.923 28.7052C161.843 29.4652 161.803 31.1452 161.803 33.7652V35.0452C161.803 36.7452 162.343 37.4052 163.703 37.4052C164.583 37.4052 165.303 37.0652 165.843 36.4052C166.383 35.7252 166.663 34.8452 166.663 33.7852C166.663 31.1052 166.623 29.4052 166.523 28.7052L166.603 28.5052H169.203L169.263 28.7052C169.183 29.2852 169.143 30.9652 169.143 33.7652C169.143 34.9852 169.163 36.1052 169.183 37.1052C169.203 38.1052 169.243 38.7652 169.283 39.0852L169.203 39.2852H166.763L166.663 39.1052C166.683 38.6852 166.703 38.3652 166.703 38.1452C166.703 37.8852 166.703 37.7052 166.683 37.5652L166.603 37.5452C165.643 38.9252 164.343 39.6052 162.683 39.6052C160.443 39.6052 159.323 38.2652 159.323 35.6052ZM172.189 39.1452L171.889 37.2252L171.989 37.0452C173.329 37.4652 174.169 37.6252 175.189 37.6252C176.709 37.6252 177.429 37.2252 177.429 36.3452C177.429 35.5252 176.669 34.9852 175.129 34.5852C172.669 33.9652 171.709 32.9252 171.709 31.1852C171.709 29.1852 173.069 28.1852 175.809 28.1852C176.929 28.1852 178.009 28.3252 179.069 28.6052L179.369 30.5252L179.269 30.7052C178.089 30.3652 177.209 30.1652 176.109 30.1652C174.849 30.1652 174.309 30.5252 174.309 31.3452C174.309 32.1252 174.869 32.4652 176.249 32.8852C178.909 33.6652 180.029 34.5652 180.029 36.4852C180.029 38.5452 178.489 39.6052 175.509 39.6052C174.409 39.6052 173.309 39.4452 172.189 39.1452ZM183.006 35.8652V30.4652H181.286V28.5052H182.986C182.966 27.7452 182.946 27.1052 182.886 26.6052L182.946 26.3852L185.386 25.8452L185.506 26.0452V28.5052H189.026L189.086 28.6852L188.866 30.4652H185.506V35.5252C185.506 37.0252 186.066 37.4852 187.166 37.4852C187.706 37.4852 188.386 37.3652 189.206 37.1252L189.286 37.3452L189.186 37.9252L188.986 39.2252C188.286 39.4852 187.506 39.6052 186.606 39.6052C184.126 39.6052 183.006 38.5852 183.006 35.8652ZM200.346 39.0852L200.266 39.2852H197.866L197.766 39.1052C197.806 38.6052 197.826 38.1452 197.806 37.7652L197.726 37.7452C196.786 38.9652 195.626 39.6052 194.026 39.6052C192.106 39.6052 190.966 38.4252 190.966 36.4852C190.966 34.0252 192.446 32.7852 195.406 32.7852C196.186 32.7852 196.966 32.8452 197.746 32.9852V32.4252C197.746 30.7652 197.086 30.1652 195.346 30.1652C194.366 30.1652 193.266 30.3652 192.006 30.7452L191.926 30.5452C192.086 29.7452 192.186 29.1252 192.246 28.6652C193.666 28.3452 194.946 28.1852 196.046 28.1852C198.906 28.1852 200.206 29.3452 200.206 31.9652V33.7652C200.206 34.9652 200.226 36.0652 200.246 37.0852C200.266 38.0852 200.306 38.7452 200.346 39.0852ZM197.746 35.1052V34.4852C197.106 34.3452 196.486 34.2852 195.886 34.2852C194.146 34.2852 193.366 34.8452 193.366 36.2652C193.366 37.2452 193.886 37.7252 194.906 37.7252C196.526 37.7252 197.746 36.4652 197.746 35.1052ZM206.364 39.2852L206.224 39.1052C205.084 36.0652 203.724 32.6052 202.124 28.7052L202.184 28.5052H204.844L206.664 33.6252L207.584 36.4252H207.664L208.584 33.6052L210.404 28.5052H213.064L213.144 28.7052C211.864 31.6652 210.464 35.1252 208.924 39.1052L208.764 39.2852H206.364ZM224.652 34.4452L224.552 34.6452L216.752 34.7652C217.012 36.7452 218.132 37.6252 220.292 37.6252C221.472 37.6252 222.632 37.4052 223.752 36.9852L223.852 37.1652L223.752 37.7452C223.692 38.0852 223.612 38.5052 223.552 39.0452C222.272 39.4252 221.052 39.6052 219.872 39.6052C216.092 39.6052 214.132 37.6852 214.132 33.9852C214.132 30.3652 216.192 28.1852 219.632 28.1852C223.092 28.1852 224.792 30.3052 224.652 34.4452ZM219.652 30.1052C217.892 30.1052 216.852 31.2652 216.712 33.2852L222.272 33.1052C222.292 31.1052 221.392 30.1052 219.652 30.1052ZM227.193 39.2852L227.113 39.0852C227.213 38.2852 227.253 36.3452 227.253 33.2652V31.8452L227.233 29.6652C227.213 26.7452 227.173 25.0652 227.113 24.6052L227.193 24.4052H229.793L229.853 24.6052C229.793 25.1052 229.753 27.0852 229.733 30.5452V31.8452L229.713 34.1252C229.713 36.7052 229.753 38.3652 229.853 39.0852L229.793 39.2852H227.193ZM232.596 25.7452C232.596 25.0052 233.276 24.5052 234.316 24.5052C235.356 24.5052 236.036 25.0052 236.036 25.7452C236.036 26.4652 235.356 26.9652 234.316 26.9652C233.276 26.9652 232.596 26.4652 232.596 25.7452ZM233.016 39.2852L232.956 39.0852C233.036 38.2652 233.076 36.5252 233.076 33.8852C233.076 31.2652 233.036 29.5252 232.956 28.7052L233.016 28.5052H235.616L235.676 28.7052C235.596 29.5252 235.556 31.2652 235.556 33.8852C235.556 36.5252 235.596 38.2652 235.676 39.0852L235.616 39.2852H233.016ZM239.813 36.1852H242.533L242.653 36.4452C241.673 38.8252 240.873 40.8852 240.253 42.6452H238.313C238.853 40.5452 239.353 38.3852 239.813 36.1852ZM254.287 39.2852L254.227 39.0852C254.307 38.4652 254.347 36.0852 254.347 31.9852V27.3652L250.747 28.7252L250.627 28.4852C250.647 28.3052 250.667 28.0652 250.727 27.7452L250.867 26.4252L255.127 24.6852H257.007L257.067 24.8852C257.007 25.3652 256.967 27.2852 256.947 30.6652V31.9452L256.927 34.1652C256.927 36.7252 256.967 38.3652 257.067 39.0852L257.007 39.2852H254.287ZM261.234 38.9052C261.174 38.4652 261.094 37.8052 260.954 36.9252L261.074 36.6852C262.094 37.1652 263.534 37.4652 264.794 37.4652C267.734 37.4652 268.774 35.8852 268.854 32.0452L268.794 32.0252C268.054 33.4652 266.554 34.3452 264.694 34.3452C261.754 34.3452 260.154 32.6452 260.154 29.6052C260.154 26.3852 262.094 24.5252 265.434 24.5252C269.414 24.5252 271.294 26.8452 271.294 31.6652C271.294 36.9652 269.254 39.6052 265.154 39.6052C263.814 39.6052 262.374 39.3652 261.234 38.9052ZM268.214 29.3252C268.214 28.2252 267.774 27.4052 266.974 26.9452C266.534 26.7052 266.014 26.5852 265.394 26.5852C263.494 26.5852 262.514 27.5852 262.514 29.5652C262.514 31.4252 263.414 32.3652 265.194 32.3652C267.094 32.3652 268.214 31.3052 268.214 29.3252ZM272.827 39.2852L272.747 39.0652C274.647 34.7252 276.567 29.9052 278.487 24.6052H280.747L280.827 24.8252C278.847 29.4452 276.927 34.2652 275.087 39.2852H272.827ZM282.043 39.2852L281.983 39.0852V37.4252C281.983 36.7452 282.143 36.1252 282.483 35.5452C282.823 34.9652 283.243 34.4652 283.723 34.0452C284.223 33.6052 284.883 33.0652 285.703 32.4452C286.443 31.9052 287.023 31.4452 287.443 31.0652C288.303 30.3252 288.963 29.3852 288.963 28.3452C288.963 27.2052 288.303 26.7252 286.643 26.7252C285.283 26.7252 284.063 27.0052 282.623 27.6652L282.523 27.4052C282.643 26.6252 282.743 25.9652 282.803 25.3852C284.203 24.8052 285.683 24.5252 287.223 24.5252C290.143 24.5252 291.603 25.6852 291.603 27.9852C291.603 28.8452 291.403 29.6452 291.003 30.3452C290.603 31.0452 290.123 31.6652 289.563 32.1852C289.003 32.6852 288.283 33.2652 287.403 33.9052C285.543 35.2852 284.703 36.0452 284.683 37.1052H291.703L291.823 37.3052L291.563 39.2852H282.043Z" fill="#8062D6"/>
</svg>
