<svg width="352" height="60" viewBox="0 0 352 60" fill="none" xmlns="http://www.w3.org/2000/svg">
<rect x="1.5" y="1.5" width="348.079" height="56.4439" rx="28.222" stroke="#8062D6" stroke-width="3"/>
<path d="M32.4249 56.765C32.4249 48.1606 32.4249 39.5563 32.4249 30.952C32.4249 24.678 33.9451 19.4795 44.5864 19.4795" stroke="#8062D6" stroke-width="3" stroke-linecap="round" stroke-linejoin="round"/>
<path d="M26.3441 33.8203H32.4249H44.5864" stroke="#8062D6" stroke-width="3" stroke-linecap="round" stroke-linejoin="round"/>
<path d="M132.227 28.7652H126.147L126.107 33.2852H131.527V35.4252H126.087C126.087 38.4252 126.127 40.3252 126.227 41.1252L126.167 41.3252H123.407L123.347 41.1252C123.447 40.4052 123.487 38.7652 123.487 36.2052L123.467 33.9852V32.7052C123.447 29.2852 123.407 27.3452 123.347 26.8452L123.407 26.6452H132.067C132.167 27.5052 132.267 28.1452 132.327 28.5652L132.227 28.7652ZM146.446 41.1052L146.386 41.3252H143.766L142.686 38.2452H136.426L135.346 41.3252H132.726L132.646 41.1052C134.566 36.2852 136.406 31.5252 138.146 26.8052L138.306 26.6452H140.886L141.046 26.8052C143.106 32.4252 144.906 37.1852 146.446 41.1052ZM137.166 36.1852H141.946L140.466 31.9852C140.166 31.1252 139.886 30.2052 139.606 29.1852H139.546C139.326 29.9652 139.026 30.8852 138.646 31.9652L137.166 36.1852ZM147.532 33.9452C147.532 29.1452 150.152 26.3252 154.512 26.3252C155.832 26.3252 157.072 26.4852 158.252 26.8052L158.532 28.8652L158.412 29.1252C157.212 28.7452 155.832 28.5652 154.712 28.5652C151.772 28.5652 150.232 30.4452 150.232 33.9852C150.232 37.5052 151.752 39.4052 154.772 39.4052C156.152 39.4052 157.412 39.2252 158.572 38.8452L158.692 39.1052L158.412 41.1652C157.232 41.4852 155.952 41.6452 154.532 41.6452C152.292 41.6452 150.572 40.9652 149.352 39.6052C148.132 38.2452 147.532 36.3652 147.532 33.9452ZM170.874 39.2052L170.974 39.4052C170.914 39.8252 170.814 40.4652 170.714 41.3252H161.454L161.394 41.1252C161.494 40.4052 161.534 38.7652 161.534 36.2052L161.514 33.9852V32.7052C161.494 29.2852 161.454 27.3452 161.394 26.8452L161.454 26.6452H170.474C170.574 27.5052 170.674 28.1452 170.734 28.5652L170.634 28.7652H164.194L164.154 32.8452H169.914L169.894 33.8852L169.914 34.9452H164.154V36.3852C164.154 37.7652 164.154 38.7052 164.174 39.2052H170.874ZM173.622 41.3252L173.562 41.1252C173.662 40.3452 173.702 38.6852 173.702 36.1452L173.682 33.9852V32.7052C173.662 29.2852 173.622 27.3452 173.562 26.8452L173.622 26.6452H179.322C182.382 26.6452 184.022 27.9052 184.022 30.2852C184.022 31.8852 183.202 33.1052 181.922 33.5052V33.5652C183.602 33.9452 184.622 35.2452 184.622 37.0252C184.622 39.7452 182.742 41.3252 179.482 41.3252H173.622ZM176.322 32.8252H178.702C180.642 32.8252 181.482 32.1252 181.482 30.5852C181.482 29.3252 180.642 28.6652 179.042 28.6652H176.342C176.322 29.5252 176.322 30.9252 176.322 32.8252ZM176.322 39.3052H179.162C181.002 39.3052 182.002 38.5052 182.002 36.9852C182.002 35.4652 181.062 34.6652 179.242 34.6652H176.302V36.1652C176.302 37.6652 176.302 38.7252 176.322 39.3052ZM186.594 33.9852C186.594 29.3252 189.094 26.3252 193.414 26.3252C197.674 26.3252 200.214 29.3252 200.214 33.9852C200.214 38.6052 197.514 41.6452 193.414 41.6452C189.094 41.6452 186.594 38.6452 186.594 33.9852ZM197.494 33.9852C197.494 30.5652 196.074 28.6052 193.414 28.6052C190.754 28.6052 189.334 30.5652 189.334 33.9852C189.334 37.4052 190.754 39.3652 193.414 39.3652C196.074 39.3652 197.494 37.4052 197.494 33.9852ZM202.59 33.9852C202.59 29.3252 205.09 26.3252 209.41 26.3252C213.67 26.3252 216.21 29.3252 216.21 33.9852C216.21 38.6052 213.51 41.6452 209.41 41.6452C205.09 41.6452 202.59 38.6452 202.59 33.9852ZM213.49 33.9852C213.49 30.5652 212.07 28.6052 209.41 28.6052C206.75 28.6052 205.33 30.5652 205.33 33.9852C205.33 37.4052 206.75 39.3652 209.41 39.3652C212.07 39.3652 213.49 37.4052 213.49 33.9852ZM219.286 41.3252L219.226 41.1252C219.326 40.4052 219.366 38.7652 219.366 36.2052L219.346 33.9852V32.7052C219.326 29.2852 219.286 27.3452 219.226 26.8452L219.286 26.6452H222.026L222.106 26.8452C222.046 27.2452 222.006 28.6252 221.986 30.9852L221.966 32.7452H223.606L228.006 26.6452H230.986L231.066 26.8852L226.046 33.6852L231.406 41.1052L231.346 41.3252H228.326L223.666 35.0052H221.966V36.1852C221.966 38.7652 222.006 40.4052 222.106 41.1252L222.026 41.3252H219.286Z" fill="#8062D6"/>
</svg>
