<svg width="109" height="96" viewBox="0 0 109 96" fill="none" xmlns="http://www.w3.org/2000/svg">
<path d="M79.6567 34.1096L79.6567 34.1116L79.6567 47.6059L79.6567 60.9577L79.6567 60.9595C79.6581 61.3353 79.5867 61.7076 79.4467 62.0553C79.3067 62.4031 79.1009 62.7193 78.8409 62.9859C78.581 63.2526 78.272 63.4645 77.9317 63.6096C77.5913 63.7546 77.2263 63.8299 76.8573 63.8313C76.4884 63.8326 76.1228 63.7599 75.7815 63.6173C75.4401 63.4747 75.1297 63.265 74.8679 63.0002C74.6061 62.7354 74.3981 62.4207 74.2557 62.074C74.1135 61.7277 74.0395 61.3562 74.0381 60.9808C74.0381 60.9804 74.0381 60.98 74.0381 60.9797L74.0381 50.9082V50.4082H73.5472H35.764H35.2731V50.9082L35.2731 60.8389L35.2731 60.841C35.2754 61.409 35.1116 61.9649 34.8025 62.4377C34.4935 62.9105 34.0532 63.2789 33.5378 63.4958C33.0224 63.7127 32.4553 63.7684 31.9087 63.6558C31.3622 63.5431 30.8609 63.2672 30.4689 62.8632L30.4683 62.8626C30.2068 62.5939 30.0001 62.275 29.8604 61.9245C29.7207 61.5739 29.6507 61.1985 29.6544 60.8201V60.8151L29.6544 47.4634L29.6544 34.1116L29.6544 34.1095C29.6529 33.732 29.7248 33.3579 29.8659 33.0088C30.007 32.6597 30.2146 32.3426 30.4767 32.0756C30.7388 31.8087 31.0501 31.5972 31.3928 31.4535C31.7355 31.3097 32.1028 31.2365 32.4734 31.238L32.474 31.238C33.2157 31.2403 33.9264 31.5414 34.4508 32.0756C34.9751 32.6097 35.2707 33.3333 35.2731 34.0885C35.2731 34.0888 35.2731 34.089 35.2731 34.0893L35.2731 44.1611V44.6611H35.764L73.5472 44.6611H74.0381V44.1611L74.0381 34.0893C74.0381 34.089 74.0381 34.0886 74.0381 34.0883C74.0405 33.3331 74.3361 32.6096 74.8603 32.0756C75.3848 31.5414 76.0955 31.2403 76.8372 31.238L76.8378 31.238C77.2084 31.2365 77.5756 31.3097 77.9183 31.4535C78.261 31.5972 78.5724 31.8087 78.8345 32.0756C79.0965 32.3426 79.3041 32.6597 79.4453 33.0088C79.5864 33.3579 79.6583 33.732 79.6567 34.1096ZM17.2914 56.2823L17.2874 56.2782C17.0246 56.0136 16.8157 55.6988 16.6726 55.3518C16.5297 55.0051 16.4553 54.6331 16.4536 54.2571C16.4536 54.2567 16.4536 54.2564 16.4536 54.256L16.4536 40.8112C16.4536 40.0491 16.7508 39.3182 17.2799 38.7793C17.8089 38.2404 18.5264 37.9377 19.2746 37.9377C20.0228 37.9377 20.7403 38.2404 21.2694 38.7793C21.7984 39.3182 22.0956 40.0491 22.0956 40.8112L22.0956 54.258L22.0956 54.2601C22.0971 54.6376 22.0253 55.0117 21.8841 55.3608C21.743 55.7099 21.5354 56.0271 21.2733 56.294C21.0113 56.561 20.6999 56.7724 20.3572 56.9162C20.0145 57.0599 19.6473 57.1332 19.2766 57.1316L19.2746 57.6316L19.2766 57.1316C18.9071 57.1301 18.5416 57.0543 18.2009 56.9085C17.8602 56.7628 17.5512 56.55 17.2914 56.2823ZM92.8576 54.2581L92.8576 54.2601C92.8591 54.6376 92.7872 55.0117 92.6461 55.3608C92.5049 55.7099 92.2974 56.0271 92.0353 56.294C91.7732 56.561 91.4618 56.7724 91.1191 56.9162C90.7764 57.06 90.4092 57.1332 90.0386 57.1316L90.0345 57.1316C89.6639 57.1332 89.2967 57.06 88.954 56.9162C88.6113 56.7724 88.2999 56.561 88.0378 56.294C87.7758 56.0271 87.5682 55.7099 87.427 55.3608C87.2859 55.0117 87.214 54.6376 87.2156 54.2601L87.2156 54.2581L87.2155 40.8112C87.2155 40.0491 87.5128 39.3182 88.0418 38.7793C88.5708 38.2404 89.2884 37.9377 90.0365 37.9377C90.7847 37.9377 91.5023 38.2404 92.0313 38.7793C92.5603 39.3182 92.8576 40.0491 92.8576 40.8112L92.8576 54.2581Z" fill="#FFD2D7" stroke="#FFD2D7"/>
</svg>
