<svg width="67" height="62" viewBox="0 0 67 62" fill="none" xmlns="http://www.w3.org/2000/svg">
<path d="M66.5223 53.5224L46.0096 30.0328C45.833 29.8301 45.6163 29.6678 45.3737 29.5566C45.1311 29.4453 44.8681 29.3877 44.602 29.3874L35.9428 29.3707V17.8622H39.6515C40.0516 17.8622 40.4413 17.7327 40.7645 17.4926C41.0878 17.2524 41.3278 16.914 41.4501 16.526C41.5723 16.138 41.5706 15.7204 41.445 15.3335C41.3193 14.9466 41.0764 14.6103 40.7511 14.373L21.8708 0.602067C21.5501 0.368034 21.1654 0.242187 20.7709 0.242188C20.3763 0.242187 19.9917 0.368034 19.6709 0.602067L0.789351 14.3717C0.464082 14.6089 0.221145 14.9452 0.0955373 15.3321C-0.0300706 15.7191 -0.0318649 16.1366 0.0904138 16.5246C0.212692 16.9126 0.452732 17.2511 0.775949 17.4912C1.09917 17.7314 1.48888 17.8608 1.88894 17.8609H5.59699V61.8062H9.37557V39.6681H10.8588V61.8062H14.6373V56.5966H26.9019V61.8063H30.6805V39.6681H32.1637V61.8062H35.9423V39.9555H40.763L58.7554 60.5617C59.0883 60.9429 59.5563 61.1739 60.0564 61.2037C60.0937 61.2058 60.1295 61.207 60.1667 61.207C60.6297 61.2068 61.0766 61.0335 61.4225 60.72L66.3661 56.2397C66.5516 56.0718 66.7027 55.8682 66.8109 55.6408C66.9191 55.4133 66.9823 55.1664 66.9968 54.914C67.0113 54.6617 66.9768 54.4089 66.8954 54.1702C66.814 53.9314 66.6872 53.7113 66.5223 53.5224ZM9.37555 17.8609H32.1637V35.8191H28.7912V30.8032C28.7928 29.7291 28.5866 28.6652 28.1842 27.6724C27.7819 26.6796 27.1913 25.7773 26.4463 25.0172C25.7013 24.2571 24.8164 23.6541 23.8424 23.2427C22.8684 22.8312 21.8243 22.6195 20.7699 22.6195C19.7154 22.6195 18.6713 22.8312 17.6973 23.2427C16.7233 23.6541 15.8385 24.2571 15.0935 25.0172C14.3485 25.7773 13.7579 26.6796 13.3555 27.6724C12.9532 28.6652 12.7469 29.7291 12.7486 30.8032V35.8191H9.37629V17.8609H9.37555ZM14.6379 52.7476V47.9196H26.9026V52.7476H14.6379ZM26.9019 44.0707H14.6379V39.6686H26.9026V44.0706L26.9019 44.0707ZM60.3229 56.5652L43.0234 36.7519C42.8462 36.549 42.6288 36.3865 42.3855 36.2753C42.1422 36.1641 41.8786 36.1065 41.6119 36.1066H36.1715V33.2198L43.7488 33.2339L62.4432 54.6433L60.3229 56.5652Z" fill="#8062D6"/>
</svg>
