<svg width="352" height="64" viewBox="0 0 352 64" fill="none" xmlns="http://www.w3.org/2000/svg">
<rect x="1.5" y="1.5" width="348.079" height="60.0143" rx="30.0071" stroke="#8062D6" stroke-width="3"/>
<path d="M51.3809 17.5669L15.8085 29.8804L28.122 33.9849M51.3809 17.5669L28.122 33.9849M51.3809 17.5669L40.4356 46.2985L28.122 33.9849" stroke="#8062D6" stroke-width="3" stroke-linecap="round" stroke-linejoin="round"/>
<path d="M127.346 23.7253L127.326 24.7453L127.346 25.7653L127.226 25.9653H122.826C122.806 26.7853 122.786 28.4853 122.786 31.0653L122.766 33.2853C122.766 35.8453 122.806 37.4853 122.906 38.2053L122.846 38.4053H120.086L120.026 38.2053C120.126 37.4853 120.166 35.8453 120.166 33.2853L120.146 31.0653C120.146 30.0053 120.146 29.2453 120.126 28.7853C120.126 27.4053 120.126 26.4653 120.106 25.9653H115.706L115.586 25.7653C115.606 25.5453 115.606 25.2053 115.606 24.7453C115.606 24.2853 115.606 23.9453 115.586 23.7253H127.346ZM139.007 36.2853L139.107 36.4853C139.047 36.9053 138.947 37.5453 138.847 38.4053H129.587L129.527 38.2053C129.627 37.4853 129.667 35.8453 129.667 33.2853L129.647 31.0653V29.7853C129.627 26.3653 129.587 24.4253 129.527 23.9253L129.587 23.7253H138.607C138.707 24.5853 138.807 25.2253 138.867 25.6453L138.767 25.8453H132.327L132.287 29.9253H138.047L138.027 30.9653L138.047 32.0253H132.287V33.4653C132.287 34.8453 132.287 35.7853 132.307 36.2853H139.007ZM151.235 36.1653L151.335 36.3653C151.255 36.8253 151.155 37.5053 151.055 38.4053H141.755L141.695 38.2053C141.795 37.4853 141.835 35.8453 141.835 33.2853L141.815 31.0653V29.7853C141.795 26.3653 141.755 24.4253 141.695 23.9253L141.755 23.7253H144.515L144.575 23.9253C144.515 24.4253 144.475 26.3653 144.455 29.7853V31.0653L144.435 33.4653C144.435 34.2853 144.455 35.1853 144.475 36.1653H151.235ZM163.206 36.2853L163.306 36.4853C163.246 36.9053 163.146 37.5453 163.046 38.4053H153.786L153.726 38.2053C153.826 37.4853 153.866 35.8453 153.866 33.2853L153.846 31.0653V29.7853C153.826 26.3653 153.786 24.4253 153.726 23.9253L153.786 23.7253H162.806C162.906 24.5853 163.006 25.2253 163.066 25.6453L162.966 25.8453H156.526L156.486 29.9253H162.246L162.226 30.9653L162.246 32.0253H156.486V33.4653C156.486 34.8453 156.486 35.7853 156.506 36.2853H163.206ZM165.254 31.0653C165.254 26.1653 167.874 23.4053 172.734 23.4053C174.074 23.4053 175.734 23.6053 176.834 23.9453L176.934 24.6253C176.994 25.1853 177.074 25.6453 177.134 25.9853L177.014 26.2253C175.874 25.8453 174.294 25.6453 173.074 25.6453C169.574 25.6453 167.954 27.4253 167.954 31.1053C167.954 34.7853 169.534 36.5053 172.894 36.5053C173.774 36.5053 174.854 36.4053 175.594 36.2253C175.614 35.7653 175.634 35.1053 175.634 34.2453C175.634 33.3653 175.614 32.7053 175.594 32.2653H172.434L172.334 32.0653C172.434 31.4853 172.514 30.9053 172.574 30.3253H177.614L177.734 30.5253C177.714 31.3253 177.714 32.5253 177.714 34.1253C177.714 35.7253 177.714 36.9253 177.734 37.7253L177.634 37.9253C176.294 38.4253 174.274 38.7253 172.434 38.7253C167.814 38.7253 165.254 35.9453 165.254 31.0653ZM181.208 38.4053L181.148 38.2053C181.248 37.4853 181.288 35.8453 181.288 33.2853L181.268 31.0653V29.7853C181.248 26.3653 181.208 24.4253 181.148 23.9253L181.208 23.7253H186.708C190.208 23.7253 191.968 25.2053 191.968 28.1853C191.968 30.3453 190.788 31.8853 188.868 32.3653L188.848 32.4253L189.408 33.2653L189.728 33.7453L192.568 38.1853L192.508 38.4053H189.588L186.148 32.7653H183.888C183.888 35.6253 183.928 37.4253 184.028 38.2053L183.968 38.4053H181.208ZM183.908 30.7453H186.288C188.208 30.7453 189.348 29.8853 189.348 28.2053C189.348 26.5853 188.388 25.8053 186.448 25.8053H183.948C183.928 27.3853 183.908 29.0253 183.908 30.7453ZM207.586 38.1853L207.526 38.4053H204.906L203.826 35.3253H197.566L196.486 38.4053H193.866L193.786 38.1853C195.706 33.3653 197.546 28.6053 199.286 23.8853L199.446 23.7253H202.026L202.186 23.8853C204.246 29.5053 206.046 34.2653 207.586 38.1853ZM198.306 33.2653H203.086L201.606 29.0653C201.306 28.2053 201.026 27.2853 200.746 26.2653H200.686C200.466 27.0453 200.166 27.9653 199.786 29.0453L198.306 33.2653ZM209.704 38.4053L209.644 38.2053C209.744 37.4853 209.784 35.8453 209.784 33.2853L209.764 31.0653V29.7853C209.744 26.3653 209.704 24.4253 209.644 23.9253L209.704 23.7253H213.184L215.904 29.0253C216.324 29.8053 216.744 30.7253 217.204 31.7853H217.264C217.704 30.7653 218.144 29.8453 218.564 29.0053L221.244 23.7253H224.724L224.784 23.9253C224.724 24.4253 224.684 26.3653 224.664 29.7853V31.0653L224.644 33.2853C224.644 35.8453 224.684 37.4853 224.784 38.2053L224.724 38.4053H222.044L221.984 38.2053C222.064 37.3453 222.104 35.6053 222.104 32.9453V31.6853C222.084 30.7853 222.124 29.4253 222.184 27.6053L222.204 26.9453H222.124C221.984 27.2653 221.704 27.8453 221.284 28.6653L220.944 29.3453L218.104 34.7853C217.904 34.7653 217.604 34.7653 217.224 34.7653C216.844 34.7653 216.564 34.7653 216.364 34.7853L213.544 29.4453C213.324 29.0253 213.004 28.4053 212.604 27.5453L212.304 26.9453H212.224C212.284 28.7453 212.324 30.1253 212.324 31.1053C212.324 35.0453 212.364 37.4253 212.444 38.2053L212.384 38.4053H209.704Z" fill="#8062D6"/>
</svg>
