<svg width="56" height="57" viewBox="0 0 56 57" fill="none" xmlns="http://www.w3.org/2000/svg">
<path d="M55.9511 56.26H0.00492903V52.5433H55.9511V56.26ZM55.9511 46.7453H27.2214L17.3726 36.7103L19.951 34.0839L28.732 43.0287H55.9511V46.7453ZM32.1374 54.4017H28.4887V44.887H32.1374V54.4017ZM50.7943 54.4017H47.1457V44.887H50.7943V54.4017ZM7.88602 55.4819L4.4806 54.2035L17.0684 18.8803L20.4982 20.149L7.88602 55.4819ZM24.203 1.42946L26.1008 2.13281C35.5968 5.68359 40.4906 16.385 37.0462 26.0738L37.0456 26.0752L36.3552 28.0083L0 14.5345L0.690419 12.6014C4.15463 2.90245 14.6816 -2.09942 24.203 1.42946ZM34.0887 23.2122C35.8017 15.8567 31.9173 8.27037 24.853 5.62643L24.8508 5.62558L22.9553 4.92308C15.8692 2.30328 8.09161 5.57652 4.79831 12.2831L4.76904 12.346L34.0887 23.2122Z" fill="#8062D6"/>
</svg>
