<svg width="352" height="64" viewBox="0 0 352 64" fill="none" xmlns="http://www.w3.org/2000/svg">
<path d="M31.9278 1.74658H319.993C336.565 1.74658 350 15.1812 350 31.7537C350 48.3262 336.565 61.7608 319.993 61.7608H31.9278C15.3553 61.7608 1.92065 48.3262 1.92065 31.7537C1.92065 15.1812 15.3553 1.74658 31.9278 1.74658Z" stroke="#8062D6" stroke-width="3"/>
<path d="M40.3758 43.4651C47.0923 43.4651 52.5373 38.0201 52.5373 31.3036C52.5373 24.587 47.0923 19.1421 40.3758 19.1421C33.6591 19.1421 28.2142 24.587 28.2142 31.3036C28.2142 38.0201 33.6591 43.4651 40.3758 43.4651Z" stroke="#8062D6" stroke-width="3" stroke-linecap="round" stroke-linejoin="round"/>
<path d="M57.0978 14.6127L57.1289 14.5781" stroke="#8062D6" stroke-width="3" stroke-linecap="round" stroke-linejoin="round"/>
<path d="M122.016 39.5522L121.956 39.3522C122.056 38.6322 122.096 36.9922 122.096 34.4322L122.076 32.2122V30.9322C122.056 27.5122 122.016 25.5722 121.956 25.0722L122.016 24.8722H124.776L124.836 25.0722C124.776 25.5722 124.736 27.5122 124.716 30.9322V32.2122L124.696 34.4322C124.696 36.9922 124.736 38.6322 124.836 39.3522L124.776 39.5522H122.016ZM128.54 39.5522L128.48 39.3522C128.58 38.6322 128.62 36.9922 128.62 34.4322L128.6 32.2122V30.9322C128.58 27.5122 128.54 25.5722 128.48 25.0722L128.54 24.8722H131.96L136.78 33.2522C137.08 33.7522 137.56 34.6122 138.2 35.7922C138.3 36.0122 138.4 36.1522 138.46 36.2922H138.52C138.46 35.4322 138.44 34.1722 138.44 32.5122C138.42 32.2922 138.42 31.9322 138.42 31.4722L138.4 29.2322C138.38 26.8722 138.34 25.4922 138.3 25.0722L138.36 24.8722H141.02L141.08 25.0722C141.04 25.3922 141.02 26.1122 141 27.2122C140.98 28.3122 140.98 29.0122 140.98 29.3122C140.98 30.5322 140.98 31.5122 140.96 32.2122L140.94 34.4322C140.94 36.9922 140.98 38.6322 141.08 39.3522L141.02 39.5522H137.64L132.76 31.1122C132.32 30.3522 131.78 29.3722 131.14 28.1722H131.08C131.12 29.1722 131.14 30.4322 131.14 31.9722V32.9722V34.1922C131.14 36.7722 131.18 38.4922 131.26 39.3522L131.2 39.5522H128.54ZM144.51 39.1522L144.21 37.0522L144.33 36.7922C145.89 37.3522 147.37 37.6322 148.75 37.6322C150.75 37.6322 151.69 37.0322 151.69 35.8122C151.69 34.5122 150.89 33.8522 148.63 33.1922C145.45 32.2522 144.09 30.8722 144.09 28.6322C144.09 25.9722 145.97 24.5522 149.49 24.5522C150.77 24.5522 151.87 24.7122 153.39 25.1322L153.67 27.1922L153.55 27.4522C152.19 27.0122 150.93 26.7922 149.75 26.7922C147.81 26.7922 146.83 27.3922 146.83 28.5722C146.83 29.7922 147.81 30.6122 150.03 31.2522C153.07 32.1122 154.47 33.5122 154.47 35.7722C154.45 38.4322 152.51 39.8722 148.93 39.8722C147.43 39.8722 145.95 39.6322 144.51 39.1522ZM167.471 24.8722L167.451 25.8922L167.471 26.9122L167.351 27.1122H162.951C162.931 27.9322 162.911 29.6322 162.911 32.2122L162.891 34.4322C162.891 36.9922 162.931 38.6322 163.031 39.3522L162.971 39.5522H160.211L160.151 39.3522C160.251 38.6322 160.291 36.9922 160.291 34.4322L160.271 32.2122C160.271 31.1522 160.271 30.3922 160.251 29.9322C160.251 28.5522 160.251 27.6122 160.231 27.1122H155.831L155.711 26.9122C155.731 26.6922 155.731 26.3522 155.731 25.8922C155.731 25.4322 155.731 25.0922 155.711 24.8722H167.471ZM180.953 39.3322L180.893 39.5522H178.273L177.193 36.4722H170.933L169.853 39.5522H167.233L167.153 39.3322C169.073 34.5122 170.913 29.7522 172.653 25.0322L172.813 24.8722H175.393L175.553 25.0322C177.613 30.6522 179.413 35.4122 180.953 39.3322ZM171.673 34.4122H176.453L174.973 30.2122C174.673 29.3522 174.393 28.4322 174.113 27.4122H174.053C173.833 28.1922 173.533 29.1122 173.153 30.1922L171.673 34.4122ZM182.039 32.2122C182.039 27.3122 184.659 24.5522 189.519 24.5522C190.859 24.5522 192.519 24.7522 193.619 25.0922L193.719 25.7722C193.779 26.3322 193.859 26.7922 193.919 27.1322L193.799 27.3722C192.659 26.9922 191.079 26.7922 189.859 26.7922C186.359 26.7922 184.739 28.5722 184.739 32.2522C184.739 35.9322 186.319 37.6522 189.679 37.6522C190.559 37.6522 191.639 37.5522 192.379 37.3722C192.399 36.9122 192.419 36.2522 192.419 35.3922C192.419 34.5122 192.399 33.8522 192.379 33.4122H189.219L189.119 33.2122C189.219 32.6322 189.299 32.0522 189.359 31.4722H194.399L194.519 31.6722C194.499 32.4722 194.499 33.6722 194.499 35.2722C194.499 36.8722 194.499 38.0722 194.519 38.8722L194.419 39.0722C193.079 39.5722 191.059 39.8722 189.219 39.8722C184.599 39.8722 182.039 37.0922 182.039 32.2122ZM197.993 39.5522L197.933 39.3522C198.033 38.6322 198.073 36.9922 198.073 34.4322L198.053 32.2122V30.9322C198.033 27.5122 197.993 25.5722 197.933 25.0722L197.993 24.8722H203.493C206.993 24.8722 208.753 26.3522 208.753 29.3322C208.753 31.4922 207.573 33.0322 205.653 33.5122L205.633 33.5722L206.193 34.4122L206.513 34.8922L209.353 39.3322L209.293 39.5522H206.373L202.933 33.9122H200.673C200.673 36.7722 200.713 38.5722 200.813 39.3522L200.753 39.5522H197.993ZM200.693 31.8922H203.073C204.993 31.8922 206.133 31.0322 206.133 29.3522C206.133 27.7322 205.173 26.9522 203.233 26.9522H200.733C200.713 28.5322 200.693 30.1722 200.693 31.8922ZM224.371 39.3322L224.311 39.5522H221.691L220.611 36.4722H214.351L213.271 39.5522H210.651L210.571 39.3322C212.491 34.5122 214.331 29.7522 216.071 25.0322L216.231 24.8722H218.811L218.971 25.0322C221.031 30.6522 222.831 35.4122 224.371 39.3322ZM215.091 34.4122H219.871L218.391 30.2122C218.091 29.3522 217.811 28.4322 217.531 27.4122H217.471C217.251 28.1922 216.951 29.1122 216.571 30.1922L215.091 34.4122ZM226.489 39.5522L226.429 39.3522C226.529 38.6322 226.569 36.9922 226.569 34.4322L226.549 32.2122V30.9322C226.529 27.5122 226.489 25.5722 226.429 25.0722L226.489 24.8722H229.969L232.689 30.1722C233.109 30.9522 233.529 31.8722 233.989 32.9322H234.049C234.489 31.9122 234.929 30.9922 235.349 30.1522L238.029 24.8722H241.509L241.569 25.0722C241.509 25.5722 241.469 27.5122 241.449 30.9322V32.2122L241.429 34.4322C241.429 36.9922 241.469 38.6322 241.569 39.3522L241.509 39.5522H238.829L238.769 39.3522C238.849 38.4922 238.889 36.7522 238.889 34.0922V32.8322C238.869 31.9322 238.909 30.5722 238.969 28.7522L238.989 28.0922H238.909C238.769 28.4122 238.489 28.9922 238.069 29.8122L237.729 30.4922L234.889 35.9322C234.689 35.9122 234.389 35.9122 234.009 35.9122C233.629 35.9122 233.349 35.9122 233.149 35.9322L230.329 30.5922C230.109 30.1722 229.789 29.5522 229.389 28.6922L229.089 28.0922H229.009C229.069 29.8922 229.109 31.2722 229.109 32.2522C229.109 36.1922 229.149 38.5722 229.229 39.3522L229.169 39.5522H226.489Z" fill="#8062D6"/>
</svg>
