<svg width="82" height="84" viewBox="0 0 82 84" fill="none" xmlns="http://www.w3.org/2000/svg">
<path d="M60.8508 15.6684C60.5775 15.6684 60.3041 15.5988 60.065 15.4596C53.505 12.0141 47.8333 10.5524 41.0341 10.5524C34.2691 10.5524 27.8458 12.1881 22.0033 15.4596C21.1833 15.9121 20.1583 15.5988 19.68 14.7636C19.2358 13.9283 19.5433 12.8494 20.3633 12.3969C26.7183 8.8818 33.6883 7.07202 41.0341 7.07202C48.3116 7.07202 54.6666 8.70778 61.6366 12.3621C62.4908 12.8146 62.7983 13.8587 62.3541 14.694C62.0466 15.3204 61.4658 15.6684 60.8508 15.6684ZM11.9583 33.9402C11.6166 33.9402 11.275 33.8358 10.9675 33.627C10.1816 33.0701 10.0108 31.9912 10.5575 31.1907C13.94 26.3183 18.245 22.4899 23.37 19.81C34.0983 14.1719 47.8333 14.1371 58.5958 19.7752C63.7208 22.4551 68.0258 26.2487 71.4083 31.0863C71.955 31.852 71.7841 32.9657 70.9983 33.5226C70.2125 34.0794 69.1533 33.9054 68.6066 33.1049C65.5316 28.7197 61.6366 25.2742 57.0241 22.8727C47.2183 17.7566 34.6791 17.7566 24.9075 22.9075C20.2608 25.3438 16.3658 28.8241 13.2908 33.2093C13.0175 33.6966 12.505 33.9402 11.9583 33.9402ZM33.3125 75.9479C32.8683 75.9479 32.4241 75.7738 32.1166 75.4258C29.1441 72.3979 27.5383 70.4489 25.2491 66.2377C22.8916 61.9569 21.6616 56.7364 21.6616 51.1331C21.6616 40.7965 30.34 32.3741 41 32.3741C51.66 32.3741 60.3383 40.7965 60.3383 51.1331C60.3383 52.1076 59.5866 52.8732 58.63 52.8732C57.6733 52.8732 56.9216 52.1076 56.9216 51.1331C56.9216 42.7106 49.7808 35.8544 41 35.8544C32.2191 35.8544 25.0783 42.7106 25.0783 51.1331C25.0783 56.1447 26.1716 60.7736 28.2558 64.5323C30.4425 68.5347 31.9458 70.2401 34.5766 72.9548C35.2258 73.6508 35.2258 74.7297 34.5766 75.4258C34.2008 75.7738 33.7566 75.9479 33.3125 75.9479ZM57.81 69.5092C53.7441 69.5092 50.1566 68.4651 47.2183 66.4117C42.1275 62.8966 39.0866 57.1888 39.0866 51.1331C39.0866 50.1586 39.8383 49.3929 40.795 49.3929C41.7516 49.3929 42.5033 50.1586 42.5033 51.1331C42.5033 56.0403 44.9633 60.6692 49.1316 63.523C51.5575 65.1936 54.3933 65.9941 57.81 65.9941C58.63 65.9941 59.9966 65.8897 61.3633 65.6461C62.2858 65.472 63.1741 66.0985 63.345 67.073C63.5158 68.0127 62.9008 68.9176 61.9441 69.0916C59.9966 69.4744 58.2883 69.5092 57.81 69.5092ZM50.9425 76.6787C50.8058 76.6787 50.635 76.6439 50.4983 76.6091C45.0658 75.0778 41.5125 73.0244 37.7883 69.3004C33.005 64.4627 30.3741 58.0241 30.3741 51.1331C30.3741 45.4949 35.0891 40.9009 40.8975 40.9009C46.7058 40.9009 51.4208 45.4949 51.4208 51.1331C51.4208 54.857 54.5983 57.8849 58.5275 57.8849C62.4566 57.8849 65.6341 54.857 65.6341 51.1331C65.6341 38.0122 54.53 27.3624 40.8633 27.3624C31.16 27.3624 22.2766 32.8613 18.2791 41.3881C16.9466 44.2072 16.2633 47.5135 16.2633 51.1331C16.2633 53.8477 16.5025 58.1285 18.5525 63.6971C18.8941 64.602 18.45 65.6113 17.5616 65.9245C16.6733 66.2725 15.6825 65.7853 15.375 64.9152C13.7008 60.3559 12.8808 55.8315 12.8808 51.1331C12.8808 46.9567 13.6666 43.1631 15.2041 39.8568C19.7483 30.1466 29.8275 23.8472 40.8633 23.8472C56.4091 23.8472 69.0508 36.0632 69.0508 51.0983C69.0508 56.7364 64.3358 61.3304 58.5275 61.3304C52.7191 61.3304 48.0041 56.7364 48.0041 51.0983C48.0041 47.3743 44.8266 44.3464 40.8975 44.3464C36.9683 44.3464 33.7908 47.3743 33.7908 51.0983C33.7908 57.0496 36.0458 62.6182 40.18 66.7946C43.4258 70.0661 46.535 71.8759 51.3525 73.2332C52.275 73.4768 52.7875 74.4513 52.5483 75.3562C52.3775 76.1567 51.66 76.6787 50.9425 76.6787Z" fill="#8062D6"/>
</svg>
