<svg width="352" height="64" viewBox="0 0 352 64" fill="none" xmlns="http://www.w3.org/2000/svg">
<rect x="2.4104" y="2.11328" width="348.079" height="60.0143" rx="30.0071" stroke="#8062D6" stroke-width="3"/>
<path d="M41.6963 25.1735H51.2073M51.2073 25.1735L46.4518 20.418M51.2073 25.1735L46.4518 29.9289" stroke="#8062D6" stroke-width="3" stroke-linecap="round" stroke-linejoin="round"/>
<path d="M45.054 40.5527L38.526 41.8177C34.1166 39.6045 31.3928 37.0622 29.8076 33.0993L31.0281 26.5524L28.721 20.418H22.7752C20.9878 20.418 19.5804 21.895 19.8473 23.6623C20.5137 28.0743 22.4787 36.0738 28.2225 41.8177C34.2543 47.8495 42.9418 50.467 47.7231 51.5073C49.5695 51.9091 51.2073 50.4687 51.2073 48.5792V42.8975L45.054 40.5527Z" stroke="#8062D6" stroke-width="3" stroke-linecap="round" stroke-linejoin="round"/>
<path d="M91.9083 31.2986L91.8883 32.3186L91.9083 33.3386L91.7083 33.3986C90.9883 33.3786 89.7883 33.3386 88.1283 33.3186C88.1483 35.1386 88.1883 36.4186 88.2083 37.1586L88.1483 37.3586H86.1083L86.0483 37.1586C86.0683 36.4186 86.1083 35.1386 86.1283 33.3186C84.4683 33.3386 83.2683 33.3786 82.5483 33.3986L82.3483 33.3386C82.3683 33.1186 82.3683 32.7786 82.3683 32.3186C82.3683 31.8586 82.3683 31.5186 82.3483 31.2986L82.5483 31.2386C83.9683 31.2986 85.1483 31.3186 86.1283 31.3186C86.1083 29.5186 86.0683 28.2386 86.0483 27.4786L86.1083 27.2786H88.1483L88.2083 27.4786C88.1883 28.2386 88.1483 29.5186 88.1283 31.3186C89.1083 31.3186 90.2883 31.2986 91.7083 31.2386L91.9083 31.2986ZM96.4722 38.6386C96.4122 38.1986 96.3322 37.5386 96.1922 36.6586L96.3122 36.4186C97.3322 36.8986 98.7722 37.1986 100.032 37.1986C102.972 37.1986 104.012 35.6186 104.092 31.7786L104.032 31.7586C103.292 33.1986 101.792 34.0786 99.9322 34.0786C96.9922 34.0786 95.3922 32.3786 95.3922 29.3386C95.3922 26.1186 97.3322 24.2586 100.672 24.2586C104.652 24.2586 106.532 26.5786 106.532 31.3986C106.532 36.6986 104.492 39.3386 100.392 39.3386C99.0522 39.3386 97.6122 39.0986 96.4722 38.6386ZM103.452 29.0586C103.452 27.9586 103.012 27.1386 102.212 26.6786C101.772 26.4386 101.252 26.3186 100.632 26.3186C98.7322 26.3186 97.7522 27.3186 97.7522 29.2986C97.7522 31.1586 98.6522 32.0986 100.432 32.0986C102.332 32.0986 103.452 31.0386 103.452 29.0586ZM110.125 38.6386C110.065 38.1986 109.985 37.5386 109.845 36.6586L109.965 36.4186C110.985 36.8986 112.425 37.1986 113.685 37.1986C116.625 37.1986 117.665 35.6186 117.745 31.7786L117.685 31.7586C116.945 33.1986 115.445 34.0786 113.585 34.0786C110.645 34.0786 109.045 32.3786 109.045 29.3386C109.045 26.1186 110.985 24.2586 114.325 24.2586C118.305 24.2586 120.185 26.5786 120.185 31.3986C120.185 36.6986 118.145 39.3386 114.045 39.3386C112.705 39.3386 111.265 39.0986 110.125 38.6386ZM117.105 29.0586C117.105 27.9586 116.665 27.1386 115.865 26.6786C115.425 26.4386 114.905 26.3186 114.285 26.3186C112.385 26.3186 111.405 27.3186 111.405 29.2986C111.405 31.1586 112.305 32.0986 114.085 32.0986C115.985 32.0986 117.105 31.0386 117.105 29.0586ZM122.477 35.3186C122.477 33.6586 123.337 32.3586 124.937 31.7986V31.7186C123.477 31.0586 122.757 29.9586 122.757 28.4186C122.757 25.9386 124.877 24.2586 128.097 24.2586C131.337 24.2586 133.457 25.9386 133.457 28.4186C133.457 29.9586 132.737 31.0586 131.277 31.7186V31.7986C132.877 32.3586 133.717 33.6386 133.717 35.3186C133.717 37.8186 131.597 39.3386 128.097 39.3386C124.597 39.3386 122.477 37.8186 122.477 35.3186ZM131.037 28.6786C131.037 27.1586 129.957 26.2986 128.097 26.2986C126.237 26.2986 125.177 27.1586 125.177 28.6786C125.177 30.1186 126.177 30.8586 128.097 30.8586C130.017 30.8586 131.037 30.1186 131.037 28.6786ZM131.257 35.0586C131.257 33.5386 130.117 32.6786 128.097 32.6786C126.097 32.6786 124.957 33.5386 124.957 35.0586C124.957 36.5186 126.037 37.2786 128.097 37.2786C130.177 37.2786 131.257 36.5186 131.257 35.0586ZM136.921 38.6386C136.861 38.1986 136.781 37.5386 136.641 36.6586L136.761 36.4186C137.781 36.8986 139.221 37.1986 140.481 37.1986C143.421 37.1986 144.461 35.6186 144.541 31.7786L144.481 31.7586C143.741 33.1986 142.241 34.0786 140.381 34.0786C137.441 34.0786 135.841 32.3786 135.841 29.3386C135.841 26.1186 137.781 24.2586 141.121 24.2586C145.101 24.2586 146.981 26.5786 146.981 31.3986C146.981 36.6986 144.941 39.3386 140.841 39.3386C139.501 39.3386 138.061 39.0986 136.921 38.6386ZM143.901 29.0586C143.901 27.9586 143.461 27.1386 142.661 26.6786C142.221 26.4386 141.701 26.3186 141.081 26.3186C139.181 26.3186 138.201 27.3186 138.201 29.2986C138.201 31.1586 139.101 32.0986 140.881 32.0986C142.781 32.0986 143.901 31.0386 143.901 29.0586ZM156.149 39.0186L156.089 38.8186C156.169 38.1786 156.209 37.0786 156.209 35.5186H148.709L148.629 35.3186C148.649 35.1386 148.649 34.8786 148.649 34.5186C148.649 34.1786 148.649 33.9186 148.629 33.7386L155.709 24.5786H158.749L158.829 24.7786C158.789 25.2786 158.749 26.4186 158.729 28.2186C158.709 29.9986 158.689 31.7386 158.689 33.3986H160.829L160.909 33.5986L160.669 35.5186H158.689C158.709 37.2386 158.749 38.3386 158.809 38.8186L158.749 39.0186H156.149ZM151.449 33.3986H156.249V29.9786C156.249 28.7186 156.249 27.7786 156.269 27.1586H156.209L151.449 33.3986ZM168.537 31.8186C168.537 27.0986 170.597 24.2586 174.597 24.2586C178.597 24.2586 180.657 27.0986 180.657 31.8186C180.657 36.3786 178.497 39.3386 174.597 39.3386C170.597 39.3386 168.537 36.4786 168.537 31.8186ZM178.077 31.8186C178.077 28.2986 176.997 26.4386 174.597 26.4386C172.277 26.4386 171.117 28.2386 171.117 31.8186C171.137 35.3986 172.297 37.1786 174.597 37.1786C176.997 37.1786 178.077 35.2786 178.077 31.8186ZM183.185 31.8186C183.185 27.0986 185.245 24.2586 189.245 24.2586C193.245 24.2586 195.305 27.0986 195.305 31.8186C195.305 36.3786 193.145 39.3386 189.245 39.3386C185.245 39.3386 183.185 36.4786 183.185 31.8186ZM192.725 31.8186C192.725 28.2986 191.645 26.4386 189.245 26.4386C186.925 26.4386 185.765 28.2386 185.765 31.8186C185.785 35.3986 186.945 37.1786 189.245 37.1786C191.645 37.1786 192.725 35.2786 192.725 31.8186ZM197.834 31.8186C197.834 27.0986 199.894 24.2586 203.894 24.2586C207.894 24.2586 209.954 27.0986 209.954 31.8186C209.954 36.3786 207.794 39.3386 203.894 39.3386C199.894 39.3386 197.834 36.4786 197.834 31.8186ZM207.374 31.8186C207.374 28.2986 206.294 26.4386 203.894 26.4386C201.574 26.4386 200.414 28.2386 200.414 31.8186C200.434 35.3986 201.594 37.1786 203.894 37.1786C206.294 37.1786 207.374 35.2786 207.374 31.8186ZM219.796 39.0186L219.716 38.7786L223.336 30.3386L224.016 28.7586L224.836 26.8186V26.7786H218.076L217.976 26.5786V24.5786H227.916V26.2786C226.496 29.5186 224.696 33.7586 222.476 39.0186H219.796ZM231.163 39.0186L231.083 38.7786L234.703 30.3386L235.383 28.7586L236.203 26.8186V26.7786H229.443L229.343 26.5786V24.5786H239.283V26.2786C237.863 29.5186 236.063 33.7586 233.843 39.0186H231.163ZM242.531 39.0186L242.451 38.7786L246.071 30.3386L246.751 28.7586L247.571 26.8186V26.7786H240.811L240.711 26.5786V24.5786H250.651V26.2786C249.231 29.5186 247.431 33.7586 245.211 39.0186H242.531ZM253.898 39.0186L253.818 38.7786L257.438 30.3386L258.118 28.7586L258.938 26.8186V26.7786H252.178L252.078 26.5786V24.5786H262.018V26.2786C260.598 29.5186 258.798 33.7586 256.578 39.0186H253.898Z" fill="#8062D6"/>
</svg>
