<svg width="59" height="58" viewBox="0 0 59 58" fill="none" xmlns="http://www.w3.org/2000/svg">
<path d="M29.1393 41.2233C35.8626 41.2233 41.3132 35.7727 41.3132 29.0494C41.3132 22.3259 35.8626 16.8755 29.1393 16.8755C22.4158 16.8755 16.9654 22.3259 16.9654 29.0494C16.9654 35.7727 22.4158 41.2233 29.1393 41.2233Z" stroke="#8062D6" stroke-width="3" stroke-linecap="round" stroke-linejoin="round"/>
<path d="M1.74805 41.2234V16.8756C1.74805 8.47126 8.5611 1.6582 16.9654 1.6582H41.3132C49.7174 1.6582 56.5306 8.47126 56.5306 16.8756V41.2234C56.5306 49.6276 49.7174 56.4407 41.3132 56.4407H16.9654C8.5611 56.4407 1.74805 49.6276 1.74805 41.2234Z" stroke="#8062D6" stroke-width="3"/>
<path d="M45.8784 12.3415L45.9093 12.3071" stroke="#8062D6" stroke-width="3" stroke-linecap="round" stroke-linejoin="round"/>
</svg>
