<svg width="59" height="59" viewBox="0 0 59 59" fill="none" xmlns="http://www.w3.org/2000/svg">
<path d="M1.74805 41.2981V16.9503C1.74805 8.54597 8.5611 1.73291 16.9654 1.73291H41.3132C49.7174 1.73291 56.5306 8.54597 56.5306 16.9503V41.2981C56.5306 49.7023 49.7174 56.5154 41.3132 56.5154H16.9654C8.5611 56.5154 1.74805 49.7023 1.74805 41.2981Z" stroke="#8062D6" stroke-width="3"/>
<path d="M29.3837 27.3946C31.2007 27.3946 32.6737 26.0689 32.6737 24.4336C32.6737 22.7983 31.2007 21.4727 29.3837 21.4727C27.5667 21.4727 26.0938 22.7983 26.0938 24.4336C26.0938 26.0689 27.5667 27.3946 29.3837 27.3946Z" stroke="#8062D6" stroke-width="3" stroke-linecap="round" stroke-linejoin="round"/>
<path d="M29.3837 14.8926C23.9347 14.8926 19.5138 19.0681 19.5138 24.2109C19.5138 30.1284 26.0937 39.5059 28.5098 42.7449C28.6101 42.8816 28.7415 42.9928 28.8934 43.0696C29.0453 43.1463 29.2133 43.1862 29.3837 43.1862C29.5541 43.1862 29.7221 43.1463 29.874 43.0696C30.0258 42.9928 30.1573 42.8816 30.2576 42.7449C32.6736 39.5073 39.2536 30.1331 39.2536 24.2109C39.2536 19.0681 34.8327 14.8926 29.3837 14.8926Z" stroke="#8062D6" stroke-width="3" stroke-linecap="round" stroke-linejoin="round"/>
</svg>
