<svg width="59" height="58" viewBox="0 0 59 58" fill="none" xmlns="http://www.w3.org/2000/svg">
<path d="M35.2238 18.13H44.7445M44.7445 18.13L39.9841 13.3696M44.7445 18.13L39.9841 22.8903" stroke="#8062D6" stroke-width="3" stroke-linecap="round" stroke-linejoin="round"/>
<path d="M1.74811 41.1491V16.8013C1.74811 8.39704 8.56117 1.58398 16.9655 1.58398H41.3133C49.7175 1.58398 56.5306 8.39704 56.5306 16.8013V41.1491C56.5306 49.5534 49.7175 56.3665 41.3133 56.3665H16.9655C8.56117 56.3665 1.74811 49.5534 1.74811 41.1491Z" stroke="#8062D6" stroke-width="3"/>
<path d="M38.585 33.5249L32.0503 34.7911C27.6364 32.5756 24.9098 30.0308 23.323 26.0638L24.5448 19.5103L22.2353 13.3696H16.2835C14.4943 13.3696 13.0854 14.8482 13.3526 16.6173C14.0197 21.0338 15.9866 29.0414 21.7363 34.7911C27.7743 40.8291 36.4706 43.4492 41.2568 44.4906C43.105 44.8928 44.7445 43.4509 44.7445 41.5595V35.872L38.585 33.5249Z" stroke="#8062D6" stroke-width="3" stroke-linecap="round" stroke-linejoin="round"/>
</svg>
